SplineFontDB: 3.0
FontName: HM_XBYagut-Italic
FullName: HM_XBYagut Italic
FamilyName: HM_XBYagut
Weight: Book
Copyright: Copyright (c) Hossein, 2013. All rights reserved.
Version: 0.11
ItalicAngle: 0
UnderlinePosition: -540
UnderlineWidth: 60
Ascent: 1638
Descent: 410
sfntRevision: 0x00010000
LayerCount: 2
Layer: 0 1 "Back"  1
Layer: 1 1 "Fore"  0
XUID: [1021 363 1982125186 1201241]
FSType: 0
OS2Version: 2
OS2_WeightWidthSlopeOnly: 0
OS2_UseTypoMetrics: 1
CreationTime: 1194657960
ModificationTime: 1360911958
PfmFamily: 17
TTFWeight: 400
TTFWidth: 5
LineGap: 0
VLineGap: 0
Panose: 2 0 5 3 9 0 0 9 0 4
OS2TypoAscent: 2050
OS2TypoAOffset: 0
OS2TypoDescent: -1050
OS2TypoDOffset: 0
OS2TypoLinegap: 0
OS2WinAscent: 2050
OS2WinAOffset: 0
OS2WinDescent: 1050
OS2WinDOffset: 0
HheadAscent: 2050
HheadAOffset: 0
HheadDescent: -1050
HheadDOffset: 0
OS2SubXSize: 1434
OS2SubYSize: 1331
OS2SubXOff: 0
OS2SubYOff: 293
OS2SupXSize: 1434
OS2SupYSize: 1331
OS2SupXOff: 0
OS2SupYOff: 928
OS2StrikeYSize: 102
OS2StrikeYPos: 512
OS2Vendor: 'pars'
OS2CodePages: 20000051.41000000
OS2UnicodeRanges: 00002003.80000000.00000008.00000000
Lookup: 6 0 0 "'ccmp' Glyph Composition/Decomposition in Arabic lookup 0"  {"'ccmp' Glyph Composition/Decomposition in Arabic lookup 0 contextual 0"  "'ccmp' Glyph Composition/Decomposition in Arabic lookup 0 contextual 1"  "'ccmp' Glyph Composition/Decomposition in Arabic lookup 0 contextual 2"  "'ccmp' Glyph Composition/Decomposition in Arabic lookup 0 contextual 3"  "'ccmp' Glyph Composition/Decomposition in Arabic lookup 0 contextual 4"  "'ccmp' Glyph Composition/Decomposition in Arabic lookup 0 contextual 5"  } ['ccmp' ('arab' <'ARA ' 'DRI ' 'FAR ' 'KUR ' 'PAS ' 'URD ' 'UYG ' 'UZB ' 'dflt' > ) ]
Lookup: 4 0 0 "'ccmp' Glyph Composition/Decomposition in Arabic lookup 1"  {"'ccmp' Glyph Composition/Decomposition in Arabic lookup 1 subtable"  } ['ccmp' ('arab' <'ARA ' 'DRI ' 'FAR ' 'KUR ' 'PAS ' 'URD ' 'UYG ' 'UZB ' 'dflt' > ) ]

StartChar: .notdef
Encoding: 65536 -1 0
Width: 1122
GlyphClass: 2
Flags: W
LayerCount: 2
Fore
SplineSet
504 299 m 0,0,1
 500 284 500 284 490.5 270.5 c 128,-1,2
 481 257 481 257 468 246.5 c 128,-1,3
 455 236 455 236 439.5 230 c 128,-1,4
 424 224 424 224 408 224 c 0,5,6
 378 224 378 224 362.5 246.5 c 128,-1,7
 347 269 347 269 355 299 c 0,8,9
 363 331 363 331 390.5 352.5 c 128,-1,10
 418 374 418 374 451 374 c 0,11,12
 481 374 481 374 496.5 352.5 c 128,-1,13
 512 331 512 331 504 299 c 0,0,1
741 780 m 0,14,15
 729 737 729 737 698.5 710 c 128,-1,16
 668 683 668 683 631 683 c 0,17,18
 599 683 599 683 584.5 701.5 c 128,-1,19
 570 720 570 720 578 749 c 0,20,21
 584 770 584 770 598 785 c 128,-1,22
 612 800 612 800 627 810.5 c 128,-1,23
 642 821 642 821 654.5 829 c 128,-1,24
 667 837 667 837 668 843 c 0,25,26
 673 863 673 863 657 875 c 128,-1,27
 641 887 641 887 611 887 c 0,28,29
 573 887 573 887 543.5 866 c 128,-1,30
 514 845 514 845 505 813 c 1,31,32
 501 795 501 795 504.5 769 c 128,-1,33
 508 743 508 743 514 718 c 128,-1,34
 520 693 520 693 526 673 c 128,-1,35
 532 653 532 653 532 648 c 0,36,37
 535 619 535 619 532.5 583.5 c 128,-1,38
 530 548 530 548 520 513 c 0,39,40
 514 492 514 492 507 470.5 c 128,-1,41
 500 449 500 449 491 424 c 1,42,-1
 452 424 l 1,43,-1
 457 442 l 1,44,-1
 469 472 l 1,45,46
 478 505 478 505 443 544 c 1,47,48
 388 610 388 610 382 620 c 0,49,50
 351 673 351 673 369 740 c 0,51,52
 380 781 380 781 404 815.5 c 128,-1,53
 428 850 428 850 460.5 875.5 c 128,-1,54
 493 901 493 901 531 915 c 128,-1,55
 569 929 569 929 608 929 c 0,56,57
 643 929 643 929 671.5 918.5 c 128,-1,58
 700 908 700 908 718.5 888.5 c 128,-1,59
 737 869 737 869 743.5 841.5 c 128,-1,60
 750 814 750 814 741 780 c 0,14,15
-60 31 m 1,61,-1
 800 31 l 1,62,-1
 1092 1122 l 1,63,-1
 232 1122 l 1,64,-1
 -60 31 l 1,61,-1
-100 0 m 1,65,-1
 209 1154 l 1,66,-1
 1131 1154 l 1,67,-1
 822 0 l 1,68,-1
 -100 0 l 1,65,-1
EndSplineSet
EndChar

StartChar: exclam
Encoding: 33 33 4
Width: 625
GlyphClass: 2
Flags: W
LayerCount: 2
Fore
SplineSet
-45 206 m 0,0,1
 -39 229 -39 229 -25 249.5 c 128,-1,2
 -11 270 -11 270 8.5 285 c 128,-1,3
 28 300 28 300 50.5 309 c 128,-1,4
 73 318 73 318 97 318 c 0,5,6
 120 318 120 318 138.5 309 c 128,-1,7
 157 300 157 300 168 285 c 128,-1,8
 179 270 179 270 182.5 249.5 c 128,-1,9
 186 229 186 229 180 206 c 0,10,11
 174 184 174 184 160 164.5 c 128,-1,12
 146 145 146 145 126.5 130 c 128,-1,13
 107 115 107 115 84 106.5 c 128,-1,14
 61 98 61 98 36 98 c 0,15,16
 14 98 14 98 -4 106 c 128,-1,17
 -22 114 -22 114 -33 128.5 c 128,-1,18
 -44 143 -44 143 -47.5 162.5 c 128,-1,19
 -51 182 -51 182 -45 206 c 0,0,1
307 885 m 2,20,21
 269 787 269 787 230.5 682 c 128,-1,22
 192 577 192 577 151 479 c 1,23,-1
 123 479 l 1,24,-1
 163 700 l 2,25,26
 164 704 164 704 168 733 c 128,-1,27
 172 762 172 762 179 807 c 128,-1,28
 186 852 186 852 194 908 c 128,-1,29
 202 964 202 964 210.5 1022 c 128,-1,30
 219 1080 219 1080 227 1135.5 c 128,-1,31
 235 1191 235 1191 242 1235 c 128,-1,32
 249 1279 249 1279 253 1307 c 128,-1,33
 257 1335 257 1335 258 1337 c 0,34,35
 266 1367 266 1367 279 1396.5 c 128,-1,36
 292 1426 292 1426 311.5 1450 c 128,-1,37
 331 1474 331 1474 357 1489 c 128,-1,38
 383 1504 383 1504 416 1504 c 0,39,40
 467 1504 467 1504 483.5 1462.5 c 128,-1,41
 500 1421 500 1421 479 1340 c 0,42,43
 474 1323 474 1323 468 1304.5 c 128,-1,44
 462 1286 462 1286 453 1263 c 2,45,-1
 307 885 l 2,20,21
EndSplineSet
EndChar

StartChar: quotedbl
Encoding: 34 34 5
Width: 727
GlyphClass: 2
Flags: W
LayerCount: 2
Fore
SplineSet
479 1469 m 1,0,-1
 292 880 l 1,1,-1
 169 880 l 1,2,-1
 296 1469 l 1,3,-1
 479 1469 l 1,0,-1
822 1469 m 1,4,-1
 634 880 l 1,5,-1
 511 880 l 1,6,-1
 638 1469 l 1,7,-1
 822 1469 l 1,4,-1
EndSplineSet
EndChar

StartChar: numbersign
Encoding: 35 35 6
Width: 1140
GlyphClass: 2
Flags: W
LayerCount: 2
Fore
SplineSet
609 562 m 1,0,1
 655 647 655 647 702 733 c 128,-1,2
 749 819 749 819 796 904 c 1,3,-1
 577 904 l 1,4,5
 531 819 531 819 484.5 733 c 128,-1,6
 438 647 438 647 393 562 c 1,7,-1
 609 562 l 1,0,1
10 562 m 1,8,-1
 242 562 l 1,9,10
 288 647 288 647 334.5 733 c 128,-1,11
 381 819 381 819 428 904 c 1,12,-1
 197 904 l 1,13,-1
 259 1022 l 1,14,-1
 490 1022 l 1,15,16
 548 1130 548 1130 610 1245.5 c 128,-1,17
 672 1361 672 1361 729 1469 c 1,18,-1
 880 1469 l 1,19,-1
 639 1022 l 1,20,-1
 858 1022 l 1,21,22
 886 1073 886 1073 917 1130 c 128,-1,23
 948 1187 948 1187 980 1245.5 c 128,-1,24
 1012 1304 1012 1304 1043 1361 c 128,-1,25
 1074 1418 1074 1418 1101 1469 c 1,26,-1
 1249 1469 l 1,27,-1
 1009 1022 l 1,28,-1
 1240 1022 l 1,29,-1
 1178 904 l 1,30,-1
 947 904 l 1,31,32
 900 819 900 819 853 733 c 128,-1,33
 806 647 806 647 760 562 c 1,34,-1
 992 562 l 1,35,-1
 929 444 l 1,36,-1
 700 444 l 1,37,38
 673 394 673 394 642 337 c 128,-1,39
 611 280 611 280 579.5 222 c 128,-1,40
 548 164 548 164 517 107.5 c 128,-1,41
 486 51 486 51 459 0 c 1,42,-1
 310 0 l 1,43,-1
 549 444 l 1,44,-1
 328 444 l 1,45,46
 300 392 300 392 270 336 c 128,-1,47
 240 280 240 280 209.5 222.5 c 128,-1,48
 179 165 179 165 149 108.5 c 128,-1,49
 119 52 119 52 91 0 c 1,50,-1
 -59 0 l 1,51,-1
 179 444 l 1,52,-1
 -52 444 l 1,53,-1
 10 562 l 1,8,-1
EndSplineSet
EndChar

StartChar: dollar
Encoding: 36 36 7
Width: 1139
GlyphClass: 2
Flags: W
LayerCount: 2
Fore
SplineSet
662 1304 m 1,0,1
 598 1301 598 1301 545.5 1281.5 c 128,-1,2
 493 1262 493 1262 455 1224 c 0,3,4
 380 1149 380 1149 359 1069 c 0,5,6
 346 1021 346 1021 353 982.5 c 128,-1,7
 360 944 360 944 384 915.5 c 128,-1,8
 408 887 408 887 447 867.5 c 128,-1,9
 486 848 486 848 537 837 c 1,10,-1
 662 1304 l 1,0,1
707 230 m 1,11,12
 757 288 757 288 778 368 c 0,13,14
 811 492 811 492 737 557 c 0,15,16
 715 576 715 576 675 594 c 128,-1,17
 635 612 635 612 580 629 c 1,18,-1
 440 106 l 1,19,20
 613 115 613 115 707 230 c 1,11,12
740 1588 m 1,21,-1
 837 1588 l 1,22,-1
 802 1457 l 1,23,24
 897 1449 897 1449 965 1418 c 128,-1,25
 1033 1387 1033 1387 1072.5 1336.5 c 128,-1,26
 1112 1286 1112 1286 1122.5 1217.5 c 128,-1,27
 1133 1149 1133 1149 1113 1065 c 1,28,-1
 937 1065 l 1,29,30
 956 1174 956 1174 909.5 1235 c 128,-1,31
 863 1296 863 1296 760 1301 c 1,32,-1
 631 818 l 1,33,34
 737 786 737 786 808.5 755 c 128,-1,35
 880 724 880 724 912 696 c 0,36,37
 1021 602 1021 602 972 417 c 0,38,39
 902 152 902 152 699 39 c 0,40,41
 645 9 645 9 566.5 -11.5 c 128,-1,42
 488 -32 488 -32 400 -43 c 1,43,-1
 348 -237 l 1,44,-1
 251 -237 l 1,45,-1
 303 -43 l 1,46,47
 166 -32 166 -32 78.5 20.5 c 128,-1,48
 -9 73 -9 73 -36 164 c 0,49,50
 -50 214 -50 214 -45.5 283 c 128,-1,51
 -41 352 -41 352 -19 437 c 1,52,-1
 159 437 l 1,53,54
 144 369 144 369 141.5 319 c 128,-1,55
 139 269 139 269 148 237 c 1,56,57
 157 213 157 213 175.5 192 c 128,-1,58
 194 171 194 171 220 154.5 c 128,-1,59
 246 138 246 138 277 127 c 128,-1,60
 308 116 308 116 342 111 c 1,61,-1
 487 653 l 1,62,63
 287 695 287 695 208 791.5 c 128,-1,64
 129 888 129 888 175 1057 c 0,65,66
 216 1210 216 1210 359 1331 c 0,67,68
 429 1391 429 1391 517.5 1422 c 128,-1,69
 606 1453 606 1453 704 1455 c 1,70,-1
 740 1588 l 1,21,-1
EndSplineSet
EndChar

StartChar: percent
Encoding: 37 37 8
Width: 1821
GlyphClass: 2
Flags: W
LayerCount: 2
Fore
SplineSet
1498 349 m 256,0,1
 1509 390 1509 390 1502.5 427 c 128,-1,2
 1496 464 1496 464 1475.5 492 c 128,-1,3
 1455 520 1455 520 1422 536.5 c 128,-1,4
 1389 553 1389 553 1348 553 c 256,5,6
 1307 553 1307 553 1265.5 536.5 c 128,-1,7
 1224 520 1224 520 1188 492.5 c 128,-1,8
 1152 465 1152 465 1125.5 428 c 128,-1,9
 1099 391 1099 391 1088 349 c 256,10,11
 1077 307 1077 307 1083 270 c 128,-1,12
 1089 233 1089 233 1109.5 205 c 128,-1,13
 1130 177 1130 177 1163 160.5 c 128,-1,14
 1196 144 1196 144 1238 144 c 256,15,16
 1280 144 1280 144 1322 160.5 c 128,-1,17
 1364 177 1364 177 1399.5 205.5 c 128,-1,18
 1435 234 1435 234 1461 271 c 128,-1,19
 1487 308 1487 308 1498 349 c 256,0,1
703 1040 m 0,20,21
 714 1081 714 1081 707.5 1117.5 c 128,-1,22
 701 1154 701 1154 681 1182.5 c 128,-1,23
 661 1211 661 1211 628 1227.5 c 128,-1,24
 595 1244 595 1244 553 1244 c 256,25,26
 511 1244 511 1244 469.5 1227.5 c 128,-1,27
 428 1211 428 1211 392.5 1183.5 c 128,-1,28
 357 1156 357 1156 330.5 1119 c 128,-1,29
 304 1082 304 1082 293 1040 c 256,30,31
 282 998 282 998 288 960.5 c 128,-1,32
 294 923 294 923 314.5 895.5 c 128,-1,33
 335 868 335 868 368 851.5 c 128,-1,34
 401 835 401 835 443 835 c 0,35,36
 486 835 486 835 528 852 c 128,-1,37
 570 869 570 869 605 897 c 128,-1,38
 640 925 640 925 666 962.5 c 128,-1,39
 692 1000 692 1000 703 1040 c 0,20,21
1438 1426 m 1,40,-1
 1550 1426 l 1,41,-1
 355 -38 l 1,42,-1
 243 -38 l 1,43,-1
 1438 1426 l 1,40,-1
1642 349 m 256,44,45
 1623 277 1623 277 1578.5 213.5 c 128,-1,46
 1534 150 1534 150 1474 102.5 c 128,-1,47
 1414 55 1414 55 1343 27.5 c 128,-1,48
 1272 0 1272 0 1200 0 c 256,49,50
 1128 0 1128 0 1071.5 27.5 c 128,-1,51
 1015 55 1015 55 980.5 102.5 c 128,-1,52
 946 150 946 150 935.5 213.5 c 128,-1,53
 925 277 925 277 944 349 c 0,54,55
 963 420 963 420 1007.5 483.5 c 128,-1,56
 1052 547 1052 547 1112 594.5 c 128,-1,57
 1172 642 1172 642 1243 669.5 c 128,-1,58
 1314 697 1314 697 1386 697 c 256,59,60
 1458 697 1458 697 1514 669.5 c 128,-1,61
 1570 642 1570 642 1605 594.5 c 128,-1,62
 1640 547 1640 547 1650.5 484 c 128,-1,63
 1661 421 1661 421 1642 349 c 256,44,45
847 1040 m 0,64,65
 828 968 828 968 783.5 904.5 c 128,-1,66
 739 841 739 841 679 793.5 c 128,-1,67
 619 746 619 746 548 718.5 c 128,-1,68
 477 691 477 691 405 691 c 256,69,70
 333 691 333 691 277 718.5 c 128,-1,71
 221 746 221 746 186 793.5 c 128,-1,72
 151 841 151 841 140.5 904.5 c 128,-1,73
 130 968 130 968 149 1040 c 256,74,75
 168 1112 168 1112 213 1175.5 c 128,-1,76
 258 1239 258 1239 318 1286.5 c 128,-1,77
 378 1334 378 1334 449 1361.5 c 128,-1,78
 520 1389 520 1389 592 1389 c 256,79,80
 664 1389 664 1389 720 1361 c 128,-1,81
 776 1333 776 1333 810.5 1285.5 c 128,-1,82
 845 1238 845 1238 855.5 1174.5 c 128,-1,83
 866 1111 866 1111 847 1040 c 0,64,65
EndSplineSet
Ligature2: "<17013,16013> Roman in Arabic lookup 72 subtable" zero fraction zero
Ligature2: "<17013,16013> Roman in Arabic lookup 72 subtable" zero slash zero
Ligature2: "Ligature Substitution lookup 42 subtable" zero fraction zero
Ligature2: "Ligature Substitution lookup 42 subtable" zero slash zero
EndChar

StartChar: ampersand
Encoding: 38 38 9
Width: 1366
GlyphClass: 2
Flags: W
LayerCount: 2
Fore
SplineSet
785 1008 m 0,0,1
 861 1075 861 1075 884 1157 c 0,2,3
 892 1188 892 1188 888.5 1216.5 c 128,-1,4
 885 1245 885 1245 870 1267 c 128,-1,5
 855 1289 855 1289 829.5 1302 c 128,-1,6
 804 1315 804 1315 768 1315 c 0,7,8
 688 1315 688 1315 629.5 1273 c 128,-1,9
 571 1231 571 1231 551 1159 c 0,10,11
 543 1128 543 1128 543.5 1100 c 128,-1,12
 544 1072 544 1072 554 1042 c 128,-1,13
 564 1012 564 1012 582 977.5 c 128,-1,14
 600 943 600 943 626 900 c 1,15,16
 681 933 681 933 721 960 c 128,-1,17
 761 987 761 987 785 1008 c 0,0,1
506 692 m 1,18,19
 426 646 426 646 369 609.5 c 128,-1,20
 312 573 312 573 286 549 c 0,21,22
 199 473 199 473 171 367 c 1,23,24
 139 252 139 252 207 189 c 0,25,26
 276 126 276 126 372 126 c 0,27,28
 427 126 427 126 478 140 c 128,-1,29
 529 154 529 154 574.5 177 c 128,-1,30
 620 200 620 200 659 229.5 c 128,-1,31
 698 259 698 259 728 290 c 1,32,-1
 506 692 l 1,18,19
369 1137 m 0,33,34
 389 1209 389 1209 430.5 1269.5 c 128,-1,35
 472 1330 472 1330 530 1374 c 128,-1,36
 588 1418 588 1418 659.5 1442.5 c 128,-1,37
 731 1467 731 1467 811 1467 c 0,38,39
 888 1467 888 1467 942.5 1443.5 c 128,-1,40
 997 1420 997 1420 1027.5 1379.5 c 128,-1,41
 1058 1339 1058 1339 1065.5 1285 c 128,-1,42
 1073 1231 1073 1231 1057 1171 c 0,43,44
 1038 1099 1038 1099 999.5 1038.5 c 128,-1,45
 961 978 961 978 902 924 c 0,46,47
 870 895 870 895 814 857.5 c 128,-1,48
 758 820 758 820 691 782 c 1,49,50
 736 703 736 703 781.5 623 c 128,-1,51
 827 543 827 543 872 464 c 1,52,53
 897 506 897 506 912.5 532 c 128,-1,54
 928 558 928 558 940 580.5 c 128,-1,55
 952 603 952 603 963 628 c 128,-1,56
 974 653 974 653 991 693 c 1,57,-1
 1163 693 l 1,58,59
 1136 621 1136 621 1100.5 553.5 c 128,-1,60
 1065 486 1065 486 1022 421 c 0,61,62
 958 326 958 326 946 316 c 1,63,-1
 1122 0 l 1,64,-1
 886 0 l 1,65,-1
 794 167 l 1,66,67
 743 125 743 125 696 91.5 c 128,-1,68
 649 58 649 58 611 38 c 0,69,70
 542 3 542 3 468 -15.5 c 128,-1,71
 394 -34 394 -34 316 -34 c 0,72,73
 87 -34 87 -34 16 89 c 1,74,75
 -53 214 -53 214 -13 368 c 1,76,77
 32 535 32 535 163 648 c 0,78,79
 202 681 202 681 272.5 724 c 128,-1,80
 343 767 343 767 437 817 c 1,81,82
 406 869 406 869 388 914.5 c 128,-1,83
 370 960 370 960 363 997 c 0,84,85
 351 1070 351 1070 369 1137 c 0,33,34
EndSplineSet
EndChar

StartChar: quotesingle
Encoding: 39 39 10
Width: 391
GlyphClass: 2
Flags: W
LayerCount: 2
Fore
SplineSet
477 1469 m 1,0,-1
 286 880 l 1,1,-1
 168 880 l 1,2,-1
 293 1469 l 1,3,-1
 477 1469 l 1,0,-1
EndSplineSet
EndChar

StartChar: parenleft
Encoding: 40 40 11
Width: 782
GlyphClass: 2
Flags: W
LayerCount: 2
Fore
SplineSet
377 1005 m 0,0,1
 462 1085 462 1085 555 1149.5 c 128,-1,2
 648 1214 648 1214 749 1264 c 1,3,-1
 760 1229 l 1,4,5
 562 1099 562 1099 463 981 c 0,6,7
 286 769 286 769 192 420 c 0,8,9
 123 161 123 161 123 -8 c 1,10,11
 126 -303 126 -303 311 -451 c 1,12,-1
 275 -484 l 1,13,14
 221 -455 221 -455 168.5 -395 c 128,-1,15
 116 -335 116 -335 68 -254 c 1,16,17
 -10 -113 -10 -113 -25 50.5 c 128,-1,18
 -40 214 -40 214 5 394 c 1,19,20
 100 746 100 746 377 1005 c 0,0,1
EndSplineSet
Substitution2: "Single Substitution lookup 34 subtable" zerowidthspace
EndChar

StartChar: parenright
Encoding: 41 41 12
Width: 832
GlyphClass: 2
Flags: W
LayerCount: 2
Fore
SplineSet
239 -149 m 0,0,1
 125 -275 125 -275 -35 -384 c 0,2,3
 -88 -419 -88 -419 -131 -444.5 c 128,-1,4
 -174 -470 -174 -470 -208 -484 c 1,5,-1
 -219 -450 l 1,6,7
 -35 -334 -35 -334 69 -211 c 0,8,9
 252 3 252 3 347 358 c 0,10,11
 425 646 425 646 415 827 c 0,12,13
 401 1083 401 1083 229 1230 c 1,14,-1
 265 1264 l 1,15,16
 334 1219 334 1219 390 1153 c 128,-1,17
 446 1087 446 1087 490 998 c 0,18,19
 625 725 625 725 534 384 c 0,20,21
 494 234 494 234 420 101.5 c 128,-1,22
 346 -31 346 -31 239 -149 c 0,0,1
EndSplineSet
Substitution2: "Single Substitution lookup 34 subtable" zerowidthspace
EndChar

StartChar: asterisk
Encoding: 42 42 13
Width: 797
GlyphClass: 2
Flags: W
LayerCount: 2
Fore
SplineSet
539 1075 m 1,0,-1
 479 852 l 1,1,2
 537 871 537 871 597.5 890 c 128,-1,3
 658 909 658 909 717 928 c 1,4,-1
 727 815 l 1,5,-1
 491 745 l 1,6,7
 512 699 512 699 533.5 651 c 128,-1,8
 555 603 555 603 576 558 c 1,9,-1
 455 485 l 1,10,-1
 376 679 l 1,11,12
 330 630 330 630 284.5 582 c 128,-1,13
 239 534 239 534 192 485 c 1,14,-1
 108 558 l 1,15,-1
 295 745 l 1,16,17
 244 762 244 762 195 780 c 128,-1,18
 146 798 146 798 95 815 c 1,19,-1
 165 928 l 1,20,-1
 360 850 l 1,21,-1
 421 1075 l 1,22,-1
 539 1075 l 1,0,-1
EndSplineSet
EndChar

StartChar: plus
Encoding: 43 43 14
Width: 1140
GlyphClass: 2
Flags: W
LayerCount: 2
Fore
SplineSet
-34 437 m 1,0,-1
 11 607 l 1,1,-1
 446 607 l 1,2,-1
 564 1046 l 1,3,-1
 737 1046 l 1,4,-1
 619 607 l 1,5,-1
 1054 607 l 1,6,-1
 1009 437 l 1,7,-1
 574 437 l 1,8,-1
 457 0 l 1,9,-1
 284 0 l 1,10,-1
 401 437 l 1,11,-1
 -34 437 l 1,0,-1
EndSplineSet
EndChar

StartChar: comma
Encoding: 44 44 15
Width: 569
GlyphClass: 2
Flags: W
LayerCount: 2
Fore
SplineSet
-87 -207 m 1,0,1
 -60 -203 -60 -203 -34.5 -186 c 128,-1,2
 -9 -169 -9 -169 12.5 -143.5 c 128,-1,3
 34 -118 34 -118 50.5 -85 c 128,-1,4
 67 -52 67 -52 77 -14 c 0,5,6
 78 -10 78 -10 78.5 -7 c 128,-1,7
 79 -4 79 -4 79 0 c 1,8,-1
 -31 0 l 1,9,-1
 27 220 l 1,10,-1
 243 220 l 1,11,-1
 189 17 l 2,12,13
 174 -41 174 -41 148.5 -94.5 c 128,-1,14
 123 -148 123 -148 86.5 -191 c 128,-1,15
 50 -234 50 -234 0.5 -264 c 128,-1,16
 -49 -294 -49 -294 -113 -304 c 1,17,-1
 -87 -207 l 1,0,1
EndSplineSet
EndChar

StartChar: hyphen
Encoding: 45 45 16
AltUni2: 0000ad.ffffffff.0 002212.ffffffff.0
Width: 1140
GlyphClass: 2
Flags: W
LayerCount: 2
Fore
SplineSet
82 609 m 1,0,-1
 985 609 l 1,1,-1
 938 435 l 1,2,-1
 35 435 l 1,3,-1
 82 609 l 1,0,-1
EndSplineSet
Substitution2: "<17011,16011>  in Arabic lookup 68 nested-substitutions 0 subtable" hyphenlow
Substitution2: "<17010,16010>  in Arabic lookup 66 nested-substitutions 0 subtable" hyphenlow
Substitution2: "Single Substitution lookup 34 subtable" hyphenlow
EndChar

StartChar: period
Encoding: 46 46 17
Width: 629
GlyphClass: 2
Flags: W
LayerCount: 2
Fore
SplineSet
-39 231 m 0,0,1
 -32 255 -32 255 -17.5 276 c 128,-1,2
 -3 297 -3 297 17 312.5 c 128,-1,3
 37 328 37 328 60 336.5 c 128,-1,4
 83 345 83 345 107 345 c 256,5,6
 131 345 131 345 149.5 336 c 128,-1,7
 168 327 168 327 179.5 312 c 128,-1,8
 191 297 191 297 194 276 c 128,-1,9
 197 255 197 255 190 231 c 0,10,11
 184 208 184 208 170 187 c 128,-1,12
 156 166 156 166 137 150.5 c 128,-1,13
 118 135 118 135 94.5 125.5 c 128,-1,14
 71 116 71 116 46 116 c 256,15,16
 21 116 21 116 2.5 125.5 c 128,-1,17
 -16 135 -16 135 -27.5 150.5 c 128,-1,18
 -39 166 -39 166 -42 187 c 128,-1,19
 -45 208 -45 208 -39 231 c 0,0,1
EndSplineSet
Substitution2: "<17016,16016> Urdu Swash lookup 75 subtable" uni06D4
Substitution2: "<17012,16012> Period to Comma in Arabic lookup 70 nested-substitutions 0 subtable" uni066C
Substitution2: "Single Substitution lookup 34 subtable" uni066C
EndChar

StartChar: slash
Encoding: 47 47 18
Width: 569
GlyphClass: 2
Flags: W
LayerCount: 2
Fore
SplineSet
658 1469 m 1,0,-1
 812 1469 l 1,1,-1
 -47 0 l 1,2,-1
 -201 0 l 1,3,-1
 658 1469 l 1,0,-1
EndSplineSet
Substitution2: "<17016,16016> Urdu Swash lookup 75 subtable" slash
EndChar

StartChar: zero
Encoding: 48 48 19
Width: 1140
GlyphClass: 2
Flags: W
LayerCount: 2
Fore
SplineSet
847 711 m 0,0,1
 912 953 912 953 894 1111 c 0,2,3
 876 1268 876 1268 704 1268 c 0,4,5
 545 1268 545 1268 432.5 1120 c 128,-1,6
 320 972 320 972 242 680 c 0,7,8
 207 549 207 549 197.5 446 c 128,-1,9
 188 343 188 343 206 272 c 128,-1,10
 224 201 224 201 268.5 164 c 128,-1,11
 313 127 313 127 386 127 c 0,12,13
 526 127 526 127 641 251 c 0,14,15
 757 376 757 376 847 711 c 0,0,1
1078 1202 m 0,16,17
 1126 1024 1126 1024 1044 718 c 0,18,19
 996 537 996 537 925 396.5 c 128,-1,20
 854 256 854 256 765 159 c 128,-1,21
 676 62 676 62 569 11.5 c 128,-1,22
 462 -39 462 -39 342 -39 c 0,23,24
 224 -39 224 -39 146 9.5 c 128,-1,25
 68 58 68 58 30.5 151 c 128,-1,26
 -7 244 -7 244 -2.5 379 c 128,-1,27
 2 514 2 514 48 687 c 0,28,29
 96 868 96 868 166 1007 c 128,-1,30
 236 1146 236 1146 324 1240.5 c 128,-1,31
 412 1335 412 1335 516 1383.5 c 128,-1,32
 620 1432 620 1432 737 1432 c 0,33,34
 1015 1432 1015 1432 1078 1202 c 0,16,17
EndSplineSet
Substitution2: "<17016,16016> Urdu Swash lookup 75 subtable" zero
EndChar

StartChar: one
Encoding: 49 49 20
Width: 1140
GlyphClass: 2
Flags: W
LayerCount: 2
Fore
SplineSet
266 1013 m 1,0,-1
 303 1152 l 1,1,2
 504 1171 504 1171 593 1215 c 1,3,-1
 592 1215 l 1,4,5
 682 1261 682 1261 764 1426 c 1,6,-1
 908 1426 l 1,7,-1
 526 0 l 1,8,-1
 332 0 l 1,9,-1
 603 1013 l 1,10,-1
 266 1013 l 1,0,-1
EndSplineSet
Substitution2: "<17016,16016> Urdu Swash lookup 75 subtable" one
EndChar

StartChar: two
Encoding: 50 50 21
Width: 1140
GlyphClass: 2
Flags: W
LayerCount: 2
Fore
SplineSet
574 683 m 2,0,1
 646 719 646 719 701.5 752 c 128,-1,2
 757 785 757 785 789 811 c 0,3,4
 894 893 894 893 921 1000 c 1,5,6
 938 1061 938 1061 931.5 1111 c 128,-1,7
 925 1161 925 1161 898.5 1196 c 128,-1,8
 872 1231 872 1231 827 1250.5 c 128,-1,9
 782 1270 782 1270 720 1270 c 0,10,11
 629 1270 629 1270 555 1233.5 c 128,-1,12
 481 1197 481 1197 428 1131 c 1,13,14
 399 1093 399 1093 374.5 1041 c 128,-1,15
 350 989 350 989 330 923 c 1,16,-1
 146 923 l 1,17,18
 220 1183 220 1183 378 1310 c 128,-1,19
 536 1437 536 1437 766 1437 c 0,20,21
 1014 1437 1014 1437 1089 1304 c 0,22,23
 1128 1235 1128 1235 1137.5 1164 c 128,-1,24
 1147 1093 1147 1093 1124 1008 c 0,25,26
 1078 835 1078 835 924 713 c 0,27,28
 882 680 882 680 804 635 c 128,-1,29
 726 590 726 590 626 541 c 0,30,31
 579 518 579 518 531.5 495.5 c 128,-1,32
 484 473 484 473 440 450.5 c 128,-1,33
 396 428 396 428 357 405.5 c 128,-1,34
 318 383 318 383 288 362 c 0,35,36
 228 319 228 319 183 272 c 128,-1,37
 138 225 138 225 112 172 c 1,38,-1
 893 172 l 1,39,-1
 847 0 l 1,40,-1
 -136 0 l 1,41,42
 -76 187 -76 187 26 323 c 1,43,44
 132 462 132 462 352 572 c 2,45,-1
 574 683 l 2,0,1
EndSplineSet
Substitution2: "<17016,16016> Urdu Swash lookup 75 subtable" two
EndChar

StartChar: three
Encoding: 51 51 22
Width: 1140
GlyphClass: 2
Flags: W
LayerCount: 2
Fore
SplineSet
156 441 m 1,0,1
 130 302 130 302 154 240 c 1,2,3
 195 127 195 127 376 127 c 0,4,5
 447 127 447 127 510 147.5 c 128,-1,6
 573 168 573 168 623.5 204 c 128,-1,7
 674 240 674 240 709.5 289.5 c 128,-1,8
 745 339 745 339 761 397 c 0,9,10
 781 471 781 471 771 522 c 128,-1,11
 761 573 761 573 725 604 c 128,-1,12
 689 635 689 635 629.5 648.5 c 128,-1,13
 570 662 570 662 491 662 c 0,14,15
 473 662 473 662 454 661.5 c 128,-1,16
 435 661 435 661 415 660 c 1,17,-1
 458 821 l 1,18,19
 485 818 485 818 504 817 c 128,-1,20
 523 816 523 816 546 816 c 0,21,22
 685 816 685 816 771 875 c 128,-1,23
 857 934 857 934 887 1047 c 0,24,25
 901 1100 901 1100 891 1141 c 128,-1,26
 881 1182 881 1182 853.5 1210.5 c 128,-1,27
 826 1239 826 1239 784.5 1253.5 c 128,-1,28
 743 1268 743 1268 694 1268 c 0,29,30
 552 1268 552 1268 461 1194 c 128,-1,31
 370 1120 370 1120 321 961 c 1,32,-1
 142 961 l 1,33,34
 171 1069 171 1069 224.5 1156.5 c 128,-1,35
 278 1244 278 1244 352.5 1305.5 c 128,-1,36
 427 1367 427 1367 519.5 1400.5 c 128,-1,37
 612 1434 612 1434 720 1434 c 0,38,39
 830 1434 830 1434 908.5 1409.5 c 128,-1,40
 987 1385 987 1385 1033 1337 c 128,-1,41
 1079 1289 1079 1289 1090.5 1218 c 128,-1,42
 1102 1147 1102 1147 1077 1054 c 0,43,44
 1048 948 1048 948 984 874.5 c 128,-1,45
 920 801 920 801 816 760 c 1,46,47
 921 729 921 729 959.5 641 c 128,-1,48
 998 553 998 553 963 424 c 0,49,50
 936 323 936 323 879.5 238 c 128,-1,51
 823 153 823 153 740.5 91.5 c 128,-1,52
 658 30 658 30 552 -4.5 c 128,-1,53
 446 -39 446 -39 321 -39 c 0,54,55
 65 -39 65 -39 -11 100 c 0,56,57
 -88 240 -88 240 -33 441 c 1,58,-1
 156 441 l 1,0,1
EndSplineSet
Substitution2: "<17016,16016> Urdu Swash lookup 75 subtable" three
EndChar

StartChar: four
Encoding: 52 52 23
Width: 1140
GlyphClass: 2
Flags: W
LayerCount: 2
Fore
SplineSet
612 508 m 1,0,-1
 784 1151 l 1,1,2
 626 990 626 990 470 830 c 128,-1,3
 314 670 314 670 156 508 c 1,4,-1
 612 508 l 1,0,-1
479 0 m 1,5,-1
 572 350 l 1,6,-1
 -55 350 l 1,7,-1
 -7 527 l 1,8,-1
 891 1436 l 1,9,-1
 1045 1436 l 1,10,-1
 797 508 l 1,11,-1
 1007 508 l 1,12,-1
 964 350 l 1,13,-1
 754 350 l 1,14,-1
 661 0 l 1,15,-1
 479 0 l 1,5,-1
EndSplineSet
Substitution2: "<17016,16016> Urdu Swash lookup 75 subtable" four
EndChar

StartChar: five
Encoding: 53 53 24
Width: 1140
GlyphClass: 2
Flags: W
LayerCount: 2
Fore
SplineSet
152 366 m 1,0,1
 134 250 134 250 192.5 187 c 128,-1,2
 251 124 251 124 377 124 c 0,3,4
 537 124 537 124 640 226 c 0,5,6
 745 329 745 329 777 450 c 0,7,8
 797 525 797 525 787.5 583 c 128,-1,9
 778 641 778 641 746 681 c 128,-1,10
 714 721 714 721 663.5 742 c 128,-1,11
 613 763 613 763 551 763 c 0,12,13
 458 763 458 763 382.5 727 c 128,-1,14
 307 691 307 691 243 627 c 1,15,-1
 88 636 l 1,16,-1
 403 1408 l 1,17,-1
 1148 1408 l 1,18,-1
 1101 1232 l 1,19,-1
 493 1232 l 1,20,21
 451 1134 451 1134 410 1035.5 c 128,-1,22
 369 937 369 937 327 839 c 1,23,24
 366 863 366 863 402 879.5 c 128,-1,25
 438 896 438 896 474 906.5 c 128,-1,26
 510 917 510 917 548 922 c 128,-1,27
 586 927 586 927 629 927 c 0,28,29
 828 927 828 927 930 800 c 1,30,31
 1031 672 1031 672 979 477 c 0,32,33
 953 377 953 377 895.5 285.5 c 128,-1,34
 838 194 838 194 757 119 c 256,35,36
 676 44 676 44 564.5 4 c 128,-1,37
 453 -36 453 -36 316 -36 c 0,38,39
 141 -36 141 -36 31 62 c 1,40,41
 -22 111 -22 111 -38 188.5 c 128,-1,42
 -54 266 -54 266 -36 366 c 1,43,-1
 152 366 l 1,0,1
EndSplineSet
Substitution2: "<17016,16016> Urdu Swash lookup 75 subtable" five
EndChar

StartChar: six
Encoding: 54 54 25
Width: 1140
GlyphClass: 2
Flags: W
LayerCount: 2
Fore
SplineSet
786 444 m 1,0,1
 816 553 816 553 779 652 c 1,2,3
 743 752 743 752 578 752 c 0,4,5
 522 752 522 752 464.5 733 c 128,-1,6
 407 714 407 714 356.5 675.5 c 128,-1,7
 306 637 306 637 266 579 c 128,-1,8
 226 521 226 521 205 444 c 0,9,10
 187 378 187 378 192 320 c 128,-1,11
 197 262 197 262 224 218.5 c 128,-1,12
 251 175 251 175 300 150 c 128,-1,13
 349 125 349 125 419 125 c 0,14,15
 490 125 490 125 550 151.5 c 128,-1,16
 610 178 610 178 657 222.5 c 128,-1,17
 704 267 704 267 737 324.5 c 128,-1,18
 770 382 770 382 786 444 c 1,0,1
931 1056 m 1,19,20
 940 1172 940 1172 893.5 1225 c 128,-1,21
 847 1278 847 1278 744 1278 c 0,22,23
 669 1278 669 1278 599.5 1243 c 128,-1,24
 530 1208 530 1208 468.5 1140 c 128,-1,25
 407 1072 407 1072 355 972.5 c 128,-1,26
 303 873 303 873 263 745 c 1,27,28
 347 832 347 832 454 878 c 0,29,30
 502 899 502 899 552 908.5 c 128,-1,31
 602 918 602 918 656 918 c 0,32,33
 838 918 838 918 941 803 c 1,34,35
 1042 687 1042 687 981 459 c 0,36,37
 930 265 930 265 762 113 c 0,38,39
 596 -37 596 -37 360 -37 c 0,40,41
 157 -37 157 -37 52 115 c 1,42,43
 1 192 1 192 0.5 320.5 c 128,-1,44
 0 449 0 449 45 629 c 1,45,46
 98 827 98 827 173.5 978.5 c 128,-1,47
 249 1130 249 1130 343 1232 c 128,-1,48
 437 1334 437 1334 548.5 1386 c 128,-1,49
 660 1438 660 1438 784 1438 c 0,50,51
 1025 1438 1025 1438 1084 1313 c 1,52,53
 1146 1188 1146 1188 1110 1056 c 1,54,-1
 931 1056 l 1,19,20
EndSplineSet
Substitution2: "<17016,16016> Urdu Swash lookup 75 subtable" six
EndChar

StartChar: seven
Encoding: 55 55 26
Width: 1140
GlyphClass: 2
Flags: W
LayerCount: 2
Fore
SplineSet
1248 1408 m 1,0,-1
 1205 1249 l 1,1,2
 1162 1216 1162 1216 1099 1156.5 c 128,-1,3
 1036 1097 1036 1097 960 1017 c 0,4,5
 880 933 880 933 805.5 843.5 c 128,-1,6
 731 754 731 754 662 660 c 0,7,8
 594 567 594 567 538 481.5 c 128,-1,9
 482 396 482 396 439 320 c 1,10,11
 412 270 412 270 371 189 c 128,-1,12
 330 108 330 108 279 0 c 1,13,-1
 78 0 l 1,14,15
 167 207 167 207 296 409.5 c 128,-1,16
 425 612 425 612 596 816 c 0,17,18
 697 936 697 936 795.5 1038 c 128,-1,19
 894 1140 894 1140 992 1225 c 1,20,-1
 203 1225 l 1,21,-1
 252 1408 l 1,22,-1
 1248 1408 l 1,0,-1
EndSplineSet
Substitution2: "<17016,16016> Urdu Swash lookup 75 subtable" seven
EndChar

StartChar: eight
Encoding: 56 56 27
Width: 1140
GlyphClass: 2
Flags: W
LayerCount: 2
Fore
SplineSet
892 1057 m 0,0,1
 912 1136 912 1136 867 1202 c 0,2,3
 821 1269 821 1269 691 1269 c 0,4,5
 626 1269 626 1269 574.5 1250 c 128,-1,6
 523 1231 523 1231 485 1200 c 128,-1,7
 447 1169 447 1169 422 1129 c 128,-1,8
 397 1089 397 1089 386 1047 c 0,9,10
 373 997 373 997 383 957 c 128,-1,11
 393 917 393 917 420.5 889.5 c 128,-1,12
 448 862 448 862 489.5 847.5 c 128,-1,13
 531 833 531 833 580 833 c 0,14,15
 639 833 639 833 690.5 851 c 128,-1,16
 742 869 742 869 783 900 c 128,-1,17
 824 931 824 931 852 971.5 c 128,-1,18
 880 1012 880 1012 892 1057 c 0,0,1
762 392 m 0,19,20
 780 461 780 461 771 514 c 128,-1,21
 762 567 762 567 731 602.5 c 128,-1,22
 700 638 700 638 650 656 c 128,-1,23
 600 674 600 674 535 674 c 0,24,25
 473 674 473 674 414.5 655 c 128,-1,26
 356 636 356 636 307.5 600.5 c 128,-1,27
 259 565 259 565 223 514 c 128,-1,28
 187 463 187 463 170 398 c 0,29,30
 141 287 141 287 193 206 c 0,31,32
 219 165 219 165 273 146.5 c 128,-1,33
 327 128 327 128 401 125 c 1,34,35
 462 125 462 125 519.5 142 c 128,-1,36
 577 159 577 159 625 192.5 c 128,-1,37
 673 226 673 226 708.5 276 c 128,-1,38
 744 326 744 326 762 392 c 0,19,20
219 837 m 1,39,40
 161 916 161 916 196 1046 c 0,41,42
 217 1127 217 1127 264.5 1195 c 128,-1,43
 312 1263 312 1263 384 1321 c 1,44,45
 530 1436 530 1436 745 1436 c 0,46,47
 847 1436 847 1436 920.5 1406.5 c 128,-1,48
 994 1377 994 1377 1037.5 1327.5 c 128,-1,49
 1081 1278 1081 1278 1094.5 1212 c 128,-1,50
 1108 1146 1108 1146 1088 1074 c 0,51,52
 1073 1020 1073 1020 1052 976 c 128,-1,53
 1031 932 1031 932 999.5 895 c 128,-1,54
 968 858 968 858 924.5 826.5 c 128,-1,55
 881 795 881 795 821 765 c 1,56,57
 897 724 897 724 935 672 c 1,58,59
 1004 574 1004 574 960 411 c 0,60,61
 909 222 909 222 747 90 c 0,62,63
 666 24 666 24 568.5 -8.5 c 128,-1,64
 471 -41 471 -41 353 -41 c 0,65,66
 144 -41 144 -41 28 72 c 1,67,68
 -29 129 -29 129 -42 211.5 c 128,-1,69
 -55 294 -55 294 -27 402 c 0,70,71
 7 529 7 529 93 621 c 128,-1,72
 179 713 179 713 313 763 c 1,73,74
 245 796 245 796 219 837 c 1,39,40
EndSplineSet
Substitution2: "<17016,16016> Urdu Swash lookup 75 subtable" eight
EndChar

StartChar: nine
Encoding: 57 57 28
Width: 1140
GlyphClass: 2
Flags: W
LayerCount: 2
Fore
SplineSet
884 957 m 0,0,1
 905 1036 905 1036 899 1094.5 c 128,-1,2
 893 1153 893 1153 865.5 1191.5 c 128,-1,3
 838 1230 838 1230 792 1249 c 128,-1,4
 746 1268 746 1268 686 1268 c 0,5,6
 622 1268 622 1268 562.5 1244.5 c 128,-1,7
 503 1221 503 1221 454.5 1178.5 c 128,-1,8
 406 1136 406 1136 369.5 1076.5 c 128,-1,9
 333 1017 333 1017 314 945 c 0,10,11
 296 877 296 877 297 821 c 128,-1,12
 298 765 298 765 322 725 c 128,-1,13
 346 685 346 685 393.5 663 c 128,-1,14
 441 641 441 641 516 641 c 0,15,16
 622 641 622 641 729 711 c 0,17,18
 837 782 837 782 884 957 c 0,0,1
166 348 m 1,19,20
 142 235 142 235 189.5 173.5 c 128,-1,21
 237 112 237 112 341 112 c 0,22,23
 404 112 404 112 466.5 140 c 128,-1,24
 529 168 529 168 588 219 c 1,25,26
 707 328 707 328 831 649 c 1,27,28
 789 602 789 602 743 570 c 128,-1,29
 697 538 697 538 648.5 518 c 128,-1,30
 600 498 600 498 550 489.5 c 128,-1,31
 500 481 500 481 449 481 c 0,32,33
 345 481 345 481 271 515.5 c 128,-1,34
 197 550 197 550 155.5 611.5 c 128,-1,35
 114 673 114 673 106 757.5 c 128,-1,36
 98 842 98 842 125 943 c 0,37,38
 151 1042 151 1042 204 1126.5 c 128,-1,39
 257 1211 257 1211 336 1286 c 0,40,41
 493 1434 493 1434 727 1434 c 0,42,43
 849 1434 849 1434 929.5 1388.5 c 128,-1,44
 1010 1343 1010 1343 1050 1257 c 128,-1,45
 1090 1171 1090 1171 1088.5 1046.5 c 128,-1,46
 1087 922 1087 922 1045 764 c 0,47,48
 1010 635 1010 635 958 517 c 128,-1,49
 906 399 906 399 842 299 c 0,50,51
 734 133 734 133 598 46.5 c 128,-1,52
 462 -40 462 -40 307 -40 c 0,53,54
 201 -40 201 -40 128.5 -10.5 c 128,-1,55
 56 19 56 19 16.5 71.5 c 128,-1,56
 -23 124 -23 124 -31 195 c 128,-1,57
 -39 266 -39 266 -17 348 c 1,58,-1
 166 348 l 1,19,20
EndSplineSet
Substitution2: "<17016,16016> Urdu Swash lookup 75 subtable" nine
EndChar

StartChar: colon
Encoding: 58 58 29
Width: 630
GlyphClass: 2
Flags: W
LayerCount: 2
Fore
SplineSet
205 727 m 0,0,1
 181 727 181 727 163 736.5 c 128,-1,2
 145 746 145 746 134.5 761.5 c 128,-1,3
 124 777 124 777 121.5 797.5 c 128,-1,4
 119 818 119 818 125 840 c 0,5,6
 131 863 131 863 145 883.5 c 128,-1,7
 159 904 159 904 178 919 c 128,-1,8
 197 934 197 934 220 943 c 128,-1,9
 243 952 243 952 266 952 c 0,10,11
 288 952 288 952 306 943.5 c 128,-1,12
 324 935 324 935 336 920 c 128,-1,13
 348 905 348 905 352 885 c 128,-1,14
 356 865 356 865 350 841 c 0,15,16
 343 816 343 816 328 795 c 128,-1,17
 313 774 313 774 293 759 c 128,-1,18
 273 744 273 744 250 735.5 c 128,-1,19
 227 727 227 727 205 727 c 0,0,1
-37 237 m 0,20,21
 -31 260 -31 260 -16.5 280.5 c 128,-1,22
 -2 301 -2 301 17.5 316.5 c 128,-1,23
 37 332 37 332 60 341 c 128,-1,24
 83 350 83 350 105 350 c 0,25,26
 128 350 128 350 147 341.5 c 128,-1,27
 166 333 166 333 178.5 318 c 128,-1,28
 191 303 191 303 195 282.5 c 128,-1,29
 199 262 199 262 193 238 c 0,30,31
 187 217 187 217 173.5 196.5 c 128,-1,32
 160 176 160 176 140 159.5 c 128,-1,33
 120 143 120 143 94.5 133 c 128,-1,34
 69 123 69 123 40 123 c 0,35,36
 19 123 19 123 1.5 132 c 128,-1,37
 -16 141 -16 141 -26.5 156 c 128,-1,38
 -37 171 -37 171 -40 192 c 128,-1,39
 -43 213 -43 213 -37 237 c 0,20,21
EndSplineSet
Substitution2: "<17016,16016> Urdu Swash lookup 75 subtable" colon
EndChar

StartChar: semicolon
Encoding: 59 59 30
Width: 569
GlyphClass: 2
Flags: W
LayerCount: 2
Fore
SplineSet
309 1058 m 1,0,-1
 524 1058 l 1,1,-1
 465 838 l 1,2,-1
 250 838 l 1,3,-1
 309 1058 l 1,0,-1
-30 -207 m 1,4,5
 26 -196 26 -196 68 -147 c 128,-1,6
 110 -98 110 -98 130 -23 c 0,7,8
 132 -18 132 -18 135 0 c 1,9,-1
 26 0 l 1,10,-1
 84 220 l 1,11,-1
 299 220 l 1,12,-1
 245 17 l 2,13,14
 207 -126 207 -126 131.5 -205 c 128,-1,15
 56 -284 56 -284 -56 -304 c 1,16,-1
 -30 -207 l 1,4,5
EndSplineSet
Substitution2: "<17016,16016> Urdu Swash lookup 75 subtable" semicolon
EndChar

StartChar: less
Encoding: 60 60 31
Width: 1140
GlyphClass: 2
Flags: W
LayerCount: 2
Fore
SplineSet
-34 607 m 1,0,-1
 1221 1065 l 1,1,-1
 1172 883 l 1,2,-1
 161 523 l 1,3,4
 267 478 267 478 368 433 c 128,-1,5
 469 388 469 388 569.5 343 c 128,-1,6
 670 298 670 298 771.5 253 c 128,-1,7
 873 208 873 208 979 163 c 1,8,-1
 930 -19 l 1,9,-1
 -79 439 l 1,10,-1
 -34 607 l 1,0,-1
EndSplineSet
Substitution2: "<17016,16016> Urdu Swash lookup 75 subtable" less
EndChar

StartChar: equal
Encoding: 61 61 32
Width: 1140
GlyphClass: 2
Flags: W
LayerCount: 2
Fore
SplineSet
1112 823 m 1,0,-1
 1066 653 l 1,1,-1
 23 653 l 1,2,-1
 69 823 l 1,3,-1
 1112 823 l 1,0,-1
997 394 m 1,4,-1
 951 222 l 1,5,-1
 -92 222 l 1,6,-1
 -46 394 l 1,7,-1
 997 394 l 1,4,-1
EndSplineSet
Substitution2: "<17016,16016> Urdu Swash lookup 75 subtable" equal
EndChar

StartChar: greater
Encoding: 62 62 33
Width: 1140
GlyphClass: 2
Flags: W
LayerCount: 2
Fore
SplineSet
1053 439 m 1,0,-1
 -201 -19 l 1,1,-1
 -153 163 l 1,2,3
 -23 208 -23 208 102.5 253 c 128,-1,4
 228 298 228 298 352.5 343 c 128,-1,5
 477 388 477 388 602.5 433 c 128,-1,6
 728 478 728 478 859 523 c 1,7,-1
 40 883 l 1,8,-1
 89 1065 l 1,9,-1
 1098 607 l 1,10,-1
 1053 439 l 1,0,-1
EndSplineSet
Substitution2: "<17016,16016> Urdu Swash lookup 75 subtable" greater
EndChar

StartChar: question
Encoding: 63 63 34
Width: 1139
GlyphClass: 2
Flags: W
LayerCount: 2
Fore
SplineSet
348 210 m 1,0,-1
 549 210 l 1,1,-1
 493 0 l 1,2,-1
 292 0 l 1,3,-1
 348 210 l 1,0,-1
811 1488 m 0,4,5
 909 1488 909 1488 981 1458.5 c 128,-1,6
 1053 1429 1053 1429 1095.5 1375.5 c 128,-1,7
 1138 1322 1138 1322 1149.5 1248.5 c 128,-1,8
 1161 1175 1161 1175 1138 1087 c 0,9,10
 1124 1033 1124 1033 1101 990.5 c 128,-1,11
 1078 948 1078 948 1048 915 c 1,12,13
 1017 883 1017 883 960 833.5 c 128,-1,14
 903 784 903 784 822 721 c 0,15,16
 762 675 762 675 719.5 635 c 128,-1,17
 677 595 677 595 655 564 c 0,18,19
 610 501 610 501 575 373 c 1,20,-1
 395 373 l 1,21,22
 415 445 415 445 439 502.5 c 128,-1,23
 463 560 463 560 491 604 c 0,24,25
 520 649 520 649 572 700 c 128,-1,26
 624 751 624 751 694 806 c 0,27,28
 742 843 742 843 790.5 880.5 c 128,-1,29
 839 918 839 918 873 956 c 0,30,31
 930 1022 930 1022 948 1089 c 0,32,33
 961 1136 961 1136 957 1179.5 c 128,-1,34
 953 1223 953 1223 935 1258 c 0,35,36
 896 1330 896 1330 762 1330 c 0,37,38
 697 1330 697 1330 642.5 1312 c 128,-1,39
 588 1294 588 1294 544 1255 c 128,-1,40
 500 1216 500 1216 465.5 1155 c 128,-1,41
 431 1094 431 1094 405 1008 c 1,42,-1
 226 1008 l 1,43,44
 255 1116 255 1116 310.5 1204.5 c 128,-1,45
 366 1293 366 1293 442 1356 c 128,-1,46
 518 1419 518 1419 611.5 1453.5 c 128,-1,47
 705 1488 705 1488 811 1488 c 0,4,5
EndSplineSet
Substitution2: "<17016,16016> Urdu Swash lookup 75 subtable" question
EndChar

StartChar: at
Encoding: 64 64 35
Width: 2079
GlyphClass: 2
Flags: W
LayerCount: 2
Fore
SplineSet
1175 1053 m 0,0,1
 1119 1053 1119 1053 1060 1018.5 c 128,-1,2
 1001 984 1001 984 941 918 c 1,3,4
 884 852 884 852 844 784.5 c 128,-1,5
 804 717 804 717 787 652 c 0,6,7
 761 554 761 554 790 503 c 128,-1,8
 819 452 819 452 884 452 c 0,9,10
 1020 452 1020 452 1134 608 c 0,11,12
 1194 689 1194 689 1231.5 758 c 128,-1,13
 1269 827 1269 827 1287 893 c 0,14,15
 1295 922 1295 922 1292 950.5 c 128,-1,16
 1289 979 1289 979 1275 1002 c 128,-1,17
 1261 1025 1261 1025 1236 1039 c 128,-1,18
 1211 1053 1211 1053 1175 1053 c 0,0,1
264 218 m 1,19,20
 139 425 139 425 212 701 c 1,21,22
 256 863 256 863 349 1002 c 128,-1,23
 442 1141 442 1141 581 1255 c 1,24,25
 736 1380 736 1380 917.5 1444.5 c 128,-1,26
 1099 1509 1099 1509 1304 1509 c 0,27,28
 1475 1509 1475 1509 1602 1465 c 128,-1,29
 1729 1421 1729 1421 1805 1339.5 c 128,-1,30
 1881 1258 1881 1258 1903.5 1143.5 c 128,-1,31
 1926 1029 1926 1029 1888 888 c 0,32,33
 1827 659 1827 659 1647 497 c 0,34,35
 1468 337 1468 337 1298 337 c 0,36,37
 1247 337 1247 337 1214 350 c 128,-1,38
 1181 363 1181 363 1163.5 385 c 128,-1,39
 1146 407 1146 407 1142.5 436.5 c 128,-1,40
 1139 466 1139 466 1148 499 c 0,41,42
 1150 507 1150 507 1153 515.5 c 128,-1,43
 1156 524 1156 524 1161 534 c 1,44,45
 1118 479 1118 479 1074 441.5 c 128,-1,46
 1030 404 1030 404 986 381 c 128,-1,47
 942 358 942 358 898 347.5 c 128,-1,48
 854 337 854 337 812 337 c 0,49,50
 750 337 750 337 705 360.5 c 128,-1,51
 660 384 660 384 635.5 426 c 128,-1,52
 611 468 611 468 606.5 526.5 c 128,-1,53
 602 585 602 585 621 655 c 0,54,55
 648 756 648 756 703 843.5 c 128,-1,56
 758 931 758 931 844 1007 c 0,57,58
 1016 1158 1016 1158 1167 1158 c 0,59,60
 1217 1158 1217 1158 1255.5 1142.5 c 128,-1,61
 1294 1127 1294 1127 1318.5 1100.5 c 128,-1,62
 1343 1074 1343 1074 1353 1039 c 128,-1,63
 1363 1004 1363 1004 1355 964 c 1,64,65
 1378 1006 1378 1006 1400.5 1045 c 128,-1,66
 1423 1084 1423 1084 1446 1125 c 1,67,-1
 1594 1125 l 1,68,-1
 1345 687 l 2,69,70
 1317 638 1317 638 1302.5 605.5 c 128,-1,71
 1288 573 1288 573 1279 550 c 1,72,73
 1267 506 1267 506 1288.5 485.5 c 128,-1,74
 1310 465 1310 465 1344 465 c 0,75,76
 1457 465 1457 465 1579 584 c 1,77,78
 1702 702 1702 702 1753 894 c 0,79,80
 1784 1010 1784 1010 1766 1101.5 c 128,-1,81
 1748 1193 1748 1193 1687 1257 c 128,-1,82
 1626 1321 1626 1321 1525.5 1355 c 128,-1,83
 1425 1389 1425 1389 1290 1389 c 0,84,85
 912 1389 912 1389 651 1167 c 0,86,87
 429 979 429 979 352 694 c 1,88,89
 286 444 286 444 404 276 c 0,90,91
 475 176 475 176 596.5 125.5 c 128,-1,92
 718 75 718 75 896 75 c 0,93,94
 1062 75 1062 75 1217.5 127 c 128,-1,95
 1373 179 1373 179 1518 270 c 1,96,-1
 1561 178 l 1,97,98
 1449 98 1449 98 1250 27 c 0,99,100
 1055 -43 1055 -43 838 -43 c 0,101,102
 420 -43 420 -43 264 218 c 1,19,20
EndSplineSet
Substitution2: "<17016,16016> Urdu Swash lookup 75 subtable" at
EndChar

StartChar: A
Encoding: 65 65 36
Width: 1366
GlyphClass: 2
Flags: W
LayerCount: 2
Fore
SplineSet
870 603 m 1,0,1
 859 762 859 762 845.5 925.5 c 128,-1,2
 832 1089 832 1089 821 1247 c 1,3,4
 718 1086 718 1086 616.5 925.5 c 128,-1,5
 515 765 515 765 412 603 c 1,6,-1
 870 603 l 1,0,1
775 1469 m 1,7,-1
 1002 1469 l 1,8,-1
 1141 0 l 1,9,-1
 921 0 l 1,10,-1
 890 439 l 1,11,-1
 311 439 l 1,12,13
 285 397 285 397 248.5 339 c 128,-1,14
 212 281 212 281 173.5 219.5 c 128,-1,15
 135 158 135 158 98.5 100 c 128,-1,16
 62 42 62 42 36 0 c 1,17,-1
 -170 0 l 1,18,-1
 775 1469 l 1,7,-1
EndSplineSet
Substitution2: "<17016,16016> Urdu Swash lookup 75 subtable" A
EndChar

StartChar: B
Encoding: 66 66 37
Width: 1366
GlyphClass: 2
Flags: W
LayerCount: 2
Fore
SplineSet
735 849 m 2,0,1
 888 849 888 849 979 905 c 128,-1,2
 1070 961 1070 961 1102 1080 c 0,3,4
 1117 1138 1117 1138 1111 1179.5 c 128,-1,5
 1105 1221 1105 1221 1075 1248 c 128,-1,6
 1045 1275 1045 1275 989 1288 c 128,-1,7
 933 1301 933 1301 849 1301 c 2,8,-1
 496 1301 l 1,9,-1
 375 849 l 1,10,-1
 735 849 l 2,0,1
621 172 m 2,11,12
 694 172 694 172 756 190 c 128,-1,13
 818 208 818 208 866.5 242.5 c 128,-1,14
 915 277 915 277 949 326 c 128,-1,15
 983 375 983 375 1000 438 c 0,16,17
 1033 563 1033 563 966 624.5 c 128,-1,18
 899 686 899 686 724 686 c 2,19,-1
 331 686 l 1,20,-1
 194 172 l 1,21,-1
 621 172 l 2,11,12
344 1469 m 1,22,-1
 975 1469 l 2,23,24
 1075 1469 1075 1469 1148 1444 c 128,-1,25
 1221 1419 1221 1419 1264.5 1371.5 c 128,-1,26
 1308 1324 1308 1324 1319.5 1256.5 c 128,-1,27
 1331 1189 1331 1189 1308 1104 c 0,28,29
 1294 1050 1294 1050 1270.5 1004.5 c 128,-1,30
 1247 959 1247 959 1213 920 c 128,-1,31
 1179 881 1179 881 1133.5 849 c 128,-1,32
 1088 817 1088 817 1029 791 c 1,33,34
 1131 747 1131 747 1171 695 c 0,35,36
 1244 599 1244 599 1198 429 c 0,37,38
 1161 289 1161 289 1041 172 c 1,39,40
 862 0 862 0 572 0 c 2,41,-1
 -49 0 l 1,42,-1
 344 1469 l 1,22,-1
EndSplineSet
Substitution2: "<17016,16016> Urdu Swash lookup 75 subtable" B
EndChar

StartChar: C
Encoding: 67 67 38
AltUni2: 00216d.ffffffff.0
Width: 1479
GlyphClass: 2
Flags: W
LayerCount: 2
Fore
SplineSet
1258 1027 m 1,0,1
 1260 1097 1260 1097 1243 1154 c 128,-1,2
 1226 1211 1226 1211 1187 1251 c 128,-1,3
 1148 1291 1148 1291 1085.5 1312.5 c 128,-1,4
 1023 1334 1023 1334 934 1334 c 0,5,6
 828 1334 828 1334 729 1297 c 128,-1,7
 630 1260 630 1260 546 1183.5 c 128,-1,8
 462 1107 462 1107 395 990.5 c 128,-1,9
 328 874 328 874 286 716 c 0,10,11
 218 457 218 457 294 299 c 0,12,13
 372 139 372 139 610 139 c 0,14,15
 778 139 778 139 912.5 238 c 128,-1,16
 1047 337 1047 337 1141 541 c 1,17,-1
 1337 541 l 1,18,19
 1293 423 1293 423 1224 326.5 c 128,-1,20
 1155 230 1155 230 1061 151 c 0,21,22
 835 -38 835 -38 538 -38 c 0,23,24
 281 -38 281 -38 150 117 c 0,25,26
 -24 322 -24 322 90 750 c 0,27,28
 135 918 135 918 221 1057.5 c 128,-1,29
 307 1197 307 1197 423 1297.5 c 128,-1,30
 539 1398 539 1398 681 1453.5 c 128,-1,31
 823 1509 823 1509 979 1509 c 0,32,33
 1260 1509 1260 1509 1372 1362 c 1,34,35
 1487 1214 1487 1214 1454 1027 c 1,36,-1
 1258 1027 l 1,0,1
EndSplineSet
Substitution2: "<17016,16016> Urdu Swash lookup 75 subtable" C
EndChar

StartChar: D
Encoding: 68 68 39
AltUni2: 00216e.ffffffff.0
Width: 1479
GlyphClass: 2
Flags: W
LayerCount: 2
Fore
SplineSet
566 172 m 2,0,1
 667 172 667 172 737 193 c 1,2,3
 800 213 800 213 857.5 250 c 128,-1,4
 915 287 915 287 966 343 c 0,5,6
 998 377 998 377 1028.5 422 c 128,-1,7
 1059 467 1059 467 1085.5 518 c 128,-1,8
 1112 569 1112 569 1133 621.5 c 128,-1,9
 1154 674 1154 674 1167 723 c 0,10,11
 1203 858 1203 858 1206 964.5 c 128,-1,12
 1209 1071 1209 1071 1173.5 1144.5 c 128,-1,13
 1138 1218 1138 1218 1062 1257 c 128,-1,14
 986 1296 986 1296 865 1296 c 2,15,-1
 514 1296 l 1,16,-1
 213 172 l 1,17,-1
 566 172 l 2,0,1
358 1469 m 1,18,-1
 953 1469 l 2,19,20
 1097 1469 1097 1469 1198.5 1418 c 128,-1,21
 1300 1367 1300 1367 1354.5 1273.5 c 128,-1,22
 1409 1180 1409 1180 1416.5 1048.5 c 128,-1,23
 1424 917 1424 917 1381 757 c 0,24,25
 1351 642 1351 642 1299 535 c 128,-1,26
 1247 428 1247 428 1180 335 c 1,27,28
 1057 170 1057 170 901.5 85 c 128,-1,29
 746 0 746 0 558 0 c 2,30,-1
 -35 0 l 1,31,-1
 358 1469 l 1,18,-1
EndSplineSet
Substitution2: "<17016,16016> Urdu Swash lookup 75 subtable" D
EndChar

StartChar: E
Encoding: 69 69 40
Width: 1366
GlyphClass: 2
Flags: W
LayerCount: 2
Fore
SplineSet
368 1469 m 1,0,-1
 1439 1469 l 1,1,-1
 1390 1287 l 1,2,-1
 514 1287 l 1,3,-1
 396 844 l 1,4,-1
 1206 844 l 1,5,-1
 1160 672 l 1,6,-1
 350 672 l 1,7,-1
 217 177 l 1,8,-1
 1108 177 l 1,9,-1
 1061 0 l 1,10,-1
 -25 0 l 1,11,-1
 368 1469 l 1,0,-1
EndSplineSet
Substitution2: "<17016,16016> Urdu Swash lookup 75 subtable" E
EndChar

StartChar: F
Encoding: 70 70 41
Width: 1251
GlyphClass: 2
Flags: W
LayerCount: 2
Fore
SplineSet
368 1469 m 1,0,-1
 1387 1469 l 1,1,-1
 1338 1287 l 1,2,-1
 519 1287 l 1,3,-1
 401 844 l 1,4,-1
 1121 844 l 1,5,-1
 1073 667 l 1,6,-1
 353 667 l 1,7,-1
 175 0 l 1,8,-1
 -25 0 l 1,9,-1
 368 1469 l 1,0,-1
EndSplineSet
Substitution2: "<17016,16016> Urdu Swash lookup 75 subtable" F
EndChar

StartChar: G
Encoding: 71 71 42
Width: 1593
GlyphClass: 2
Flags: W
LayerCount: 2
Fore
SplineSet
1330 1427 m 0,0,1
 1518 1311 1518 1311 1491 1023 c 1,2,-1
 1292 1023 l 1,3,4
 1295 1103 1295 1103 1273 1161 c 128,-1,5
 1251 1219 1251 1219 1206 1256.5 c 128,-1,6
 1161 1294 1161 1294 1094.5 1312 c 128,-1,7
 1028 1330 1028 1330 942 1330 c 0,8,9
 738 1330 738 1330 558 1177 c 1,10,11
 379 1023 379 1023 298 723 c 1,12,13
 229 462 229 462 298 298 c 1,14,15
 370 134 370 134 628 134 c 0,16,17
 827 134 827 134 987 249 c 0,18,19
 1067 306 1067 306 1125.5 399.5 c 128,-1,20
 1184 493 1184 493 1220 620 c 1,21,-1
 761 620 l 1,22,-1
 805 787 l 1,23,-1
 1451 787 l 1,24,-1
 1241 0 l 1,25,-1
 1111 0 l 1,26,-1
 1114 187 l 1,27,28
 1051 133 1051 133 995.5 95.5 c 128,-1,29
 940 58 940 58 895 35 c 0,30,31
 744 -39 744 -39 542 -39 c 0,32,33
 279 -39 279 -39 138 130 c 1,34,35
 -10 341 -10 341 89 712 c 0,36,37
 121 831 121 831 171.5 935.5 c 128,-1,38
 222 1040 222 1040 288.5 1128.5 c 128,-1,39
 355 1217 355 1217 435 1287 c 128,-1,40
 515 1357 515 1357 605 1406 c 128,-1,41
 695 1455 695 1455 793 1481 c 128,-1,42
 891 1507 891 1507 994 1507 c 0,43,44
 1200 1507 1200 1507 1330 1427 c 0,0,1
EndSplineSet
Substitution2: "<17016,16016> Urdu Swash lookup 75 subtable" G
EndChar

StartChar: H
Encoding: 72 72 43
Width: 1479
GlyphClass: 2
Flags: W
LayerCount: 2
Fore
SplineSet
354 1469 m 1,0,-1
 557 1469 l 1,1,-1
 395 863 l 1,2,-1
 1155 863 l 1,3,-1
 1317 1469 l 1,4,-1
 1520 1469 l 1,5,-1
 1127 0 l 1,6,-1
 924 0 l 1,7,-1
 1107 686 l 1,8,-1
 347 686 l 1,9,-1
 164 0 l 1,10,-1
 -39 0 l 1,11,-1
 354 1469 l 1,0,-1
EndSplineSet
Substitution2: "<17016,16016> Urdu Swash lookup 75 subtable" H
EndChar

StartChar: I
Encoding: 73 73 44
Width: 569
GlyphClass: 2
Flags: W
LayerCount: 2
Fore
SplineSet
393 1469 m 1,0,-1
 596 1469 l 1,1,-1
 203 0 l 1,2,-1
 0 0 l 1,3,-1
 393 1469 l 1,0,-1
EndSplineSet
Substitution2: "<17016,16016> Urdu Swash lookup 75 subtable" I
EndChar

StartChar: J
Encoding: 74 74 45
Width: 1024
GlyphClass: 2
Flags: W
LayerCount: 2
Fore
SplineSet
794 438 m 2,0,1
 760 312 760 312 708.5 222 c 128,-1,2
 657 132 657 132 586.5 74 c 128,-1,3
 516 16 516 16 425.5 -11.5 c 128,-1,4
 335 -39 335 -39 223 -39 c 0,5,6
 58 -39 58 -39 -36 50 c 1,7,8
 -82 95 -82 95 -89.5 176 c 128,-1,9
 -97 257 -97 257 -67 369 c 2,10,-1
 -38 475 l 1,11,-1
 150 475 l 1,12,-1
 121 369 l 2,13,14
 89 250 89 250 126 190 c 128,-1,15
 163 130 163 130 276 130 c 0,16,17
 353 130 353 130 413 158.5 c 128,-1,18
 473 187 473 187 512 238 c 1,19,20
 560 307 560 307 610 490 c 2,21,-1
 872 1469 l 1,22,-1
 1070 1469 l 1,23,-1
 794 438 l 2,0,1
EndSplineSet
Substitution2: "<17016,16016> Urdu Swash lookup 75 subtable" J
EndChar

StartChar: K
Encoding: 75 75 46
AltUni2: 00212a.ffffffff.0
Width: 1366
GlyphClass: 2
Flags: W
LayerCount: 2
Fore
SplineSet
349 1469 m 1,0,-1
 545 1469 l 1,1,-1
 354 756 l 1,2,-1
 1258 1469 l 1,3,-1
 1536 1469 l 1,4,-1
 766 877 l 1,5,6
 863 660 863 660 962.5 438.5 c 128,-1,7
 1062 217 1062 217 1159 0 c 1,8,-1
 898 0 l 1,9,-1
 581 735 l 1,10,11
 509 679 509 679 434.5 623 c 128,-1,12
 360 567 360 567 288 511 c 1,13,-1
 152 0 l 1,14,-1
 -44 0 l 1,15,-1
 349 1469 l 1,0,-1
EndSplineSet
Substitution2: "<17016,16016> Urdu Swash lookup 75 subtable" K
EndChar

StartChar: L
Encoding: 76 76 47
AltUni2: 00216c.ffffffff.0
Width: 1139
GlyphClass: 2
Flags: W
LayerCount: 2
Fore
SplineSet
349 1469 m 1,0,-1
 549 1469 l 1,1,-1
 203 177 l 1,2,-1
 946 177 l 1,3,-1
 899 0 l 1,4,-1
 -44 0 l 1,5,-1
 349 1469 l 1,0,-1
EndSplineSet
Substitution2: "<17016,16016> Urdu Swash lookup 75 subtable" L
EndChar

StartChar: M
Encoding: 77 77 48
AltUni2: 00216f.ffffffff.0
Width: 1706
GlyphClass: 2
Flags: W
LayerCount: 2
Fore
SplineSet
344 1469 m 1,0,-1
 631 1469 l 1,1,-1
 719 231 l 1,2,3
 908 542 908 542 1094.5 850 c 128,-1,4
 1281 1158 1281 1158 1468 1469 c 1,5,-1
 1752 1469 l 1,6,-1
 1359 0 l 1,7,-1
 1168 0 l 1,8,-1
 1400 867 l 2,9,10
 1405 887 1405 887 1416 925.5 c 128,-1,11
 1427 964 1427 964 1441 1013 c 128,-1,12
 1455 1062 1455 1062 1471 1118.5 c 128,-1,13
 1487 1175 1487 1175 1502 1232 c 1,14,15
 1315 923 1315 923 1128.5 616 c 128,-1,16
 942 309 942 309 756 0 c 1,17,-1
 557 0 l 1,18,-1
 468 1232 l 1,19,-1
 457 1193 l 2,20,21
 451 1172 451 1172 440 1127 c 128,-1,22
 429 1082 429 1082 416.5 1032 c 128,-1,23
 404 982 404 982 392.5 936.5 c 128,-1,24
 381 891 381 891 375 867 c 2,25,-1
 143 0 l 1,26,-1
 -49 0 l 1,27,-1
 344 1469 l 1,0,-1
EndSplineSet
Substitution2: "<17016,16016> Urdu Swash lookup 75 subtable" M
EndChar

StartChar: N
Encoding: 78 78 49
Width: 1479
GlyphClass: 2
Flags: W
LayerCount: 2
Fore
SplineSet
349 1469 m 1,0,-1
 585 1469 l 1,1,-1
 1007 284 l 1,2,-1
 1324 1469 l 1,3,-1
 1515 1469 l 1,4,-1
 1122 0 l 1,5,-1
 897 0 l 1,6,-1
 465 1184 l 1,7,-1
 148 0 l 1,8,-1
 -44 0 l 1,9,-1
 349 1469 l 1,0,-1
EndSplineSet
Substitution2: "<17016,16016> Urdu Swash lookup 75 subtable" N
EndChar

StartChar: O
Encoding: 79 79 50
Width: 1593
GlyphClass: 2
Flags: W
LayerCount: 2
Fore
SplineSet
1308 757 m 0,0,1
 1342 885 1342 885 1335.5 990 c 128,-1,2
 1329 1095 1329 1095 1284 1171 c 128,-1,3
 1239 1247 1239 1247 1157 1288.5 c 128,-1,4
 1075 1330 1075 1330 958 1330 c 0,5,6
 847 1330 847 1330 742 1291 c 128,-1,7
 637 1252 637 1252 548 1174.5 c 128,-1,8
 459 1097 459 1097 389.5 982 c 128,-1,9
 320 867 320 867 279 714 c 0,10,11
 213 472 213 472 292 304 c 0,12,13
 370 137 370 137 646 137 c 0,14,15
 908 137 908 137 1075 325 c 0,16,17
 1160 421 1160 421 1218 527.5 c 128,-1,18
 1276 634 1276 634 1308 757 c 0,0,1
1503 1259 m 0,19,20
 1550 1161 1550 1161 1553.5 1037.5 c 128,-1,21
 1557 914 1557 914 1515 760 c 0,22,23
 1427 432 1427 432 1202 213 c 1,24,25
 937 -43 937 -43 574 -43 c 0,26,27
 235 -43 235 -43 101 181 c 1,28,29
 -14 398 -14 398 74 727 c 0,30,31
 114 874 114 874 187 1003 c 128,-1,32
 260 1132 260 1132 359 1237 c 1,33,34
 423 1298 423 1298 496.5 1348 c 128,-1,35
 570 1398 570 1398 651 1434 c 128,-1,36
 732 1470 732 1470 818.5 1489.5 c 128,-1,37
 905 1509 905 1509 994 1509 c 0,38,39
 1383 1509 1383 1509 1503 1259 c 0,19,20
EndSplineSet
Substitution2: "<17016,16016> Urdu Swash lookup 75 subtable" O
EndChar

StartChar: P
Encoding: 80 80 51
Width: 1366
GlyphClass: 2
Flags: W
LayerCount: 2
Fore
SplineSet
1089 1265 m 0,0,1
 1033 1296 1033 1296 917 1296 c 2,2,-1
 522 1296 l 1,3,-1
 386 790 l 1,4,-1
 781 790 l 2,5,6
 847 790 847 790 905.5 803 c 128,-1,7
 964 816 964 816 1012 846.5 c 128,-1,8
 1060 877 1060 877 1095.5 926 c 128,-1,9
 1131 975 1131 975 1150 1047 c 0,10,11
 1192 1207 1192 1207 1089 1265 c 0,0,1
368 1469 m 1,12,-1
 1029 1469 l 2,13,14
 1127 1469 1127 1469 1200 1440.5 c 128,-1,15
 1273 1412 1273 1412 1315.5 1358 c 128,-1,16
 1358 1304 1358 1304 1368.5 1226 c 128,-1,17
 1379 1148 1379 1148 1352 1048 c 0,18,19
 1306 876 1306 876 1165 747 c 0,20,21
 1025 620 1025 620 802 620 c 2,22,-1
 341 620 l 1,23,-1
 175 0 l 1,24,-1
 -25 0 l 1,25,-1
 368 1469 l 1,12,-1
EndSplineSet
Substitution2: "<17016,16016> Urdu Swash lookup 75 subtable" P
EndChar

StartChar: Q
Encoding: 81 81 52
Width: 1593
GlyphClass: 2
Flags: W
LayerCount: 2
Fore
SplineSet
739 304 m 1,0,-1
 874 428 l 1,1,-1
 1027 280 l 1,2,3
 1086 332 1086 332 1131.5 389.5 c 128,-1,4
 1177 447 1177 447 1209 510 c 0,5,6
 1242 576 1242 576 1267 636.5 c 128,-1,7
 1292 697 1292 697 1308 757 c 0,8,9
 1342 885 1342 885 1335.5 990 c 128,-1,10
 1329 1095 1329 1095 1284 1171 c 128,-1,11
 1239 1247 1239 1247 1157 1288.5 c 128,-1,12
 1075 1330 1075 1330 958 1330 c 256,13,14
 841 1330 841 1330 736 1292.5 c 128,-1,15
 631 1255 631 1255 543.5 1178.5 c 128,-1,16
 456 1102 456 1102 388.5 986.5 c 128,-1,17
 321 871 321 871 279 714 c 0,18,19
 244 583 244 583 248.5 476.5 c 128,-1,20
 253 370 253 370 298.5 294.5 c 128,-1,21
 344 219 344 219 431 178 c 128,-1,22
 518 137 518 137 647 137 c 0,23,24
 707 137 707 137 763.5 146 c 128,-1,25
 820 155 820 155 866 178 c 1,26,-1
 739 304 l 1,0,-1
1302 5 m 1,27,-1
 1167 -118 l 1,28,-1
 986 56 l 1,29,30
 894 13 894 13 790 -15 c 128,-1,31
 686 -43 686 -43 575 -43 c 0,32,33
 233 -43 233 -43 99 181 c 1,34,35
 -14 399 -14 399 74 727 c 0,36,37
 114 874 114 874 187 1003 c 128,-1,38
 260 1132 260 1132 359 1237 c 1,39,40
 423 1298 423 1298 496.5 1348 c 128,-1,41
 570 1398 570 1398 651 1434 c 128,-1,42
 732 1470 732 1470 818.5 1489.5 c 128,-1,43
 905 1509 905 1509 994 1509 c 0,44,45
 1383 1509 1383 1509 1503 1259 c 0,46,47
 1550 1161 1550 1161 1553.5 1037.5 c 128,-1,48
 1557 914 1557 914 1515 760 c 0,49,50
 1496 688 1496 688 1469 620.5 c 128,-1,51
 1442 553 1442 553 1407 487 c 0,52,53
 1354 388 1354 388 1287 306.5 c 128,-1,54
 1220 225 1220 225 1142 162 c 1,55,-1
 1302 5 l 1,27,-1
EndSplineSet
Substitution2: "<17016,16016> Urdu Swash lookup 75 subtable" Q
EndChar

StartChar: R
Encoding: 82 82 53
Width: 1479
GlyphClass: 2
Flags: W
LayerCount: 2
Fore
SplineSet
852 797 m 2,0,1
 920 797 920 797 979.5 809.5 c 128,-1,2
 1039 822 1039 822 1086.5 852 c 128,-1,3
 1134 882 1134 882 1169 931.5 c 128,-1,4
 1204 981 1204 981 1223 1054 c 0,5,6
 1255 1176 1255 1176 1204.5 1236 c 128,-1,7
 1154 1296 1154 1296 1012 1296 c 2,8,-1
 528 1296 l 1,9,-1
 394 797 l 1,10,-1
 852 797 l 2,0,1
373 1469 m 1,11,-1
 1053 1469 l 2,12,13
 1296 1469 1296 1469 1389 1366.5 c 128,-1,14
 1482 1264 1482 1264 1431 1073 c 0,15,16
 1396 942 1396 942 1319.5 857.5 c 128,-1,17
 1243 773 1243 773 1132 722 c 1,18,19
 1170 705 1170 705 1196 683.5 c 128,-1,20
 1222 662 1222 662 1235.5 630.5 c 128,-1,21
 1249 599 1249 599 1249 554.5 c 128,-1,22
 1249 510 1249 510 1234 445 c 2,23,-1
 1188 249 l 2,24,25
 1176 197 1176 197 1171.5 160.5 c 128,-1,26
 1167 124 1167 124 1169.5 98.5 c 128,-1,27
 1172 73 1172 73 1182 58 c 128,-1,28
 1192 43 1192 43 1209 35 c 1,29,-1
 1200 0 l 1,30,-1
 955 0 l 1,31,32
 952 13 952 13 951 24 c 128,-1,33
 950 35 950 35 952 52.5 c 128,-1,34
 954 70 954 70 959 96.5 c 128,-1,35
 964 123 964 123 973 166 c 2,36,-1
 1026 410 l 1,37,38
 1040 480 1040 480 1027 529.5 c 128,-1,39
 1014 579 1014 579 972 602 c 0,40,41
 923 629 923 629 800 629 c 2,42,-1
 349 629 l 1,43,-1
 181 0 l 1,44,-1
 -20 0 l 1,45,-1
 373 1469 l 1,11,-1
EndSplineSet
Substitution2: "<17016,16016> Urdu Swash lookup 75 subtable" R
EndChar

StartChar: S
Encoding: 83 83 54
Width: 1366
GlyphClass: 2
Flags: W
LayerCount: 2
Fore
SplineSet
215 475 m 1,0,1
 190 353 190 353 219 273 c 1,2,3
 251 204 251 204 328.5 165.5 c 128,-1,4
 406 127 406 127 528 127 c 0,5,6
 616 127 616 127 691 144.5 c 128,-1,7
 766 162 766 162 824 195 c 128,-1,8
 882 228 882 228 921 274.5 c 128,-1,9
 960 321 960 321 975 379 c 0,10,11
 991 437 991 437 983 480 c 128,-1,12
 975 523 975 523 947 549 c 1,13,14
 915 573 915 573 860.5 595.5 c 128,-1,15
 806 618 806 618 733 636 c 0,16,17
 686 647 686 647 639.5 658.5 c 128,-1,18
 593 670 593 670 546 681 c 0,19,20
 455 703 455 703 391.5 727.5 c 128,-1,21
 328 752 328 752 296 778 c 0,22,23
 181 872 181 872 230 1054 c 0,24,25
 282 1251 282 1251 454 1379 c 0,26,27
 623 1506 623 1506 876 1506 c 0,28,29
 989 1506 989 1506 1082.5 1479 c 128,-1,30
 1176 1452 1176 1452 1236 1394.5 c 128,-1,31
 1296 1337 1296 1337 1316.5 1248.5 c 128,-1,32
 1337 1160 1337 1160 1304 1037 c 1,33,-1
 1116 1037 l 1,34,35
 1132 1150 1132 1150 1101 1217 c 1,36,37
 1069 1272 1069 1272 999 1302 c 128,-1,38
 929 1332 929 1332 823 1332 c 0,39,40
 649 1332 649 1332 552 1258 c 0,41,42
 455 1185 455 1185 429 1087 c 0,43,44
 415 1036 415 1036 428 995.5 c 128,-1,45
 441 955 441 955 476 931 c 0,46,47
 512 907 512 907 623.5 878 c 128,-1,48
 735 849 735 849 915 804 c 0,49,50
 1055 770 1055 770 1120 711 c 0,51,52
 1232 608 1232 608 1180 411 c 1,53,54
 1114 166 1114 166 908 62 c 1,55,56
 704 -43 704 -43 468 -43 c 0,57,58
 329 -43 329 -43 231 -6.5 c 128,-1,59
 133 30 133 30 76.5 97.5 c 128,-1,60
 20 165 20 165 7 261 c 128,-1,61
 -6 357 -6 357 26 475 c 1,62,-1
 215 475 l 1,0,1
EndSplineSet
Substitution2: "<17016,16016> Urdu Swash lookup 75 subtable" S
EndChar

StartChar: T
Encoding: 84 84 55
Width: 1251
GlyphClass: 2
Flags: W
LayerCount: 2
Fore
SplineSet
1418 1469 m 1,0,-1
 1371 1292 l 1,1,-1
 877 1292 l 1,2,-1
 531 0 l 1,3,-1
 327 0 l 1,4,-1
 673 1292 l 1,5,-1
 179 1292 l 1,6,-1
 226 1469 l 1,7,-1
 1418 1469 l 1,0,-1
EndSplineSet
Substitution2: "<17016,16016> Urdu Swash lookup 75 subtable" T
EndChar

StartChar: U
Encoding: 85 85 56
Width: 1479
GlyphClass: 2
Flags: W
LayerCount: 2
Fore
SplineSet
567 1469 m 1,0,-1
 324 561 l 2,1,2
 269 357 269 357 331.5 247 c 128,-1,3
 394 137 394 137 568 137 c 0,4,5
 693 137 693 137 791 182.5 c 128,-1,6
 889 228 889 228 957 309 c 1,7,8
 993 355 993 355 1022.5 419 c 128,-1,9
 1052 483 1052 483 1073 561 c 2,10,-1
 1316 1469 l 1,11,-1
 1520 1469 l 1,12,-1
 1299 644 l 2,13,14
 1227 374 1227 374 1115 228 c 1,15,16
 1064 166 1064 166 1001 116.5 c 128,-1,17
 938 67 938 67 865 32.5 c 128,-1,18
 792 -2 792 -2 709.5 -20.5 c 128,-1,19
 627 -39 627 -39 537 -39 c 0,20,21
 357 -39 357 -39 248 32.5 c 128,-1,22
 139 104 139 104 104 228 c 1,23,24
 87 301 87 301 96.5 405 c 128,-1,25
 106 509 106 509 142 644 c 2,26,-1
 363 1469 l 1,27,-1
 567 1469 l 1,0,-1
EndSplineSet
Substitution2: "<17016,16016> Urdu Swash lookup 75 subtable" U
EndChar

StartChar: V
Encoding: 86 86 57
Width: 1366
GlyphClass: 2
Flags: W
LayerCount: 2
Fore
SplineSet
467 1469 m 1,0,-1
 553 222 l 1,1,2
 742 535 742 535 928 845.5 c 128,-1,3
 1114 1156 1114 1156 1302 1469 c 1,4,-1
 1527 1469 l 1,5,-1
 599 0 l 1,6,-1
 386 0 l 1,7,-1
 245 1469 l 1,8,-1
 467 1469 l 1,0,-1
EndSplineSet
Substitution2: "<17016,16016> Urdu Swash lookup 75 subtable" V
EndChar

StartChar: W
Encoding: 87 87 58
Width: 1933
GlyphClass: 2
Flags: W
LayerCount: 2
Fore
SplineSet
448 1469 m 1,0,-1
 405 279 l 1,1,2
 567 577 567 577 729.5 874 c 128,-1,3
 892 1171 892 1171 1054 1469 c 1,4,-1
 1272 1469 l 1,5,-1
 1283 279 l 1,6,-1
 1878 1469 l 1,7,-1
 2098 1469 l 1,8,-1
 1319 0 l 1,9,-1
 1109 0 l 1,10,-1
 1096 1213 l 1,11,12
 928 908 928 908 763 606.5 c 128,-1,13
 598 305 598 305 431 0 c 1,14,-1
 221 0 l 1,15,-1
 230 1469 l 1,16,-1
 448 1469 l 1,0,-1
EndSplineSet
Substitution2: "<17016,16016> Urdu Swash lookup 75 subtable" W
EndChar

StartChar: X
Encoding: 88 88 59
Width: 1366
GlyphClass: 2
Flags: W
LayerCount: 2
Fore
SplineSet
84 0 m 1,0,-1
 -159 0 l 1,1,-1
 567 753 l 1,2,3
 493 928 493 928 417 1111 c 128,-1,4
 341 1294 341 1294 267 1469 c 1,5,-1
 519 1469 l 1,6,-1
 742 909 l 1,7,8
 870 1046 870 1046 1002 1189 c 128,-1,9
 1134 1332 1134 1332 1262 1469 c 1,10,-1
 1502 1469 l 1,11,-1
 818 753 l 1,12,13
 854 667 854 667 894 571 c 128,-1,14
 934 475 934 475 975.5 376.5 c 128,-1,15
 1017 278 1017 278 1057 182 c 128,-1,16
 1097 86 1097 86 1133 0 c 1,17,-1
 883 0 l 1,18,-1
 650 602 l 1,19,-1
 84 0 l 1,0,-1
EndSplineSet
Substitution2: "<17016,16016> Urdu Swash lookup 75 subtable" X
EndChar

StartChar: Y
Encoding: 89 89 60
Width: 1366
GlyphClass: 2
Flags: W
LayerCount: 2
Fore
SplineSet
234 1469 m 1,0,-1
 469 1469 l 1,1,-1
 701 766 l 1,2,3
 854 943 854 943 1005.5 1117.5 c 128,-1,4
 1157 1292 1157 1292 1309 1469 c 1,5,-1
 1545 1469 l 1,6,-1
 755 591 l 1,7,-1
 597 0 l 1,8,-1
 396 0 l 1,9,-1
 554 591 l 1,10,-1
 234 1469 l 1,0,-1
EndSplineSet
Substitution2: "<17016,16016> Urdu Swash lookup 75 subtable" Y
EndChar

StartChar: Z
Encoding: 90 90 61
Width: 1251
GlyphClass: 2
Flags: W
LayerCount: 2
Fore
SplineSet
-109 167 m 1,0,-1
 1091 1292 l 1,1,-1
 259 1292 l 1,2,-1
 306 1469 l 1,3,-1
 1397 1469 l 1,4,-1
 1351 1296 l 1,5,-1
 148 177 l 1,6,-1
 1051 177 l 1,7,-1
 1004 0 l 1,8,-1
 -153 0 l 1,9,-1
 -109 167 l 1,0,-1
EndSplineSet
Substitution2: "<17016,16016> Urdu Swash lookup 75 subtable" Z
EndChar

StartChar: bracketleft
Encoding: 91 91 62
Width: 683
GlyphClass: 2
Flags: W
LayerCount: 2
Fore
SplineSet
230 1235 m 1,0,-1
 663 1235 l 1,1,-1
 650 1184 l 1,2,-1
 467 1184 l 2,3,4
 375 1184 375 1184 350 1092 c 2,5,-1
 -18 -283 l 2,6,7
 -34 -341 -34 -341 -17.5 -365 c 128,-1,8
 -1 -389 -1 -389 52 -389 c 2,9,-1
 228 -389 l 1,10,-1
 214 -443 l 1,11,-1
 -218 -443 l 1,12,-1
 230 1235 l 1,0,-1
EndSplineSet
Substitution2: "<17016,16016> Urdu Swash lookup 75 subtable" bracketleft
EndChar

StartChar: backslash
Encoding: 92 92 63
Width: 569
GlyphClass: 2
Flags: W
LayerCount: 2
Fore
SplineSet
281 1469 m 1,0,-1
 458 0 l 1,1,-1
 301 0 l 1,2,-1
 124 1469 l 1,3,-1
 281 1469 l 1,0,-1
EndSplineSet
Substitution2: "<17016,16016> Urdu Swash lookup 75 subtable" backslash
EndChar

StartChar: bracketright
Encoding: 93 93 64
Width: 734
GlyphClass: 2
Flags: W
LayerCount: 2
Fore
SplineSet
215 -443 m 1,0,-1
 -218 -443 l 1,1,-1
 -204 -391 l 1,2,-1
 -21 -391 l 2,3,4
 36 -391 36 -391 69 -354 c 1,5,-1
 68 -355 l 1,6,7
 85 -335 85 -335 94 -300 c 2,8,-1
 463 1076 l 2,9,10
 469 1100 469 1100 470 1119.5 c 128,-1,11
 471 1139 471 1139 464 1152.5 c 128,-1,12
 457 1166 457 1166 440 1173.5 c 128,-1,13
 423 1181 423 1181 393 1181 c 2,14,-1
 216 1181 l 1,15,-1
 230 1235 l 1,16,-1
 664 1235 l 1,17,-1
 215 -443 l 1,0,-1
EndSplineSet
Substitution2: "<17016,16016> Urdu Swash lookup 75 subtable" bracketright
EndChar

StartChar: asciicircum
Encoding: 94 94 65
Width: 961
GlyphClass: 2
Flags: W
LayerCount: 2
Fore
SplineSet
750 1469 m 1,0,-1
 871 605 l 1,1,-1
 707 605 l 1,2,-1
 618 1265 l 1,3,4
 508 1100 508 1100 398.5 935.5 c 128,-1,5
 289 771 289 771 178 605 c 1,6,-1
 13 605 l 1,7,-1
 594 1469 l 1,8,-1
 750 1469 l 1,0,-1
EndSplineSet
Substitution2: "<17016,16016> Urdu Swash lookup 75 subtable" asciicircum
EndChar

StartChar: underscore
Encoding: 95 95 66
Width: 1139
GlyphClass: 2
Flags: W
LayerCount: 2
Fore
SplineSet
-268 -256 m 1,0,-1
 -240 -153 l 1,1,-1
 898 -153 l 1,2,-1
 870 -256 l 1,3,-1
 -268 -256 l 1,0,-1
EndSplineSet
Substitution2: "<17016,16016> Urdu Swash lookup 75 subtable" underscore
EndChar

StartChar: grave
Encoding: 96 96 67
Width: 682
GlyphClass: 2
Flags: W
LayerCount: 2
Fore
SplineSet
589 1211 m 1,0,-1
 449 1211 l 1,1,-1
 257 1502 l 1,2,-1
 484 1502 l 1,3,-1
 589 1211 l 1,0,-1
EndSplineSet
Substitution2: "<17016,16016> Urdu Swash lookup 75 subtable" grave
EndChar

StartChar: a
Encoding: 97 97 68
Width: 1139
GlyphClass: 2
Flags: W
LayerCount: 2
Fore
SplineSet
293 119 m 0,0,1
 387 119 387 119 489 163 c 0,2,3
 657 237 657 237 702 400 c 1,4,-1
 740 543 l 1,5,6
 721 533 721 533 697 524.5 c 128,-1,7
 673 516 673 516 647 509.5 c 128,-1,8
 621 503 621 503 593.5 497.5 c 128,-1,9
 566 492 566 492 540 489 c 2,10,-1
 427 475 l 2,11,12
 364 467 364 467 316.5 452.5 c 128,-1,13
 269 438 269 438 235.5 415.5 c 128,-1,14
 202 393 202 393 180.5 361 c 128,-1,15
 159 329 159 329 147 286 c 0,16,17
 137 248 137 248 144.5 217 c 128,-1,18
 152 186 152 186 172.5 164.5 c 128,-1,19
 193 143 193 143 224.5 131 c 128,-1,20
 256 119 256 119 293 119 c 0,0,1
680 650 m 2,21,22
 730 656 730 656 760 683.5 c 128,-1,23
 790 711 790 711 806 770 c 0,24,25
 818 816 818 816 810.5 849 c 128,-1,26
 803 882 803 882 776.5 903 c 128,-1,27
 750 924 750 924 705.5 934 c 128,-1,28
 661 944 661 944 600 944 c 0,29,30
 545 944 545 944 500 933 c 128,-1,31
 455 922 455 922 419 898 c 128,-1,32
 383 874 383 874 355 836 c 128,-1,33
 327 798 327 798 305 743 c 1,34,-1
 136 743 l 1,35,36
 193 943 193 943 337 1020 c 256,37,38
 481 1097 481 1097 645 1097 c 0,39,40
 738 1097 738 1097 811.5 1080 c 128,-1,41
 885 1063 885 1063 931.5 1027 c 128,-1,42
 978 991 978 991 994.5 935 c 128,-1,43
 1011 879 1011 879 990 801 c 2,44,-1
 825 185 l 2,45,46
 817 158 817 158 824.5 141 c 128,-1,47
 832 124 832 124 868 124 c 0,48,49
 893 124 893 124 929 130 c 1,50,-1
 893 -5 l 1,51,52
 871 -11 871 -11 855.5 -15 c 128,-1,53
 840 -19 840 -19 826.5 -20.5 c 128,-1,54
 813 -22 813 -22 798 -22.5 c 128,-1,55
 783 -23 783 -23 763 -23 c 0,56,57
 691 -23 691 -23 660.5 14.5 c 128,-1,58
 630 52 630 52 641 139 c 1,59,60
 568 70 568 70 451 17 c 0,61,62
 335 -36 335 -36 210 -36 c 0,63,64
 135 -36 135 -36 79 -12 c 128,-1,65
 23 12 23 12 -10 55 c 128,-1,66
 -43 98 -43 98 -52 156 c 128,-1,67
 -61 214 -61 214 -43 282 c 0,68,69
 -23 356 -23 356 16.5 414 c 128,-1,70
 56 472 56 472 111.5 513 c 128,-1,71
 167 554 167 554 236 579.5 c 128,-1,72
 305 605 305 605 383 614 c 2,73,-1
 680 650 l 2,21,22
EndSplineSet
Substitution2: "<17016,16016> Urdu Swash lookup 75 subtable" a
EndChar

StartChar: b
Encoding: 98 98 69
Width: 1139
GlyphClass: 2
Flags: W
LayerCount: 2
Fore
SplineSet
822 547 m 0,0,1
 844 629 844 629 845.5 700.5 c 128,-1,2
 847 772 847 772 825 824.5 c 128,-1,3
 803 877 803 877 758 907 c 128,-1,4
 713 937 713 937 642 937 c 0,5,6
 520 937 520 937 402 846 c 1,7,8
 285 754 285 754 230 547 c 0,9,10
 175 343 175 343 222 235 c 128,-1,11
 269 127 269 127 420 127 c 0,12,13
 493 127 493 127 555.5 158 c 128,-1,14
 618 189 618 189 669 244.5 c 128,-1,15
 720 300 720 300 758.5 377 c 128,-1,16
 797 454 797 454 822 547 c 0,0,1
312 1474 m 1,17,-1
 488 1474 l 1,18,-1
 347 945 l 1,19,20
 427 1022 427 1022 518 1060.5 c 128,-1,21
 609 1099 609 1099 706 1099 c 0,22,23
 805 1099 805 1099 878.5 1065 c 128,-1,24
 952 1031 952 1031 993.5 963.5 c 128,-1,25
 1035 896 1035 896 1040.5 794 c 128,-1,26
 1046 692 1046 692 1009 556 c 0,27,28
 975 428 975 428 916.5 323.5 c 128,-1,29
 858 219 858 219 774 134 c 0,30,31
 606 -34 606 -34 387 -34 c 0,32,33
 266 -34 266 -34 196 25 c 0,34,35
 156 59 156 59 120 134 c 1,36,-1
 85 0 l 1,37,-1
 -82 0 l 1,38,-1
 312 1474 l 1,17,-1
EndSplineSet
Substitution2: "<17016,16016> Urdu Swash lookup 75 subtable" b
EndChar

StartChar: c
Encoding: 99 99 70
AltUni2: 00217d.ffffffff.0
Width: 1024
GlyphClass: 2
Flags: W
LayerCount: 2
Fore
SplineSet
790 710 m 1,0,1
 795 759 795 759 789 801 c 128,-1,2
 783 843 783 843 761 874 c 128,-1,3
 739 905 739 905 699 922.5 c 128,-1,4
 659 940 659 940 596 940 c 0,5,6
 526 940 526 940 463.5 910.5 c 128,-1,7
 401 881 401 881 348.5 825 c 128,-1,8
 296 769 296 769 255 688 c 128,-1,9
 214 607 214 607 187 504 c 0,10,11
 144 346 144 346 182 235 c 1,12,13
 221 125 221 125 366 125 c 0,14,15
 478 125 478 125 561 193 c 128,-1,16
 644 261 644 261 701 380 c 1,17,-1
 877 380 l 1,18,19
 834 273 834 273 775 195.5 c 128,-1,20
 716 118 716 118 644 67.5 c 128,-1,21
 572 17 572 17 488 -7 c 128,-1,22
 404 -31 404 -31 310 -31 c 0,23,24
 99 -31 99 -31 15 122 c 1,25,26
 -26 200 -26 200 -28.5 295.5 c 128,-1,27
 -31 391 -31 391 -6 506 c 1,28,29
 32 648 32 648 98 759 c 128,-1,30
 164 870 164 870 249.5 946 c 128,-1,31
 335 1022 335 1022 434.5 1062 c 128,-1,32
 534 1102 534 1102 640 1102 c 0,33,34
 731 1102 731 1102 800 1081.5 c 128,-1,35
 869 1061 869 1061 912 1015 c 128,-1,36
 955 969 955 969 969.5 894 c 128,-1,37
 984 819 984 819 966 710 c 1,38,-1
 790 710 l 1,0,1
EndSplineSet
Substitution2: "<17016,16016> Urdu Swash lookup 75 subtable" c
EndChar

StartChar: d
Encoding: 100 100 71
AltUni2: 00217e.ffffffff.0
Width: 1139
GlyphClass: 2
Flags: W
LayerCount: 2
Fore
SplineSet
385 121 m 0,0,1
 447 121 447 121 506.5 148.5 c 128,-1,2
 566 176 566 176 618 229 c 128,-1,3
 670 282 670 282 712 359 c 128,-1,4
 754 436 754 436 781 535 c 0,5,6
 808 637 808 637 805.5 711.5 c 128,-1,7
 803 786 803 786 777 835 c 128,-1,8
 751 884 751 884 705 908 c 128,-1,9
 659 932 659 932 600 932 c 0,10,11
 533 932 533 932 470.5 906 c 128,-1,12
 408 880 408 880 354 828.5 c 128,-1,13
 300 777 300 777 257 700.5 c 128,-1,14
 214 624 214 624 187 523 c 0,15,16
 165 440 165 440 162.5 366.5 c 128,-1,17
 160 293 160 293 182.5 238.5 c 128,-1,18
 205 184 205 184 254.5 152.5 c 128,-1,19
 304 121 304 121 385 121 c 0,0,1
802 1039 m 0,20,21
 842 1009 842 1009 882 937 c 1,22,-1
 1025 1474 l 1,23,-1
 1199 1474 l 1,24,-1
 805 0 l 1,25,-1
 642 0 l 1,26,-1
 681 146 l 1,27,28
 591 49 591 49 494.5 5.5 c 128,-1,29
 398 -38 398 -38 286 -38 c 0,30,31
 106 -38 106 -38 16 112 c 0,32,33
 -29 188 -29 188 -32 287.5 c 128,-1,34
 -35 387 -35 387 -7 513 c 1,35,36
 56 747 56 747 220 919 c 1,37,38
 385 1090 385 1090 609 1090 c 0,39,40
 735 1090 735 1090 802 1039 c 0,20,21
EndSplineSet
Substitution2: "<17016,16016> Urdu Swash lookup 75 subtable" d
EndChar

StartChar: e
Encoding: 101 101 72
Width: 1139
GlyphClass: 2
Flags: W
LayerCount: 2
Fore
SplineSet
830 622 m 1,0,1
 859 783 859 783 805.5 860 c 128,-1,2
 752 937 752 937 618 937 c 0,3,4
 557 937 557 937 498 913.5 c 128,-1,5
 439 890 439 890 388 848 c 128,-1,6
 337 806 337 806 297.5 748 c 128,-1,7
 258 690 258 690 237 622 c 1,8,-1
 830 622 l 1,0,1
1004 904 m 0,9,10
 1019 866 1019 866 1024 815.5 c 128,-1,11
 1029 765 1029 765 1025 714 c 0,12,13
 1023 677 1023 677 1011 617 c 128,-1,14
 999 557 999 557 977 477 c 1,15,-1
 193 477 l 1,16,17
 175 399 175 399 176.5 333 c 128,-1,18
 178 267 178 267 202 220 c 128,-1,19
 226 173 226 173 274 146.5 c 128,-1,20
 322 120 322 120 397 120 c 0,21,22
 451 120 451 120 502 135 c 128,-1,23
 553 150 553 150 598 178.5 c 128,-1,24
 643 207 643 207 681 247.5 c 128,-1,25
 719 288 719 288 747 338 c 1,26,-1
 925 338 l 1,27,28
 913 309 913 309 891 274.5 c 128,-1,29
 869 240 869 240 841.5 205.5 c 128,-1,30
 814 171 814 171 783.5 140 c 128,-1,31
 753 109 753 109 724 86 c 1,32,33
 644 26 644 26 546 -6 c 128,-1,34
 448 -38 448 -38 339 -38 c 0,35,36
 138 -38 138 -38 38 107 c 1,37,38
 -60 251 -60 251 9 515 c 1,39,40
 44 644 44 644 109 751 c 128,-1,41
 174 858 174 858 261 934.5 c 128,-1,42
 348 1011 348 1011 452.5 1053 c 128,-1,43
 557 1095 557 1095 671 1095 c 0,44,45
 727 1095 727 1095 780 1081 c 128,-1,46
 833 1067 833 1067 877.5 1041.5 c 128,-1,47
 922 1016 922 1016 955 981 c 128,-1,48
 988 946 988 946 1004 904 c 0,9,10
EndSplineSet
Substitution2: "<17016,16016> Urdu Swash lookup 75 subtable" e
EndChar

StartChar: f
Encoding: 102 102 73
Width: 569
GlyphClass: 2
Flags: W
LayerCount: 2
Fore
SplineSet
389 1398 m 1,0,1
 476 1490 476 1490 658 1490 c 0,2,3
 676 1490 676 1490 693.5 1489 c 128,-1,4
 711 1488 711 1488 734 1486 c 1,5,-1
 689 1320 l 1,6,7
 662 1322 662 1322 649.5 1322.5 c 128,-1,8
 637 1323 637 1323 625 1323 c 0,9,10
 544 1323 544 1323 517 1281 c 0,11,12
 511 1271 511 1271 502.5 1250.5 c 128,-1,13
 494 1230 494 1230 484 1201.5 c 128,-1,14
 474 1173 474 1173 464 1138.5 c 128,-1,15
 454 1104 454 1104 443 1067 c 1,16,-1
 621 1067 l 1,17,-1
 583 923 l 1,18,-1
 403 923 l 1,19,-1
 156 0 l 1,20,-1
 -24 0 l 1,21,-1
 223 923 l 1,22,-1
 74 923 l 1,23,-1
 112 1067 l 1,24,-1
 261 1067 l 1,25,-1
 306 1233 l 1,26,27
 323 1290 323 1290 344.5 1331 c 128,-1,28
 366 1372 366 1372 389 1398 c 1,0,1
EndSplineSet
Substitution2: "<17016,16016> Urdu Swash lookup 75 subtable" f
EndChar

StartChar: g
Encoding: 103 103 74
Width: 1139
GlyphClass: 2
Flags: W
LayerCount: 2
Fore
SplineSet
592 930 m 0,0,1
 447 930 447 930 343.5 826 c 128,-1,2
 240 722 240 722 182 504 c 0,3,4
 158 414 158 414 158.5 345.5 c 128,-1,5
 159 277 159 277 182 230.5 c 128,-1,6
 205 184 205 184 248.5 160 c 128,-1,7
 292 136 292 136 353 136 c 0,8,9
 427 136 427 136 493 164 c 128,-1,10
 559 192 559 192 613.5 244.5 c 128,-1,11
 668 297 668 297 710 372 c 128,-1,12
 752 447 752 447 777 540 c 0,13,14
 804 640 804 640 801.5 713.5 c 128,-1,15
 799 787 799 787 773.5 835 c 128,-1,16
 748 883 748 883 701 906.5 c 128,-1,17
 654 930 654 930 592 930 c 0,0,1
806 1029 m 1,18,19
 846 996 846 996 882 930 c 1,20,-1
 917 1062 l 1,21,-1
 1084 1062 l 1,22,-1
 823 88 l 2,23,24
 786 -52 786 -52 728.5 -154 c 128,-1,25
 671 -256 671 -256 593 -322 c 128,-1,26
 515 -388 515 -388 416 -420 c 128,-1,27
 317 -452 317 -452 195 -452 c 0,28,29
 111 -452 111 -452 42 -434 c 128,-1,30
 -27 -416 -27 -416 -73 -377 c 128,-1,31
 -119 -338 -119 -338 -138 -277 c 128,-1,32
 -157 -216 -157 -216 -142 -131 c 1,33,-1
 42 -131 l 1,34,35
 35 -223 35 -223 84 -262.5 c 128,-1,36
 133 -302 133 -302 240 -302 c 0,37,38
 343 -302 343 -302 420 -265 c 128,-1,39
 497 -228 497 -228 548 -157 c 0,40,41
 577 -118 577 -118 604 -48 c 128,-1,42
 631 22 631 22 657 119 c 1,43,-1
 665 146 l 1,44,45
 627 105 627 105 587.5 76 c 128,-1,46
 548 47 548 47 504 27 c 0,47,48
 418 -13 418 -13 292 -13 c 0,49,50
 117 -13 117 -13 19 110 c 1,51,52
 -29 173 -29 173 -32 276 c 128,-1,53
 -35 379 -35 379 0 519 c 1,54,55
 72 788 72 788 242 940 c 1,56,57
 330 1017 330 1017 419 1053.5 c 128,-1,58
 508 1090 508 1090 602 1090 c 0,59,60
 729 1090 729 1090 806 1029 c 1,18,19
EndSplineSet
Substitution2: "<17016,16016> Urdu Swash lookup 75 subtable" g
EndChar

StartChar: h
Encoding: 104 104 75
Width: 1139
GlyphClass: 2
Flags: W
LayerCount: 2
Fore
SplineSet
326 1474 m 1,0,-1
 507 1474 l 1,1,-1
 362 930 l 1,2,3
 404 969 404 969 439.5 996.5 c 128,-1,4
 475 1024 475 1024 504 1041 c 0,5,6
 606 1097 606 1097 737 1097 c 0,7,8
 828 1097 828 1097 889.5 1073.5 c 128,-1,9
 951 1050 951 1050 982.5 1000.5 c 128,-1,10
 1014 951 1014 951 1016 873 c 128,-1,11
 1018 795 1018 795 989 687 c 2,12,-1
 805 0 l 1,13,-1
 619 0 l 1,14,-1
 799 675 l 2,15,16
 814 732 814 732 818 776 c 128,-1,17
 822 820 822 820 816 848 c 1,18,19
 801 890 801 890 761.5 912.5 c 128,-1,20
 722 935 722 935 656 935 c 0,21,22
 546 935 546 935 433 858 c 0,23,24
 322 782 322 782 265 568 c 2,25,-1
 113 0 l 1,26,-1
 -68 0 l 1,27,-1
 326 1474 l 1,0,-1
EndSplineSet
Substitution2: "<17016,16016> Urdu Swash lookup 75 subtable" h
EndChar

StartChar: i
Encoding: 105 105 76
Width: 455
GlyphClass: 2
Flags: W
LayerCount: 2
Fore
SplineSet
324 1469 m 1,0,-1
 509 1469 l 1,1,-1
 454 1263 l 1,2,-1
 269 1263 l 1,3,-1
 324 1469 l 1,0,-1
216 1067 m 1,4,-1
 401 1067 l 1,5,-1
 116 0 l 1,6,-1
 -69 0 l 1,7,-1
 216 1067 l 1,4,-1
EndSplineSet
Substitution2: "<17016,16016> Urdu Swash lookup 75 subtable" i
EndChar

StartChar: j
Encoding: 106 106 77
Width: 455
GlyphClass: 2
Flags: W
LayerCount: 2
Fore
SplineSet
450 1259 m 1,0,-1
 268 1259 l 1,1,-1
 324 1469 l 1,2,-1
 506 1469 l 1,3,-1
 450 1259 l 1,0,-1
-311 -269 m 1,4,5
 -248 -267 -248 -267 -212 -261.5 c 128,-1,6
 -176 -256 -176 -256 -161 -247 c 0,7,8
 -131 -231 -131 -231 -107 -139 c 2,9,-1
 216 1067 l 1,10,-1
 398 1067 l 1,11,-1
 70 -158 l 2,12,13
 50 -233 50 -233 20 -285 c 128,-1,14
 -10 -337 -10 -337 -53 -369.5 c 128,-1,15
 -96 -402 -96 -402 -152 -416.5 c 128,-1,16
 -208 -431 -208 -431 -280 -431 c 0,17,18
 -294 -431 -294 -431 -308.5 -430 c 128,-1,19
 -323 -429 -323 -429 -353 -426 c 1,20,-1
 -311 -269 l 1,4,5
EndSplineSet
Substitution2: "<17016,16016> Urdu Swash lookup 75 subtable" j
EndChar

StartChar: k
Encoding: 107 107 78
Width: 1024
GlyphClass: 2
Flags: W
LayerCount: 2
Fore
SplineSet
321 1469 m 1,0,-1
 495 1469 l 1,1,-1
 267 619 l 1,2,3
 414 733 414 733 558 845.5 c 128,-1,4
 702 958 702 958 849 1072 c 1,5,-1
 1082 1072 l 1,6,-1
 564 670 l 1,7,8
 625 508 625 508 690.5 335 c 128,-1,9
 756 162 756 162 817 0 c 1,10,-1
 585 0 l 1,11,-1
 396 538 l 1,12,13
 351 505 351 505 302.5 469.5 c 128,-1,14
 254 434 254 434 209 401 c 1,15,-1
 102 0 l 1,16,-1
 -72 0 l 1,17,-1
 321 1469 l 1,0,-1
EndSplineSet
Substitution2: "<17016,16016> Urdu Swash lookup 75 subtable" k
EndChar

StartChar: l
Encoding: 108 108 79
AltUni2: 00217c.ffffffff.0
Width: 455
GlyphClass: 2
Flags: W
LayerCount: 2
Fore
SplineSet
329 1469 m 1,0,-1
 511 1469 l 1,1,-1
 118 0 l 1,2,-1
 -64 0 l 1,3,-1
 329 1469 l 1,0,-1
EndSplineSet
Substitution2: "<17016,16016> Urdu Swash lookup 75 subtable" l
EndChar

StartChar: m
Encoding: 109 109 80
AltUni2: 00217f.ffffffff.0
Width: 1706
GlyphClass: 2
Flags: W
LayerCount: 2
Fore
SplineSet
219 1072 m 1,0,-1
 399 1072 l 1,1,-1
 359 923 l 1,2,3
 439 998 439 998 503 1035 c 0,4,5
 607 1095 607 1095 721 1095 c 0,6,7
 772 1095 772 1095 811.5 1087 c 128,-1,8
 851 1079 851 1079 880.5 1059.5 c 128,-1,9
 910 1040 910 1040 930 1008 c 128,-1,10
 950 976 950 976 962 928 c 1,11,12
 1045 1013 1045 1013 1137 1054 c 128,-1,13
 1229 1095 1229 1095 1329 1095 c 0,14,15
 1496 1095 1496 1095 1556.5 1003.5 c 128,-1,16
 1617 912 1617 912 1564 713 c 2,17,-1
 1373 0 l 1,18,-1
 1184 0 l 1,19,-1
 1383 744 l 2,20,21
 1397 798 1397 798 1392 833.5 c 128,-1,22
 1387 869 1387 869 1367.5 890.5 c 128,-1,23
 1348 912 1348 912 1317.5 921 c 128,-1,24
 1287 930 1287 930 1251 930 c 0,25,26
 1199 930 1199 930 1147.5 912.5 c 128,-1,27
 1096 895 1096 895 1050.5 858 c 128,-1,28
 1005 821 1005 821 968.5 763 c 128,-1,29
 932 705 932 705 910 623 c 2,30,-1
 744 0 l 1,31,-1
 559 0 l 1,32,-1
 746 699 l 2,33,34
 764 765 764 765 766 809.5 c 128,-1,35
 768 854 768 854 753.5 881.5 c 128,-1,36
 739 909 739 909 708.5 920.5 c 128,-1,37
 678 932 678 932 630 932 c 0,38,39
 529 932 529 932 425 853 c 0,40,41
 320 772 320 772 266 568 c 2,42,-1
 114 0 l 1,43,-1
 -68 0 l 1,44,-1
 219 1072 l 1,0,-1
EndSplineSet
Substitution2: "<17016,16016> Urdu Swash lookup 75 subtable" m
EndChar

StartChar: n
Encoding: 110 110 81
Width: 1139
GlyphClass: 2
Flags: W
LayerCount: 2
Fore
SplineSet
219 1072 m 1,0,-1
 391 1072 l 1,1,-1
 351 922 l 1,2,3
 401 969 401 969 449.5 1001.5 c 128,-1,4
 498 1034 498 1034 546.5 1055 c 128,-1,5
 595 1076 595 1076 644.5 1085.5 c 128,-1,6
 694 1095 694 1095 746 1095 c 0,7,8
 836 1095 836 1095 896 1072 c 128,-1,9
 956 1049 956 1049 986.5 1000 c 128,-1,10
 1017 951 1017 951 1017.5 873.5 c 128,-1,11
 1018 796 1018 796 989 687 c 2,12,-1
 805 0 l 1,13,-1
 621 0 l 1,14,-1
 801 675 l 2,15,16
 835 800 835 800 803.5 866 c 128,-1,17
 772 932 772 932 668 932 c 0,18,19
 627 932 627 932 592.5 926.5 c 128,-1,20
 558 921 558 921 526.5 908.5 c 128,-1,21
 495 896 495 896 466 877 c 128,-1,22
 437 858 437 858 407 831 c 256,23,24
 377 804 377 804 356 778.5 c 128,-1,25
 335 753 335 753 319 722.5 c 128,-1,26
 303 692 303 692 290 653.5 c 128,-1,27
 277 615 277 615 263 561 c 2,28,-1
 113 0 l 1,29,-1
 -68 0 l 1,30,-1
 219 1072 l 1,0,-1
EndSplineSet
Substitution2: "<17016,16016> Urdu Swash lookup 75 subtable" n
EndChar

StartChar: o
Encoding: 111 111 82
Width: 1139
GlyphClass: 2
Flags: W
LayerCount: 2
Fore
SplineSet
816 553 m 0,0,1
 835 625 835 625 839 687.5 c 128,-1,2
 843 750 843 750 833 797 c 1,3,4
 812 863 812 863 755.5 903.5 c 128,-1,5
 699 944 699 944 611 944 c 0,6,7
 447 944 447 944 339 818 c 1,8,9
 230 693 230 693 182 515 c 0,10,11
 137 346 137 346 182 232 c 0,12,13
 226 118 226 118 388 118 c 0,14,15
 566 118 566 118 668 252 c 0,16,17
 772 389 772 389 816 553 c 0,0,1
1006 558 m 1,18,19
 971 430 971 430 909.5 322.5 c 128,-1,20
 848 215 848 215 765 130 c 1,21,22
 680 47 680 47 571 4 c 128,-1,23
 462 -39 462 -39 329 -39 c 0,24,25
 217 -39 217 -39 138.5 0.5 c 128,-1,26
 60 40 60 40 17.5 112 c 128,-1,27
 -25 184 -25 184 -31 286 c 128,-1,28
 -37 388 -37 388 -4 512 c 0,29,30
 32 646 32 646 96.5 755 c 128,-1,31
 161 864 161 864 247 941 c 128,-1,32
 333 1018 333 1018 437.5 1060 c 128,-1,33
 542 1102 542 1102 659 1102 c 0,34,35
 869 1102 869 1102 973 965 c 1,36,37
 1077 826 1077 826 1006 558 c 1,18,19
EndSplineSet
Substitution2: "<17016,16016> Urdu Swash lookup 75 subtable" o
EndChar

StartChar: p
Encoding: 112 112 83
Width: 1139
GlyphClass: 2
Flags: W
LayerCount: 2
Fore
SplineSet
821 542 m 0,0,1
 872 734 872 734 823 836 c 128,-1,2
 774 938 774 938 635 938 c 0,3,4
 490 938 490 938 387 828 c 128,-1,5
 284 718 284 718 225 498 c 0,6,7
 176 314 176 314 226.5 218.5 c 128,-1,8
 277 123 277 123 416 123 c 0,9,10
 478 123 478 123 539 149.5 c 128,-1,11
 600 176 600 176 653 229 c 128,-1,12
 706 282 706 282 749.5 360.5 c 128,-1,13
 793 439 793 439 821 542 c 0,0,1
203 1067 m 1,14,-1
 379 1067 l 1,15,-1
 342 928 l 1,16,17
 429 1013 429 1013 520.5 1055 c 128,-1,18
 612 1097 612 1097 718 1097 c 0,19,20
 901 1097 901 1097 991 958 c 1,21,22
 1080 818 1080 818 1010 559 c 0,23,24
 917 210 917 210 694 59 c 0,25,26
 552 -36 552 -36 398 -36 c 0,27,28
 337 -36 337 -36 290 -22.5 c 128,-1,29
 243 -9 243 -9 208 17 c 0,30,31
 188 32 188 32 168 57 c 128,-1,32
 148 82 148 82 130 117 c 1,33,-1
 -16 -426 l 1,34,-1
 -197 -426 l 1,35,-1
 203 1067 l 1,14,-1
EndSplineSet
Substitution2: "<17016,16016> Urdu Swash lookup 75 subtable" p
EndChar

StartChar: q
Encoding: 113 113 84
Width: 1139
GlyphClass: 2
Flags: W
LayerCount: 2
Fore
SplineSet
165 289 m 0,0,1
 189 123 189 123 366 123 c 0,2,3
 440 123 440 123 503 151.5 c 128,-1,4
 566 180 566 180 618 234 c 128,-1,5
 670 288 670 288 710 366.5 c 128,-1,6
 750 445 750 445 777 545 c 0,7,8
 828 736 828 736 777.5 835.5 c 128,-1,9
 727 935 727 935 582 935 c 0,10,11
 466 935 466 935 355 833 c 0,12,13
 245 732 245 732 188 521 c 0,14,15
 169 451 169 451 163.5 394 c 128,-1,16
 158 337 158 337 165 289 c 0,0,1
814 1029 m 0,17,18
 853 994 853 994 881 927 c 1,19,-1
 920 1072 l 1,20,-1
 1092 1072 l 1,21,-1
 690 -426 l 1,22,-1
 508 -426 l 1,23,-1
 655 120 l 1,24,25
 590 48 590 48 500.5 7 c 128,-1,26
 411 -34 411 -34 291 -34 c 0,27,28
 119 -34 119 -34 20 100 c 0,29,30
 -78 234 -78 234 -4 508 c 0,31,32
 31 637 31 637 92.5 744.5 c 128,-1,33
 154 852 154 852 234.5 930 c 128,-1,34
 315 1008 315 1008 410.5 1051.5 c 128,-1,35
 506 1095 506 1095 607 1095 c 0,36,37
 742 1095 742 1095 814 1029 c 0,17,18
EndSplineSet
Substitution2: "<17016,16016> Urdu Swash lookup 75 subtable" q
EndChar

StartChar: r
Encoding: 114 114 85
Width: 682
GlyphClass: 2
Flags: W
LayerCount: 2
Fore
SplineSet
223 1072 m 1,0,-1
 396 1072 l 1,1,-1
 348 892 l 1,2,3
 366 918 366 918 401.5 951 c 128,-1,4
 437 984 437 984 482 1018 c 0,5,6
 533 1056 533 1056 587 1075.5 c 128,-1,7
 641 1095 641 1095 693 1095 c 0,8,9
 699 1095 699 1095 710.5 1094 c 128,-1,10
 722 1093 722 1093 751 1090 c 1,11,-1
 699 899 l 1,12,13
 684 902 684 902 671 903 c 128,-1,14
 658 904 658 904 641 904 c 0,15,16
 506 904 506 904 409 816 c 0,17,18
 313 729 313 729 283 616 c 2,19,-1
 118 0 l 1,20,-1
 -64 0 l 1,21,-1
 223 1072 l 1,0,-1
EndSplineSet
Substitution2: "<17016,16016> Urdu Swash lookup 75 subtable" r
EndChar

StartChar: s
Encoding: 115 115 86
Width: 1024
GlyphClass: 2
Flags: W
LayerCount: 2
Fore
SplineSet
130 338 m 1,0,1
 108 218 108 218 163.5 165.5 c 128,-1,2
 219 113 219 113 350 113 c 0,3,4
 398 113 398 113 446 123 c 128,-1,5
 494 133 494 133 534.5 155 c 128,-1,6
 575 177 575 177 605.5 210.5 c 128,-1,7
 636 244 636 244 648 290 c 0,8,9
 666 357 666 357 615 393 c 1,10,-1
 616 393 l 1,11,12
 583 416 583 416 475 444 c 1,13,-1
 342 480 l 2,14,15
 278 497 278 497 232 516.5 c 128,-1,16
 186 536 186 536 159 556 c 0,17,18
 114 591 114 591 98.5 644.5 c 128,-1,19
 83 698 83 698 99 759 c 0,20,21
 120 836 120 836 165.5 899 c 128,-1,22
 211 962 211 962 276 1006.5 c 128,-1,23
 341 1051 341 1051 422 1075 c 128,-1,24
 503 1099 503 1099 594 1099 c 0,25,26
 690 1099 690 1099 760 1074.5 c 128,-1,27
 830 1050 830 1050 872 1005.5 c 128,-1,28
 914 961 914 961 926 899 c 128,-1,29
 938 837 938 837 918 762 c 1,30,-1
 747 762 l 1,31,32
 763 845 763 845 713 894.5 c 128,-1,33
 663 944 663 944 538 944 c 0,34,35
 436 944 436 944 374 905 c 128,-1,36
 312 866 312 866 295 803 c 0,37,38
 285 765 285 765 295 738.5 c 128,-1,39
 305 712 305 712 336.5 692 c 128,-1,40
 368 672 368 672 421.5 655 c 128,-1,41
 475 638 475 638 550 619 c 0,42,43
 641 596 641 596 700 573 c 128,-1,44
 759 550 759 550 787 528 c 0,45,46
 873 459 873 459 833 311 c 0,47,48
 814 240 814 240 769 177 c 128,-1,49
 724 114 724 114 658 63 c 1,50,51
 590 12 590 12 500.5 -14.5 c 128,-1,52
 411 -41 411 -41 300 -41 c 0,53,54
 60 -41 60 -41 -12 67 c 1,55,56
 -45 122 -45 122 -53.5 189.5 c 128,-1,57
 -62 257 -62 257 -44 338 c 1,58,-1
 130 338 l 1,0,1
EndSplineSet
Substitution2: "<17016,16016> Urdu Swash lookup 75 subtable" s
EndChar

StartChar: t
Encoding: 116 116 87
Width: 569
GlyphClass: 2
Flags: W
LayerCount: 2
Fore
SplineSet
334 1370 m 1,0,-1
 518 1370 l 1,1,-1
 438 1072 l 1,2,-1
 609 1072 l 1,3,-1
 569 923 l 1,4,-1
 398 923 l 1,5,-1
 211 226 l 2,6,7
 199 180 199 180 217.5 160.5 c 128,-1,8
 236 141 236 141 295 141 c 0,9,10
 308 141 308 141 323.5 141.5 c 128,-1,11
 339 142 339 142 360 144 c 1,12,-1
 322 0 l 1,13,14
 288 -9 288 -9 253.5 -13 c 128,-1,15
 219 -17 219 -17 179 -17 c 0,16,17
 119 -17 119 -17 78.5 -1 c 128,-1,18
 38 15 38 15 24 47 c 1,19,20
 12 78 12 78 11.5 122.5 c 128,-1,21
 11 167 11 167 24 216 c 2,22,-1
 214 923 l 1,23,-1
 69 923 l 1,24,-1
 109 1072 l 1,25,-1
 254 1072 l 1,26,-1
 334 1370 l 1,0,-1
EndSplineSet
Substitution2: "<17016,16016> Urdu Swash lookup 75 subtable" t
EndChar

StartChar: u
Encoding: 117 117 88
Width: 1139
GlyphClass: 2
Flags: W
LayerCount: 2
Fore
SplineSet
400 1072 m 1,0,-1
 209 360 l 2,1,2
 180 249 180 249 215 190.5 c 128,-1,3
 250 132 250 132 352 132 c 0,4,5
 497 132 497 132 597 231.5 c 128,-1,6
 697 331 697 331 755 545 c 2,7,-1
 896 1072 l 1,8,-1
 1077 1072 l 1,9,-1
 790 0 l 1,10,-1
 619 0 l 1,11,-1
 662 155 l 1,12,13
 584 66 584 66 485 18.5 c 128,-1,14
 386 -29 386 -29 277 -29 c 0,15,16
 -81 -29 -81 -29 20 344 c 1,17,-1
 215 1072 l 1,18,-1
 400 1072 l 1,0,-1
EndSplineSet
Substitution2: "<17016,16016> Urdu Swash lookup 75 subtable" u
EndChar

StartChar: v
Encoding: 118 118 89
Width: 1024
GlyphClass: 2
Flags: W
LayerCount: 2
Fore
SplineSet
308 1072 m 1,0,-1
 360 203 l 1,1,2
 493 420 493 420 625 637 c 128,-1,3
 757 854 757 854 891 1072 c 1,4,-1
 1089 1072 l 1,5,-1
 399 0 l 1,6,-1
 205 0 l 1,7,-1
 98 1072 l 1,8,-1
 308 1072 l 1,0,-1
EndSplineSet
Substitution2: "<17016,16016> Urdu Swash lookup 75 subtable" v
EndChar

StartChar: w
Encoding: 119 119 90
Width: 1479
GlyphClass: 2
Flags: W
LayerCount: 2
Fore
SplineSet
304 1072 m 1,0,-1
 283 232 l 1,1,2
 391 443 391 443 499 652 c 128,-1,3
 607 861 607 861 716 1072 c 1,4,-1
 920 1072 l 1,5,-1
 905 237 l 1,6,7
 1015 446 1015 446 1124.5 654 c 128,-1,8
 1234 862 1234 862 1346 1072 c 1,9,-1
 1528 1072 l 1,10,-1
 930 0 l 1,11,-1
 742 0 l 1,12,-1
 746 825 l 1,13,14
 637 617 637 617 530 412.5 c 128,-1,15
 423 208 423 208 315 0 c 1,16,-1
 127 0 l 1,17,-1
 105 1072 l 1,18,-1
 304 1072 l 1,0,-1
EndSplineSet
Substitution2: "<17016,16016> Urdu Swash lookup 75 subtable" w
EndChar

StartChar: x
Encoding: 120 120 91
Width: 1024
GlyphClass: 2
Flags: W
LayerCount: 2
Fore
SplineSet
116 1072 m 1,0,-1
 351 1072 l 1,1,-1
 495 696 l 1,2,3
 580 787 580 787 669.5 884 c 128,-1,4
 759 981 759 981 844 1072 c 1,5,-1
 1063 1067 l 1,6,-1
 565 549 l 1,7,8
 622 412 622 412 679.5 274.5 c 128,-1,9
 737 137 737 137 794 0 c 1,10,-1
 562 0 l 1,11,-1
 403 399 l 1,12,13
 312 299 312 299 221.5 200 c 128,-1,14
 131 101 131 101 40 0 c 1,15,-1
 -190 0 l 1,16,-1
 333 549 l 1,17,-1
 116 1072 l 1,0,-1
EndSplineSet
Substitution2: "<17016,16016> Urdu Swash lookup 75 subtable" x
EndChar

StartChar: y
Encoding: 121 121 92
Width: 1024
GlyphClass: 2
Flags: W
LayerCount: 2
Fore
SplineSet
887 1072 m 1,0,-1
 1087 1072 l 1,1,2
 1053 1021 1053 1021 980 904 c 128,-1,3
 907 787 907 787 793 601 c 0,4,5
 783 585 783 585 760 548.5 c 128,-1,6
 737 512 737 512 707.5 465.5 c 128,-1,7
 678 419 678 419 645.5 368 c 128,-1,8
 613 317 613 317 584.5 272.5 c 128,-1,9
 556 228 556 228 535.5 195 c 128,-1,10
 515 162 515 162 508 152 c 0,11,12
 374 -55 374 -55 285.5 -179.5 c 128,-1,13
 197 -304 197 -304 154 -349 c 0,14,15
 67 -438 67 -438 -91 -438 c 0,16,17
 -111 -438 -111 -438 -124.5 -437.5 c 128,-1,18
 -138 -437 -138 -437 -149.5 -435.5 c 128,-1,19
 -161 -434 -161 -434 -171.5 -431 c 128,-1,20
 -182 -428 -182 -428 -196 -424 c 1,21,-1
 -152 -259 l 1,22,23
 -130 -265 -130 -265 -115 -269 c 128,-1,24
 -100 -273 -100 -273 -88.5 -275 c 128,-1,25
 -77 -277 -77 -277 -68.5 -277.5 c 128,-1,26
 -60 -278 -60 -278 -52 -278 c 0,27,28
 -4 -278 -4 -278 25 -261 c 128,-1,29
 54 -244 54 -244 75 -221 c 0,30,31
 78 -218 78 -218 87 -205 c 128,-1,32
 96 -192 96 -192 109 -173.5 c 128,-1,33
 122 -155 122 -155 137 -133.5 c 128,-1,34
 152 -112 152 -112 165.5 -92 c 128,-1,35
 179 -72 179 -72 190 -55 c 128,-1,36
 201 -38 201 -38 207 -30 c 1,37,38
 182 240 182 240 157.5 521 c 128,-1,39
 133 802 133 802 108 1072 c 1,40,-1
 313 1072 l 1,41,-1
 366 203 l 1,42,-1
 887 1072 l 1,0,-1
EndSplineSet
Substitution2: "<17016,16016> Urdu Swash lookup 75 subtable" y
EndChar

StartChar: z
Encoding: 122 122 93
Width: 1024
GlyphClass: 2
Flags: W
LayerCount: 2
Fore
SplineSet
-110 144 m 1,0,-1
 727 909 l 1,1,-1
 142 909 l 1,2,-1
 186 1072 l 1,3,-1
 1016 1072 l 1,4,-1
 976 923 l 1,5,-1
 144 163 l 1,6,-1
 791 163 l 1,7,-1
 748 0 l 1,8,-1
 -148 0 l 1,9,-1
 -110 144 l 1,0,-1
EndSplineSet
Substitution2: "<17016,16016> Urdu Swash lookup 75 subtable" z
EndChar

StartChar: braceleft
Encoding: 123 123 94
Width: 978
GlyphClass: 2
Flags: W
LayerCount: 2
Fore
SplineSet
14 428 m 1,0,1
 166 445 166 445 250 507 c 128,-1,2
 334 569 334 569 365 685 c 2,3,-1
 440 959 l 2,4,5
 466 1052 466 1052 518 1114.5 c 128,-1,6
 570 1177 570 1177 654 1212 c 0,7,8
 747 1250 747 1250 966 1264 c 1,9,-1
 954 1217 l 1,10,11
 844 1205 844 1205 738 1146 c 0,12,13
 633 1088 633 1088 597 955 c 2,14,-1
 532 711 l 2,15,16
 490 552 490 552 398 493 c 1,17,18
 304 434 304 434 100 395 c 1,19,-1
 65 389 l 1,20,-1
 64 385 l 1,21,22
 156 376 156 376 227.5 352 c 128,-1,23
 299 328 299 328 331 292 c 0,24,25
 362 256 362 256 371.5 203 c 128,-1,26
 381 150 381 150 365 89 c 2,27,-1
 293 -193 l 2,28,29
 277 -253 277 -253 290 -300.5 c 128,-1,30
 303 -348 303 -348 344 -378 c 0,31,32
 368 -396 368 -396 410 -410.5 c 128,-1,33
 452 -425 452 -425 510 -438 c 1,34,-1
 498 -484 l 1,35,36
 399 -484 399 -484 321.5 -468 c 128,-1,37
 244 -452 244 -452 195 -416.5 c 128,-1,38
 146 -381 146 -381 129 -323.5 c 128,-1,39
 112 -266 112 -266 134 -183 c 2,40,-1
 215 125 l 2,41,42
 245 240 245 240 158 298 c 0,43,44
 109 331 109 331 -6 353 c 1,45,-1
 14 428 l 1,0,1
EndSplineSet
Substitution2: "<17016,16016> Urdu Swash lookup 75 subtable" braceleft
EndChar

StartChar: bar
Encoding: 124 124 95
Width: 532
GlyphClass: 2
Flags: W
LayerCount: 2
Fore
SplineSet
154 0 m 1,0,-1
 -19 0 l 1,1,-1
 380 1490 l 1,2,-1
 553 1490 l 1,3,-1
 154 0 l 1,0,-1
EndSplineSet
Substitution2: "<17016,16016> Urdu Swash lookup 75 subtable" bar
EndChar

StartChar: braceright
Encoding: 125 125 96
Width: 978
GlyphClass: 2
Flags: W
LayerCount: 2
Fore
SplineSet
722 353 m 1,0,1
 595 331 595 331 526 297 c 1,2,-1
 527 297 l 1,3,4
 472 268 472 268 434 225 c 128,-1,5
 396 182 396 182 380 125 c 2,6,-1
 295 -183 l 2,7,8
 273 -264 273 -264 228.5 -322 c 128,-1,9
 184 -380 184 -380 112 -415 c 1,10,-1
 113 -415 l 1,11,12
 44 -450 44 -450 -41.5 -467 c 128,-1,13
 -127 -484 -127 -484 -229 -484 c 1,14,-1
 -217 -438 l 1,15,16
 -132 -422 -132 -422 -72 -400.5 c 128,-1,17
 -12 -379 -12 -379 28.5 -349.5 c 128,-1,18
 69 -320 69 -320 93.5 -281.5 c 128,-1,19
 118 -243 118 -243 132 -193 c 2,20,-1
 209 89 l 2,21,22
 245 223 245 223 363 295.5 c 128,-1,23
 481 368 481 368 671 385 c 1,24,-1
 671 388 l 1,25,26
 571 410 571 410 505.5 431 c 128,-1,27
 440 452 440 452 414 474 c 0,28,29
 374 508 374 508 363.5 567 c 128,-1,30
 353 626 353 626 376 711 c 2,31,-1
 441 955 l 2,32,33
 471 1067 471 1067 415 1133.5 c 128,-1,34
 359 1200 359 1200 226 1217 c 1,35,-1
 238 1264 l 1,36,37
 496 1264 496 1264 567 1181 c 0,38,39
 604 1139 604 1139 612.5 1086 c 128,-1,40
 621 1033 621 1033 601 959 c 2,41,-1
 530 685 l 2,42,43
 500 570 500 570 548 508 c 128,-1,44
 596 446 596 446 742 428 c 1,45,-1
 722 353 l 1,0,1
EndSplineSet
Substitution2: "<17016,16016> Urdu Swash lookup 75 subtable" braceright
EndChar

StartChar: asciitilde
Encoding: 126 126 97
Width: 1196
GlyphClass: 2
Flags: W
LayerCount: 2
Fore
SplineSet
358 688 m 0,0,1
 385 684 385 684 411 676.5 c 128,-1,2
 437 669 437 669 460 659 c 0,3,4
 494 644 494 644 531 627.5 c 128,-1,5
 568 611 568 611 604.5 595.5 c 128,-1,6
 641 580 641 580 674.5 566 c 128,-1,7
 708 552 708 552 735 542 c 0,8,9
 759 534 759 534 781.5 531 c 128,-1,10
 804 528 804 528 824 527 c 1,11,12
 861 527 861 527 896.5 543 c 128,-1,13
 932 559 932 559 963.5 586.5 c 128,-1,14
 995 614 995 614 1022 650 c 128,-1,15
 1049 686 1049 686 1068 726 c 1,16,-1
 1186 726 l 1,17,18
 1121 579 1121 579 1017 465 c 1,19,20
 913 349 913 349 764 349 c 0,21,22
 743 349 743 349 724.5 351 c 128,-1,23
 706 353 706 353 684.5 359 c 128,-1,24
 663 365 663 365 634.5 375.5 c 128,-1,25
 606 386 606 386 565 404 c 0,26,27
 525 421 525 421 482 440.5 c 128,-1,28
 439 460 439 460 397.5 476 c 128,-1,29
 356 492 356 492 317 502.5 c 128,-1,30
 278 513 278 513 245 513 c 0,31,32
 211 513 211 513 181.5 503.5 c 128,-1,33
 152 494 152 494 124 472 c 128,-1,34
 96 450 96 450 67.5 413 c 128,-1,35
 39 376 39 376 6 320 c 1,36,-1
 -113 320 l 1,37,38
 -93 362 -93 362 -74 397 c 128,-1,39
 -55 432 -55 432 -38 461 c 0,40,41
 -20 491 -20 491 6.5 525 c 128,-1,42
 33 559 33 559 68 595 c 1,43,44
 124 646 124 646 178 669.5 c 128,-1,45
 232 693 232 693 298 693 c 0,46,47
 312 693 312 693 327.5 691.5 c 128,-1,48
 343 690 343 690 358 688 c 0,0,1
EndSplineSet
Substitution2: "<17016,16016> Urdu Swash lookup 75 subtable" asciitilde
EndChar

StartChar: Adieresis
Encoding: 196 196 98
Width: 1366
GlyphClass: 2
Flags: W
LayerCount: 2
Fore
SplineSet
1042 1816 m 1,0,-1
 1231 1816 l 1,1,-1
 1175 1607 l 1,2,-1
 986 1607 l 1,3,-1
 1042 1816 l 1,0,-1
712 1816 m 1,4,-1
 901 1816 l 1,5,-1
 845 1607 l 1,6,-1
 656 1607 l 1,7,-1
 712 1816 l 1,4,-1
870 603 m 1,8,9
 859 762 859 762 845.5 925.5 c 128,-1,10
 832 1089 832 1089 821 1247 c 1,11,12
 718 1086 718 1086 616.5 925.5 c 128,-1,13
 515 765 515 765 412 603 c 1,14,-1
 870 603 l 1,8,9
775 1469 m 1,15,-1
 1002 1469 l 1,16,-1
 1141 0 l 1,17,-1
 921 0 l 1,18,-1
 890 439 l 1,19,-1
 311 439 l 1,20,21
 285 397 285 397 248.5 339 c 128,-1,22
 212 281 212 281 173.5 219.5 c 128,-1,23
 135 158 135 158 98.5 100 c 128,-1,24
 62 42 62 42 36 0 c 1,25,-1
 -170 0 l 1,26,-1
 775 1469 l 1,15,-1
EndSplineSet
Substitution2: "<17016,16016> Urdu Swash lookup 75 subtable" Adieresis
EndChar

StartChar: Aring
Encoding: 197 197 99
AltUni2: 00212b.ffffffff.0
Width: 1366
GlyphClass: 2
Flags: W
LayerCount: 2
Fore
SplineSet
937 1611 m 256,0,1
 962 1611 962 1611 987.5 1621 c 128,-1,2
 1013 1631 1013 1631 1035 1648.5 c 128,-1,3
 1057 1666 1057 1666 1073 1688.5 c 128,-1,4
 1089 1711 1089 1711 1096 1736 c 256,5,6
 1103 1761 1103 1761 1099 1783.5 c 128,-1,7
 1095 1806 1095 1806 1082 1823 c 128,-1,8
 1069 1840 1069 1840 1049 1850 c 128,-1,9
 1029 1860 1029 1860 1004 1860 c 0,10,11
 980 1860 980 1860 955 1850 c 128,-1,12
 930 1840 930 1840 908 1823 c 128,-1,13
 886 1806 886 1806 870 1783.5 c 128,-1,14
 854 1761 854 1761 847 1736 c 256,15,16
 840 1711 840 1711 844 1688.5 c 128,-1,17
 848 1666 848 1666 860.5 1648.5 c 128,-1,18
 873 1631 873 1631 892.5 1621 c 128,-1,19
 912 1611 912 1611 937 1611 c 256,0,1
1027 1945 m 256,20,21
 1070 1945 1070 1945 1103.5 1928 c 128,-1,22
 1137 1911 1137 1911 1158 1882.5 c 128,-1,23
 1179 1854 1179 1854 1185.5 1816 c 128,-1,24
 1192 1778 1192 1778 1181 1736 c 0,25,26
 1169 1693 1169 1693 1142 1654.5 c 128,-1,27
 1115 1616 1115 1616 1079 1587.5 c 128,-1,28
 1043 1559 1043 1559 1000 1542.5 c 128,-1,29
 957 1526 957 1526 914 1526 c 256,30,31
 871 1526 871 1526 837 1542.5 c 128,-1,32
 803 1559 803 1559 782.5 1587.5 c 128,-1,33
 762 1616 762 1616 756 1654.5 c 128,-1,34
 750 1693 750 1693 762 1736 c 0,35,36
 773 1778 773 1778 800 1816 c 128,-1,37
 827 1854 827 1854 863 1882.5 c 128,-1,38
 899 1911 899 1911 941.5 1928 c 128,-1,39
 984 1945 984 1945 1027 1945 c 256,20,21
870 603 m 1,40,41
 859 762 859 762 845.5 925.5 c 128,-1,42
 832 1089 832 1089 821 1247 c 1,43,44
 718 1086 718 1086 616.5 925.5 c 128,-1,45
 515 765 515 765 412 603 c 1,46,-1
 870 603 l 1,40,41
775 1469 m 1,47,-1
 1002 1469 l 1,48,-1
 1141 0 l 1,49,-1
 921 0 l 1,50,-1
 890 439 l 1,51,-1
 311 439 l 1,52,53
 285 397 285 397 248.5 339 c 128,-1,54
 212 281 212 281 173.5 219.5 c 128,-1,55
 135 158 135 158 98.5 100 c 128,-1,56
 62 42 62 42 36 0 c 1,57,-1
 -170 0 l 1,58,-1
 775 1469 l 1,47,-1
EndSplineSet
Substitution2: "<17016,16016> Urdu Swash lookup 75 subtable" Aring
EndChar

StartChar: Ccedilla
Encoding: 199 199 100
Width: 1479
GlyphClass: 2
Flags: W
LayerCount: 2
Fore
SplineSet
1258 1027 m 1,0,1
 1260 1097 1260 1097 1243 1154 c 128,-1,2
 1226 1211 1226 1211 1187 1251 c 128,-1,3
 1148 1291 1148 1291 1085.5 1312.5 c 128,-1,4
 1023 1334 1023 1334 934 1334 c 0,5,6
 828 1334 828 1334 729 1297 c 128,-1,7
 630 1260 630 1260 546 1183.5 c 128,-1,8
 462 1107 462 1107 395 990.5 c 128,-1,9
 328 874 328 874 286 716 c 0,10,11
 218 457 218 457 294 299 c 0,12,13
 372 139 372 139 610 139 c 0,14,15
 778 139 778 139 912.5 238 c 128,-1,16
 1047 337 1047 337 1141 541 c 1,17,-1
 1337 541 l 1,18,19
 1293 423 1293 423 1224 326.5 c 128,-1,20
 1155 230 1155 230 1061 151 c 0,21,22
 950 58 950 58 823 11 c 128,-1,23
 696 -36 696 -36 560 -38 c 1,24,25
 537 -61 537 -61 517 -81.5 c 128,-1,26
 497 -102 497 -102 474 -125 c 1,27,28
 506 -117 506 -117 547 -117 c 0,29,30
 618 -117 618 -117 652.5 -157.5 c 128,-1,31
 687 -198 687 -198 667 -274 c 0,32,33
 657 -311 657 -311 633.5 -345 c 128,-1,34
 610 -379 610 -379 573 -404.5 c 128,-1,35
 536 -430 536 -430 485.5 -445 c 128,-1,36
 435 -460 435 -460 372 -460 c 0,37,38
 349 -460 349 -460 329 -457.5 c 128,-1,39
 309 -455 309 -455 287.5 -450 c 128,-1,40
 266 -445 266 -445 242 -437 c 128,-1,41
 218 -429 218 -429 187 -417 c 1,42,-1
 244 -335 l 1,43,44
 267 -344 267 -344 284.5 -350 c 128,-1,45
 302 -356 302 -356 316 -359.5 c 128,-1,46
 330 -363 330 -363 343 -364 c 128,-1,47
 356 -365 356 -365 370 -365 c 0,48,49
 424 -365 424 -365 460 -344 c 128,-1,50
 496 -323 496 -323 507 -280 c 0,51,52
 516 -248 516 -248 496 -225 c 128,-1,53
 476 -202 476 -202 432 -202 c 0,54,55
 409 -202 409 -202 390.5 -206 c 128,-1,56
 372 -210 372 -210 346 -219 c 1,57,-1
 321 -177 l 1,58,-1
 459 -38 l 1,59,60
 285 -36 285 -36 150 101 c 1,61,62
 -24 321 -24 321 90 750 c 0,63,64
 135 918 135 918 221 1057.5 c 128,-1,65
 307 1197 307 1197 423 1297.5 c 128,-1,66
 539 1398 539 1398 681 1453.5 c 128,-1,67
 823 1509 823 1509 979 1509 c 0,68,69
 1260 1509 1260 1509 1372 1362 c 1,70,71
 1487 1214 1487 1214 1454 1027 c 1,72,-1
 1258 1027 l 1,0,1
EndSplineSet
Substitution2: "<17016,16016> Urdu Swash lookup 75 subtable" Ccedilla
EndChar

StartChar: Eacute
Encoding: 201 201 101
Width: 1366
GlyphClass: 2
Flags: W
LayerCount: 2
Fore
SplineSet
1289 1873 m 1,0,-1
 943 1583 l 1,1,-1
 802 1583 l 1,2,-1
 1063 1873 l 1,3,-1
 1289 1873 l 1,0,-1
368 1469 m 1,4,-1
 1439 1469 l 1,5,-1
 1390 1287 l 1,6,-1
 514 1287 l 1,7,-1
 396 844 l 1,8,-1
 1206 844 l 1,9,-1
 1160 672 l 1,10,-1
 350 672 l 1,11,-1
 217 177 l 1,12,-1
 1108 177 l 1,13,-1
 1061 0 l 1,14,-1
 -25 0 l 1,15,-1
 368 1469 l 1,4,-1
EndSplineSet
Substitution2: "<17016,16016> Urdu Swash lookup 75 subtable" Eacute
EndChar

StartChar: Ntilde
Encoding: 209 209 102
Width: 1479
GlyphClass: 2
Flags: W
LayerCount: 2
Fore
SplineSet
1050 1775 m 0,0,1
 1075 1763 1075 1763 1096 1756 c 128,-1,2
 1117 1749 1117 1749 1141 1749 c 0,3,4
 1185 1749 1185 1749 1214 1770.5 c 128,-1,5
 1243 1792 1243 1792 1263 1840 c 1,6,-1
 1370 1840 l 1,7,8
 1342 1777 1342 1777 1310 1734 c 128,-1,9
 1278 1691 1278 1691 1243 1664.5 c 128,-1,10
 1208 1638 1208 1638 1171 1627 c 128,-1,11
 1134 1616 1134 1616 1098 1616 c 0,12,13
 1080 1616 1080 1616 1059 1620.5 c 128,-1,14
 1038 1625 1038 1625 1017 1632 c 128,-1,15
 996 1639 996 1639 976 1647 c 128,-1,16
 956 1655 956 1655 941 1661 c 0,17,18
 898 1678 898 1678 871 1686.5 c 128,-1,19
 844 1695 844 1695 816 1695 c 0,20,21
 745 1695 745 1695 704 1602 c 1,22,-1
 605 1602 l 1,23,24
 652 1715 652 1715 720 1769.5 c 128,-1,25
 788 1824 788 1824 876 1824 c 0,26,27
 910 1824 910 1824 949 1814 c 128,-1,28
 988 1804 988 1804 1050 1775 c 0,0,1
349 1469 m 1,29,-1
 585 1469 l 1,30,-1
 1007 284 l 1,31,-1
 1324 1469 l 1,32,-1
 1515 1469 l 1,33,-1
 1122 0 l 1,34,-1
 897 0 l 1,35,-1
 465 1184 l 1,36,-1
 148 0 l 1,37,-1
 -44 0 l 1,38,-1
 349 1469 l 1,29,-1
EndSplineSet
Substitution2: "<17016,16016> Urdu Swash lookup 75 subtable" Ntilde
EndChar

StartChar: Odieresis
Encoding: 214 214 103
Width: 1593
GlyphClass: 2
Flags: W
LayerCount: 2
Fore
SplineSet
1163 1856 m 1,0,-1
 1352 1856 l 1,1,-1
 1296 1647 l 1,2,-1
 1107 1647 l 1,3,-1
 1163 1856 l 1,0,-1
833 1856 m 1,4,-1
 1022 1856 l 1,5,-1
 966 1647 l 1,6,-1
 777 1647 l 1,7,-1
 833 1856 l 1,4,-1
1308 757 m 0,8,9
 1342 885 1342 885 1335.5 990 c 128,-1,10
 1329 1095 1329 1095 1284 1171 c 128,-1,11
 1239 1247 1239 1247 1157 1288.5 c 128,-1,12
 1075 1330 1075 1330 958 1330 c 0,13,14
 847 1330 847 1330 742 1291 c 128,-1,15
 637 1252 637 1252 548 1174.5 c 128,-1,16
 459 1097 459 1097 389.5 982 c 128,-1,17
 320 867 320 867 279 714 c 0,18,19
 213 472 213 472 292 304 c 0,20,21
 370 137 370 137 646 137 c 0,22,23
 908 137 908 137 1075 325 c 0,24,25
 1160 421 1160 421 1218 527.5 c 128,-1,26
 1276 634 1276 634 1308 757 c 0,8,9
1503 1259 m 0,27,28
 1550 1161 1550 1161 1553.5 1037.5 c 128,-1,29
 1557 914 1557 914 1515 760 c 0,30,31
 1427 432 1427 432 1202 213 c 1,32,33
 937 -43 937 -43 574 -43 c 0,34,35
 235 -43 235 -43 101 181 c 1,36,37
 -14 398 -14 398 74 727 c 0,38,39
 114 874 114 874 187 1003 c 128,-1,40
 260 1132 260 1132 359 1237 c 1,41,42
 423 1298 423 1298 496.5 1348 c 128,-1,43
 570 1398 570 1398 651 1434 c 128,-1,44
 732 1470 732 1470 818.5 1489.5 c 128,-1,45
 905 1509 905 1509 994 1509 c 0,46,47
 1383 1509 1383 1509 1503 1259 c 0,27,28
EndSplineSet
Substitution2: "<17016,16016> Urdu Swash lookup 75 subtable" Odieresis
EndChar

StartChar: Udieresis
Encoding: 220 220 104
Width: 1479
GlyphClass: 2
Flags: W
LayerCount: 2
Fore
SplineSet
1105 1816 m 1,0,-1
 1294 1816 l 1,1,-1
 1238 1607 l 1,2,-1
 1049 1607 l 1,3,-1
 1105 1816 l 1,0,-1
775 1816 m 1,4,-1
 964 1816 l 1,5,-1
 908 1607 l 1,6,-1
 719 1607 l 1,7,-1
 775 1816 l 1,4,-1
567 1469 m 1,8,-1
 324 561 l 2,9,10
 269 357 269 357 331.5 247 c 128,-1,11
 394 137 394 137 568 137 c 0,12,13
 693 137 693 137 791 182.5 c 128,-1,14
 889 228 889 228 957 309 c 1,15,16
 993 355 993 355 1022.5 419 c 128,-1,17
 1052 483 1052 483 1073 561 c 2,18,-1
 1316 1469 l 1,19,-1
 1520 1469 l 1,20,-1
 1299 644 l 2,21,22
 1227 374 1227 374 1115 228 c 1,23,24
 1064 166 1064 166 1001 116.5 c 128,-1,25
 938 67 938 67 865 32.5 c 128,-1,26
 792 -2 792 -2 709.5 -20.5 c 128,-1,27
 627 -39 627 -39 537 -39 c 0,28,29
 357 -39 357 -39 248 32.5 c 128,-1,30
 139 104 139 104 104 228 c 1,31,32
 87 301 87 301 96.5 405 c 128,-1,33
 106 509 106 509 142 644 c 2,34,-1
 363 1469 l 1,35,-1
 567 1469 l 1,8,-1
EndSplineSet
Substitution2: "<17016,16016> Urdu Swash lookup 75 subtable" Udieresis
EndChar

StartChar: aacute
Encoding: 225 225 105
Width: 1139
GlyphClass: 2
Flags: W
LayerCount: 2
Fore
SplineSet
1029 1502 m 1,0,-1
 682 1211 l 1,1,-1
 541 1211 l 1,2,-1
 803 1502 l 1,3,-1
 1029 1502 l 1,0,-1
293 119 m 0,4,5
 387 119 387 119 489 163 c 0,6,7
 657 237 657 237 702 400 c 1,8,-1
 740 543 l 1,9,10
 721 533 721 533 697 524.5 c 128,-1,11
 673 516 673 516 647 509.5 c 128,-1,12
 621 503 621 503 593.5 497.5 c 128,-1,13
 566 492 566 492 540 489 c 2,14,-1
 427 475 l 2,15,16
 364 467 364 467 316.5 452.5 c 128,-1,17
 269 438 269 438 235.5 415.5 c 128,-1,18
 202 393 202 393 180.5 361 c 128,-1,19
 159 329 159 329 147 286 c 0,20,21
 137 248 137 248 144.5 217 c 128,-1,22
 152 186 152 186 172.5 164.5 c 128,-1,23
 193 143 193 143 224.5 131 c 128,-1,24
 256 119 256 119 293 119 c 0,4,5
680 650 m 2,25,26
 730 656 730 656 760 683.5 c 128,-1,27
 790 711 790 711 806 770 c 0,28,29
 818 816 818 816 810.5 849 c 128,-1,30
 803 882 803 882 776.5 903 c 128,-1,31
 750 924 750 924 705.5 934 c 128,-1,32
 661 944 661 944 600 944 c 0,33,34
 545 944 545 944 500 933 c 128,-1,35
 455 922 455 922 419 898 c 128,-1,36
 383 874 383 874 355 836 c 128,-1,37
 327 798 327 798 305 743 c 1,38,-1
 136 743 l 1,39,40
 193 943 193 943 337 1020 c 256,41,42
 481 1097 481 1097 645 1097 c 0,43,44
 738 1097 738 1097 811.5 1080 c 128,-1,45
 885 1063 885 1063 931.5 1027 c 128,-1,46
 978 991 978 991 994.5 935 c 128,-1,47
 1011 879 1011 879 990 801 c 2,48,-1
 825 185 l 2,49,50
 817 158 817 158 824.5 141 c 128,-1,51
 832 124 832 124 868 124 c 0,52,53
 893 124 893 124 929 130 c 1,54,-1
 893 -5 l 1,55,56
 871 -11 871 -11 855.5 -15 c 128,-1,57
 840 -19 840 -19 826.5 -20.5 c 128,-1,58
 813 -22 813 -22 798 -22.5 c 128,-1,59
 783 -23 783 -23 763 -23 c 0,60,61
 691 -23 691 -23 660.5 14.5 c 128,-1,62
 630 52 630 52 641 139 c 1,63,64
 568 70 568 70 451 17 c 0,65,66
 335 -36 335 -36 210 -36 c 0,67,68
 135 -36 135 -36 79 -12 c 128,-1,69
 23 12 23 12 -10 55 c 128,-1,70
 -43 98 -43 98 -52 156 c 128,-1,71
 -61 214 -61 214 -43 282 c 0,72,73
 -23 356 -23 356 16.5 414 c 128,-1,74
 56 472 56 472 111.5 513 c 128,-1,75
 167 554 167 554 236 579.5 c 128,-1,76
 305 605 305 605 383 614 c 2,77,-1
 680 650 l 2,25,26
EndSplineSet
Substitution2: "<17016,16016> Urdu Swash lookup 75 subtable" aacute
EndChar

StartChar: agrave
Encoding: 224 224 106
Width: 1139
GlyphClass: 2
Flags: W
LayerCount: 2
Fore
SplineSet
820 1211 m 1,0,-1
 680 1211 l 1,1,-1
 488 1502 l 1,2,-1
 715 1502 l 1,3,-1
 820 1211 l 1,0,-1
293 119 m 0,4,5
 387 119 387 119 489 163 c 0,6,7
 657 237 657 237 702 400 c 1,8,-1
 740 543 l 1,9,10
 721 533 721 533 697 524.5 c 128,-1,11
 673 516 673 516 647 509.5 c 128,-1,12
 621 503 621 503 593.5 497.5 c 128,-1,13
 566 492 566 492 540 489 c 2,14,-1
 427 475 l 2,15,16
 364 467 364 467 316.5 452.5 c 128,-1,17
 269 438 269 438 235.5 415.5 c 128,-1,18
 202 393 202 393 180.5 361 c 128,-1,19
 159 329 159 329 147 286 c 0,20,21
 137 248 137 248 144.5 217 c 128,-1,22
 152 186 152 186 172.5 164.5 c 128,-1,23
 193 143 193 143 224.5 131 c 128,-1,24
 256 119 256 119 293 119 c 0,4,5
680 650 m 2,25,26
 730 656 730 656 760 683.5 c 128,-1,27
 790 711 790 711 806 770 c 0,28,29
 818 816 818 816 810.5 849 c 128,-1,30
 803 882 803 882 776.5 903 c 128,-1,31
 750 924 750 924 705.5 934 c 128,-1,32
 661 944 661 944 600 944 c 0,33,34
 545 944 545 944 500 933 c 128,-1,35
 455 922 455 922 419 898 c 128,-1,36
 383 874 383 874 355 836 c 128,-1,37
 327 798 327 798 305 743 c 1,38,-1
 136 743 l 1,39,40
 193 943 193 943 337 1020 c 256,41,42
 481 1097 481 1097 645 1097 c 0,43,44
 738 1097 738 1097 811.5 1080 c 128,-1,45
 885 1063 885 1063 931.5 1027 c 128,-1,46
 978 991 978 991 994.5 935 c 128,-1,47
 1011 879 1011 879 990 801 c 2,48,-1
 825 185 l 2,49,50
 817 158 817 158 824.5 141 c 128,-1,51
 832 124 832 124 868 124 c 0,52,53
 893 124 893 124 929 130 c 1,54,-1
 893 -5 l 1,55,56
 871 -11 871 -11 855.5 -15 c 128,-1,57
 840 -19 840 -19 826.5 -20.5 c 128,-1,58
 813 -22 813 -22 798 -22.5 c 128,-1,59
 783 -23 783 -23 763 -23 c 0,60,61
 691 -23 691 -23 660.5 14.5 c 128,-1,62
 630 52 630 52 641 139 c 1,63,64
 568 70 568 70 451 17 c 0,65,66
 335 -36 335 -36 210 -36 c 0,67,68
 135 -36 135 -36 79 -12 c 128,-1,69
 23 12 23 12 -10 55 c 128,-1,70
 -43 98 -43 98 -52 156 c 128,-1,71
 -61 214 -61 214 -43 282 c 0,72,73
 -23 356 -23 356 16.5 414 c 128,-1,74
 56 472 56 472 111.5 513 c 128,-1,75
 167 554 167 554 236 579.5 c 128,-1,76
 305 605 305 605 383 614 c 2,77,-1
 680 650 l 2,25,26
EndSplineSet
Substitution2: "<17016,16016> Urdu Swash lookup 75 subtable" agrave
EndChar

StartChar: acircumflex
Encoding: 226 226 107
Width: 1139
GlyphClass: 2
Flags: W
LayerCount: 2
Fore
SplineSet
855 1502 m 1,0,-1
 982 1211 l 1,1,-1
 815 1211 l 1,2,-1
 732 1401 l 1,3,4
 685 1353 685 1353 639.5 1306 c 128,-1,5
 594 1259 594 1259 547 1211 c 1,6,-1
 381 1211 l 1,7,-1
 663 1502 l 1,8,-1
 855 1502 l 1,0,-1
293 119 m 0,9,10
 387 119 387 119 489 163 c 0,11,12
 657 237 657 237 702 400 c 1,13,-1
 740 543 l 1,14,15
 721 533 721 533 697 524.5 c 128,-1,16
 673 516 673 516 647 509.5 c 128,-1,17
 621 503 621 503 593.5 497.5 c 128,-1,18
 566 492 566 492 540 489 c 2,19,-1
 427 475 l 2,20,21
 364 467 364 467 316.5 452.5 c 128,-1,22
 269 438 269 438 235.5 415.5 c 128,-1,23
 202 393 202 393 180.5 361 c 128,-1,24
 159 329 159 329 147 286 c 0,25,26
 137 248 137 248 144.5 217 c 128,-1,27
 152 186 152 186 172.5 164.5 c 128,-1,28
 193 143 193 143 224.5 131 c 128,-1,29
 256 119 256 119 293 119 c 0,9,10
680 650 m 2,30,31
 730 656 730 656 760 683.5 c 128,-1,32
 790 711 790 711 806 770 c 0,33,34
 818 816 818 816 810.5 849 c 128,-1,35
 803 882 803 882 776.5 903 c 128,-1,36
 750 924 750 924 705.5 934 c 128,-1,37
 661 944 661 944 600 944 c 0,38,39
 545 944 545 944 500 933 c 128,-1,40
 455 922 455 922 419 898 c 128,-1,41
 383 874 383 874 355 836 c 128,-1,42
 327 798 327 798 305 743 c 1,43,-1
 136 743 l 1,44,45
 193 943 193 943 337 1020 c 256,46,47
 481 1097 481 1097 645 1097 c 0,48,49
 738 1097 738 1097 811.5 1080 c 128,-1,50
 885 1063 885 1063 931.5 1027 c 128,-1,51
 978 991 978 991 994.5 935 c 128,-1,52
 1011 879 1011 879 990 801 c 2,53,-1
 825 185 l 2,54,55
 817 158 817 158 824.5 141 c 128,-1,56
 832 124 832 124 868 124 c 0,57,58
 893 124 893 124 929 130 c 1,59,-1
 893 -5 l 1,60,61
 871 -11 871 -11 855.5 -15 c 128,-1,62
 840 -19 840 -19 826.5 -20.5 c 128,-1,63
 813 -22 813 -22 798 -22.5 c 128,-1,64
 783 -23 783 -23 763 -23 c 0,65,66
 691 -23 691 -23 660.5 14.5 c 128,-1,67
 630 52 630 52 641 139 c 1,68,69
 568 70 568 70 451 17 c 0,70,71
 335 -36 335 -36 210 -36 c 0,72,73
 135 -36 135 -36 79 -12 c 128,-1,74
 23 12 23 12 -10 55 c 128,-1,75
 -43 98 -43 98 -52 156 c 128,-1,76
 -61 214 -61 214 -43 282 c 0,77,78
 -23 356 -23 356 16.5 414 c 128,-1,79
 56 472 56 472 111.5 513 c 128,-1,80
 167 554 167 554 236 579.5 c 128,-1,81
 305 605 305 605 383 614 c 2,82,-1
 680 650 l 2,30,31
EndSplineSet
Substitution2: "<17016,16016> Urdu Swash lookup 75 subtable" acircumflex
EndChar

StartChar: adieresis
Encoding: 228 228 108
Width: 1139
GlyphClass: 2
Flags: W
LayerCount: 2
Fore
SplineSet
814 1445 m 1,0,-1
 1003 1445 l 1,1,-1
 946 1235 l 1,2,-1
 757 1235 l 1,3,-1
 814 1445 l 1,0,-1
484 1445 m 1,4,-1
 673 1445 l 1,5,-1
 616 1235 l 1,6,-1
 427 1235 l 1,7,-1
 484 1445 l 1,4,-1
293 119 m 0,8,9
 387 119 387 119 489 163 c 0,10,11
 657 237 657 237 702 400 c 1,12,-1
 740 543 l 1,13,14
 721 533 721 533 697 524.5 c 128,-1,15
 673 516 673 516 647 509.5 c 128,-1,16
 621 503 621 503 593.5 497.5 c 128,-1,17
 566 492 566 492 540 489 c 2,18,-1
 427 475 l 2,19,20
 364 467 364 467 316.5 452.5 c 128,-1,21
 269 438 269 438 235.5 415.5 c 128,-1,22
 202 393 202 393 180.5 361 c 128,-1,23
 159 329 159 329 147 286 c 0,24,25
 137 248 137 248 144.5 217 c 128,-1,26
 152 186 152 186 172.5 164.5 c 128,-1,27
 193 143 193 143 224.5 131 c 128,-1,28
 256 119 256 119 293 119 c 0,8,9
680 650 m 2,29,30
 730 656 730 656 760 683.5 c 128,-1,31
 790 711 790 711 806 770 c 0,32,33
 818 816 818 816 810.5 849 c 128,-1,34
 803 882 803 882 776.5 903 c 128,-1,35
 750 924 750 924 705.5 934 c 128,-1,36
 661 944 661 944 600 944 c 0,37,38
 545 944 545 944 500 933 c 128,-1,39
 455 922 455 922 419 898 c 128,-1,40
 383 874 383 874 355 836 c 128,-1,41
 327 798 327 798 305 743 c 1,42,-1
 136 743 l 1,43,44
 193 943 193 943 337 1020 c 256,45,46
 481 1097 481 1097 645 1097 c 0,47,48
 738 1097 738 1097 811.5 1080 c 128,-1,49
 885 1063 885 1063 931.5 1027 c 128,-1,50
 978 991 978 991 994.5 935 c 128,-1,51
 1011 879 1011 879 990 801 c 2,52,-1
 825 185 l 2,53,54
 817 158 817 158 824.5 141 c 128,-1,55
 832 124 832 124 868 124 c 0,56,57
 893 124 893 124 929 130 c 1,58,-1
 893 -5 l 1,59,60
 871 -11 871 -11 855.5 -15 c 128,-1,61
 840 -19 840 -19 826.5 -20.5 c 128,-1,62
 813 -22 813 -22 798 -22.5 c 128,-1,63
 783 -23 783 -23 763 -23 c 0,64,65
 691 -23 691 -23 660.5 14.5 c 128,-1,66
 630 52 630 52 641 139 c 1,67,68
 568 70 568 70 451 17 c 0,69,70
 335 -36 335 -36 210 -36 c 0,71,72
 135 -36 135 -36 79 -12 c 128,-1,73
 23 12 23 12 -10 55 c 128,-1,74
 -43 98 -43 98 -52 156 c 128,-1,75
 -61 214 -61 214 -43 282 c 0,76,77
 -23 356 -23 356 16.5 414 c 128,-1,78
 56 472 56 472 111.5 513 c 128,-1,79
 167 554 167 554 236 579.5 c 128,-1,80
 305 605 305 605 383 614 c 2,81,-1
 680 650 l 2,29,30
EndSplineSet
Substitution2: "<17016,16016> Urdu Swash lookup 75 subtable" adieresis
EndChar

StartChar: atilde
Encoding: 227 227 109
Width: 1139
GlyphClass: 2
Flags: W
LayerCount: 2
Fore
SplineSet
781 1403 m 0,0,1
 806 1391 806 1391 827 1384 c 128,-1,2
 848 1377 848 1377 872 1377 c 0,3,4
 917 1377 917 1377 946 1399 c 128,-1,5
 975 1421 975 1421 994 1469 c 1,6,-1
 1101 1469 l 1,7,8
 1073 1404 1073 1404 1040.5 1360 c 128,-1,9
 1008 1316 1008 1316 973 1292 c 0,10,11
 939 1269 939 1269 901.5 1256.5 c 128,-1,12
 864 1244 864 1244 829 1244 c 0,13,14
 811 1244 811 1244 790 1248.5 c 128,-1,15
 769 1253 769 1253 748 1260 c 128,-1,16
 727 1267 727 1267 707 1275 c 128,-1,17
 687 1283 687 1283 672 1289 c 0,18,19
 629 1306 629 1306 602 1314.5 c 128,-1,20
 575 1323 575 1323 547 1323 c 0,21,22
 476 1323 476 1323 435 1230 c 1,23,-1
 336 1230 l 1,24,25
 387 1345 387 1345 453 1399 c 128,-1,26
 519 1453 519 1453 608 1453 c 0,27,28
 625 1453 625 1453 642.5 1451 c 128,-1,29
 660 1449 660 1449 680.5 1443 c 128,-1,30
 701 1437 701 1437 725.5 1427.5 c 128,-1,31
 750 1418 750 1418 781 1403 c 0,0,1
293 119 m 0,32,33
 387 119 387 119 489 163 c 0,34,35
 657 237 657 237 702 400 c 1,36,-1
 740 543 l 1,37,38
 721 533 721 533 697 524.5 c 128,-1,39
 673 516 673 516 647 509.5 c 128,-1,40
 621 503 621 503 593.5 497.5 c 128,-1,41
 566 492 566 492 540 489 c 2,42,-1
 427 475 l 2,43,44
 364 467 364 467 316.5 452.5 c 128,-1,45
 269 438 269 438 235.5 415.5 c 128,-1,46
 202 393 202 393 180.5 361 c 128,-1,47
 159 329 159 329 147 286 c 0,48,49
 137 248 137 248 144.5 217 c 128,-1,50
 152 186 152 186 172.5 164.5 c 128,-1,51
 193 143 193 143 224.5 131 c 128,-1,52
 256 119 256 119 293 119 c 0,32,33
680 650 m 2,53,54
 730 656 730 656 760 683.5 c 128,-1,55
 790 711 790 711 806 770 c 0,56,57
 818 816 818 816 810.5 849 c 128,-1,58
 803 882 803 882 776.5 903 c 128,-1,59
 750 924 750 924 705.5 934 c 128,-1,60
 661 944 661 944 600 944 c 0,61,62
 545 944 545 944 500 933 c 128,-1,63
 455 922 455 922 419 898 c 128,-1,64
 383 874 383 874 355 836 c 128,-1,65
 327 798 327 798 305 743 c 1,66,-1
 136 743 l 1,67,68
 193 943 193 943 337 1020 c 256,69,70
 481 1097 481 1097 645 1097 c 0,71,72
 738 1097 738 1097 811.5 1080 c 128,-1,73
 885 1063 885 1063 931.5 1027 c 128,-1,74
 978 991 978 991 994.5 935 c 128,-1,75
 1011 879 1011 879 990 801 c 2,76,-1
 825 185 l 2,77,78
 817 158 817 158 824.5 141 c 128,-1,79
 832 124 832 124 868 124 c 0,80,81
 893 124 893 124 929 130 c 1,82,-1
 893 -5 l 1,83,84
 871 -11 871 -11 855.5 -15 c 128,-1,85
 840 -19 840 -19 826.5 -20.5 c 128,-1,86
 813 -22 813 -22 798 -22.5 c 128,-1,87
 783 -23 783 -23 763 -23 c 0,88,89
 691 -23 691 -23 660.5 14.5 c 128,-1,90
 630 52 630 52 641 139 c 1,91,92
 568 70 568 70 451 17 c 0,93,94
 335 -36 335 -36 210 -36 c 0,95,96
 135 -36 135 -36 79 -12 c 128,-1,97
 23 12 23 12 -10 55 c 128,-1,98
 -43 98 -43 98 -52 156 c 128,-1,99
 -61 214 -61 214 -43 282 c 0,100,101
 -23 356 -23 356 16.5 414 c 128,-1,102
 56 472 56 472 111.5 513 c 128,-1,103
 167 554 167 554 236 579.5 c 128,-1,104
 305 605 305 605 383 614 c 2,105,-1
 680 650 l 2,53,54
EndSplineSet
Substitution2: "<17016,16016> Urdu Swash lookup 75 subtable" atilde
EndChar

StartChar: aring
Encoding: 229 229 110
Width: 1139
GlyphClass: 2
Flags: W
LayerCount: 2
Fore
SplineSet
701 1291 m 256,0,1
 726 1291 726 1291 751.5 1301 c 128,-1,2
 777 1311 777 1311 799 1328.5 c 128,-1,3
 821 1346 821 1346 837 1368.5 c 128,-1,4
 853 1391 853 1391 860 1416 c 256,5,6
 867 1441 867 1441 863 1463.5 c 128,-1,7
 859 1486 859 1486 846 1503.5 c 128,-1,8
 833 1521 833 1521 813 1531 c 128,-1,9
 793 1541 793 1541 768 1541 c 256,10,11
 743 1541 743 1541 718 1531 c 128,-1,12
 693 1521 693 1521 671.5 1503.5 c 128,-1,13
 650 1486 650 1486 634 1463.5 c 128,-1,14
 618 1441 618 1441 611 1416 c 256,15,16
 604 1391 604 1391 608 1368.5 c 128,-1,17
 612 1346 612 1346 624.5 1328.5 c 128,-1,18
 637 1311 637 1311 656.5 1301 c 128,-1,19
 676 1291 676 1291 701 1291 c 256,0,1
791 1626 m 256,20,21
 834 1626 834 1626 867.5 1609 c 128,-1,22
 901 1592 901 1592 922 1563.5 c 128,-1,23
 943 1535 943 1535 949.5 1497 c 128,-1,24
 956 1459 956 1459 945 1416 c 0,25,26
 933 1373 933 1373 906.5 1334.5 c 128,-1,27
 880 1296 880 1296 843.5 1267.5 c 128,-1,28
 807 1239 807 1239 764.5 1222.5 c 128,-1,29
 722 1206 722 1206 679 1206 c 256,30,31
 636 1206 636 1206 602 1222.5 c 128,-1,32
 568 1239 568 1239 547.5 1267.5 c 128,-1,33
 527 1296 527 1296 520.5 1334.5 c 128,-1,34
 514 1373 514 1373 526 1416 c 256,35,36
 538 1459 538 1459 564.5 1497.5 c 128,-1,37
 591 1536 591 1536 627 1564.5 c 128,-1,38
 663 1593 663 1593 705.5 1609.5 c 128,-1,39
 748 1626 748 1626 791 1626 c 256,20,21
293 119 m 0,40,41
 387 119 387 119 489 163 c 0,42,43
 657 237 657 237 702 400 c 1,44,-1
 740 543 l 1,45,46
 721 533 721 533 697 524.5 c 128,-1,47
 673 516 673 516 647 509.5 c 128,-1,48
 621 503 621 503 593.5 497.5 c 128,-1,49
 566 492 566 492 540 489 c 2,50,-1
 427 475 l 2,51,52
 364 467 364 467 316.5 452.5 c 128,-1,53
 269 438 269 438 235.5 415.5 c 128,-1,54
 202 393 202 393 180.5 361 c 128,-1,55
 159 329 159 329 147 286 c 0,56,57
 137 248 137 248 144.5 217 c 128,-1,58
 152 186 152 186 172.5 164.5 c 128,-1,59
 193 143 193 143 224.5 131 c 128,-1,60
 256 119 256 119 293 119 c 0,40,41
680 650 m 2,61,62
 730 656 730 656 760 683.5 c 128,-1,63
 790 711 790 711 806 770 c 0,64,65
 818 816 818 816 810.5 849 c 128,-1,66
 803 882 803 882 776.5 903 c 128,-1,67
 750 924 750 924 705.5 934 c 128,-1,68
 661 944 661 944 600 944 c 0,69,70
 545 944 545 944 500 933 c 128,-1,71
 455 922 455 922 419 898 c 128,-1,72
 383 874 383 874 355 836 c 128,-1,73
 327 798 327 798 305 743 c 1,74,-1
 136 743 l 1,75,76
 193 943 193 943 337 1020 c 256,77,78
 481 1097 481 1097 645 1097 c 0,79,80
 738 1097 738 1097 811.5 1080 c 128,-1,81
 885 1063 885 1063 931.5 1027 c 128,-1,82
 978 991 978 991 994.5 935 c 128,-1,83
 1011 879 1011 879 990 801 c 2,84,-1
 825 185 l 2,85,86
 817 158 817 158 824.5 141 c 128,-1,87
 832 124 832 124 868 124 c 0,88,89
 893 124 893 124 929 130 c 1,90,-1
 893 -5 l 1,91,92
 871 -11 871 -11 855.5 -15 c 128,-1,93
 840 -19 840 -19 826.5 -20.5 c 128,-1,94
 813 -22 813 -22 798 -22.5 c 128,-1,95
 783 -23 783 -23 763 -23 c 0,96,97
 691 -23 691 -23 660.5 14.5 c 128,-1,98
 630 52 630 52 641 139 c 1,99,100
 568 70 568 70 451 17 c 0,101,102
 335 -36 335 -36 210 -36 c 0,103,104
 135 -36 135 -36 79 -12 c 128,-1,105
 23 12 23 12 -10 55 c 128,-1,106
 -43 98 -43 98 -52 156 c 128,-1,107
 -61 214 -61 214 -43 282 c 0,108,109
 -23 356 -23 356 16.5 414 c 128,-1,110
 56 472 56 472 111.5 513 c 128,-1,111
 167 554 167 554 236 579.5 c 128,-1,112
 305 605 305 605 383 614 c 2,113,-1
 680 650 l 2,61,62
EndSplineSet
Substitution2: "<17016,16016> Urdu Swash lookup 75 subtable" aring
EndChar

StartChar: ccedilla
Encoding: 231 231 111
Width: 1024
GlyphClass: 2
Flags: W
LayerCount: 2
Fore
SplineSet
790 710 m 1,0,1
 795 759 795 759 789 801 c 128,-1,2
 783 843 783 843 761 874 c 128,-1,3
 739 905 739 905 699 922.5 c 128,-1,4
 659 940 659 940 596 940 c 0,5,6
 526 940 526 940 463.5 910.5 c 128,-1,7
 401 881 401 881 348.5 825 c 128,-1,8
 296 769 296 769 255 688 c 128,-1,9
 214 607 214 607 187 504 c 0,10,11
 144 346 144 346 182 235 c 1,12,13
 221 125 221 125 366 125 c 0,14,15
 478 125 478 125 561 193 c 128,-1,16
 644 261 644 261 701 380 c 1,17,-1
 877 380 l 1,18,19
 834 273 834 273 774.5 196 c 128,-1,20
 715 119 715 119 645.5 69 c 128,-1,21
 576 19 576 19 498 -5.5 c 128,-1,22
 420 -30 420 -30 339 -31 c 1,23,24
 316 -54 316 -54 292 -78 c 128,-1,25
 268 -102 268 -102 245 -125 c 1,26,27
 277 -117 277 -117 319 -117 c 0,28,29
 390 -117 390 -117 424.5 -157.5 c 128,-1,30
 459 -198 459 -198 439 -274 c 0,31,32
 429 -311 429 -311 405.5 -345 c 128,-1,33
 382 -379 382 -379 345 -404.5 c 128,-1,34
 308 -430 308 -430 257.5 -445 c 128,-1,35
 207 -460 207 -460 144 -460 c 0,36,37
 121 -460 121 -460 101 -457.5 c 128,-1,38
 81 -455 81 -455 59.5 -450 c 128,-1,39
 38 -445 38 -445 14 -437 c 128,-1,40
 -10 -429 -10 -429 -41 -417 c 1,41,-1
 16 -335 l 1,42,43
 39 -344 39 -344 56.5 -350 c 128,-1,44
 74 -356 74 -356 88 -359.5 c 128,-1,45
 102 -363 102 -363 115 -364 c 128,-1,46
 128 -365 128 -365 142 -365 c 0,47,48
 196 -365 196 -365 232 -344 c 128,-1,49
 268 -323 268 -323 279 -280 c 0,50,51
 288 -248 288 -248 268 -225 c 128,-1,52
 248 -202 248 -202 204 -202 c 0,53,54
 181 -202 181 -202 162.5 -206 c 128,-1,55
 144 -210 144 -210 118 -219 c 1,56,-1
 93 -177 l 1,57,-1
 240 -31 l 1,58,59
 151 -31 151 -31 91 13 c 128,-1,60
 31 57 31 57 0 131.5 c 128,-1,61
 -31 206 -31 206 -33 303 c 128,-1,62
 -35 400 -35 400 -6 506 c 0,63,64
 32 648 32 648 98 759 c 128,-1,65
 164 870 164 870 249.5 946 c 128,-1,66
 335 1022 335 1022 434.5 1062 c 128,-1,67
 534 1102 534 1102 640 1102 c 0,68,69
 731 1102 731 1102 800 1081.5 c 128,-1,70
 869 1061 869 1061 912 1015 c 128,-1,71
 955 969 955 969 969.5 894 c 128,-1,72
 984 819 984 819 966 710 c 1,73,-1
 790 710 l 1,0,1
EndSplineSet
Substitution2: "<17016,16016> Urdu Swash lookup 75 subtable" ccedilla
EndChar

StartChar: eacute
Encoding: 233 233 112
Width: 1139
GlyphClass: 2
Flags: W
LayerCount: 2
Fore
SplineSet
1033 1502 m 1,0,-1
 686 1211 l 1,1,-1
 545 1211 l 1,2,-1
 807 1502 l 1,3,-1
 1033 1502 l 1,0,-1
830 622 m 1,4,5
 859 783 859 783 805.5 860 c 128,-1,6
 752 937 752 937 618 937 c 0,7,8
 557 937 557 937 498 913.5 c 128,-1,9
 439 890 439 890 388 848 c 128,-1,10
 337 806 337 806 297.5 748 c 128,-1,11
 258 690 258 690 237 622 c 1,12,-1
 830 622 l 1,4,5
1004 904 m 0,13,14
 1019 866 1019 866 1024 815.5 c 128,-1,15
 1029 765 1029 765 1025 714 c 0,16,17
 1023 677 1023 677 1011 617 c 128,-1,18
 999 557 999 557 977 477 c 1,19,-1
 193 477 l 1,20,21
 175 399 175 399 176.5 333 c 128,-1,22
 178 267 178 267 202 220 c 128,-1,23
 226 173 226 173 274 146.5 c 128,-1,24
 322 120 322 120 397 120 c 0,25,26
 451 120 451 120 502 135 c 128,-1,27
 553 150 553 150 598 178.5 c 128,-1,28
 643 207 643 207 681 247.5 c 128,-1,29
 719 288 719 288 747 338 c 1,30,-1
 925 338 l 1,31,32
 913 309 913 309 891 274.5 c 128,-1,33
 869 240 869 240 841.5 205.5 c 128,-1,34
 814 171 814 171 783.5 140 c 128,-1,35
 753 109 753 109 724 86 c 1,36,37
 644 26 644 26 546 -6 c 128,-1,38
 448 -38 448 -38 339 -38 c 0,39,40
 138 -38 138 -38 38 107 c 1,41,42
 -60 251 -60 251 9 515 c 1,43,44
 44 644 44 644 109 751 c 128,-1,45
 174 858 174 858 261 934.5 c 128,-1,46
 348 1011 348 1011 452.5 1053 c 128,-1,47
 557 1095 557 1095 671 1095 c 0,48,49
 727 1095 727 1095 780 1081 c 128,-1,50
 833 1067 833 1067 877.5 1041.5 c 128,-1,51
 922 1016 922 1016 955 981 c 128,-1,52
 988 946 988 946 1004 904 c 0,13,14
EndSplineSet
Substitution2: "<17016,16016> Urdu Swash lookup 75 subtable" eacute
EndChar

StartChar: egrave
Encoding: 232 232 113
Width: 1139
GlyphClass: 2
Flags: W
LayerCount: 2
Fore
SplineSet
824 1211 m 1,0,-1
 684 1211 l 1,1,-1
 492 1502 l 1,2,-1
 719 1502 l 1,3,-1
 824 1211 l 1,0,-1
830 622 m 1,4,5
 859 783 859 783 805.5 860 c 128,-1,6
 752 937 752 937 618 937 c 0,7,8
 557 937 557 937 498 913.5 c 128,-1,9
 439 890 439 890 388 848 c 128,-1,10
 337 806 337 806 297.5 748 c 128,-1,11
 258 690 258 690 237 622 c 1,12,-1
 830 622 l 1,4,5
1004 904 m 0,13,14
 1019 866 1019 866 1024 815.5 c 128,-1,15
 1029 765 1029 765 1025 714 c 0,16,17
 1023 677 1023 677 1011 617 c 128,-1,18
 999 557 999 557 977 477 c 1,19,-1
 193 477 l 1,20,21
 175 399 175 399 176.5 333 c 128,-1,22
 178 267 178 267 202 220 c 128,-1,23
 226 173 226 173 274 146.5 c 128,-1,24
 322 120 322 120 397 120 c 0,25,26
 451 120 451 120 502 135 c 128,-1,27
 553 150 553 150 598 178.5 c 128,-1,28
 643 207 643 207 681 247.5 c 128,-1,29
 719 288 719 288 747 338 c 1,30,-1
 925 338 l 1,31,32
 913 309 913 309 891 274.5 c 128,-1,33
 869 240 869 240 841.5 205.5 c 128,-1,34
 814 171 814 171 783.5 140 c 128,-1,35
 753 109 753 109 724 86 c 1,36,37
 644 26 644 26 546 -6 c 128,-1,38
 448 -38 448 -38 339 -38 c 0,39,40
 138 -38 138 -38 38 107 c 1,41,42
 -60 251 -60 251 9 515 c 1,43,44
 44 644 44 644 109 751 c 128,-1,45
 174 858 174 858 261 934.5 c 128,-1,46
 348 1011 348 1011 452.5 1053 c 128,-1,47
 557 1095 557 1095 671 1095 c 0,48,49
 727 1095 727 1095 780 1081 c 128,-1,50
 833 1067 833 1067 877.5 1041.5 c 128,-1,51
 922 1016 922 1016 955 981 c 128,-1,52
 988 946 988 946 1004 904 c 0,13,14
EndSplineSet
Substitution2: "<17016,16016> Urdu Swash lookup 75 subtable" egrave
EndChar

StartChar: ecircumflex
Encoding: 234 234 114
Width: 1139
GlyphClass: 2
Flags: W
LayerCount: 2
Fore
SplineSet
859 1502 m 1,0,-1
 986 1211 l 1,1,-1
 819 1211 l 1,2,-1
 736 1401 l 1,3,4
 689 1353 689 1353 643.5 1306 c 128,-1,5
 598 1259 598 1259 551 1211 c 1,6,-1
 385 1211 l 1,7,-1
 667 1502 l 1,8,-1
 859 1502 l 1,0,-1
830 622 m 1,9,10
 859 783 859 783 805.5 860 c 128,-1,11
 752 937 752 937 618 937 c 0,12,13
 557 937 557 937 498 913.5 c 128,-1,14
 439 890 439 890 388 848 c 128,-1,15
 337 806 337 806 297.5 748 c 128,-1,16
 258 690 258 690 237 622 c 1,17,-1
 830 622 l 1,9,10
1004 904 m 0,18,19
 1019 866 1019 866 1024 815.5 c 128,-1,20
 1029 765 1029 765 1025 714 c 0,21,22
 1023 677 1023 677 1011 617 c 128,-1,23
 999 557 999 557 977 477 c 1,24,-1
 193 477 l 1,25,26
 175 399 175 399 176.5 333 c 128,-1,27
 178 267 178 267 202 220 c 128,-1,28
 226 173 226 173 274 146.5 c 128,-1,29
 322 120 322 120 397 120 c 0,30,31
 451 120 451 120 502 135 c 128,-1,32
 553 150 553 150 598 178.5 c 128,-1,33
 643 207 643 207 681 247.5 c 128,-1,34
 719 288 719 288 747 338 c 1,35,-1
 925 338 l 1,36,37
 913 309 913 309 891 274.5 c 128,-1,38
 869 240 869 240 841.5 205.5 c 128,-1,39
 814 171 814 171 783.5 140 c 128,-1,40
 753 109 753 109 724 86 c 1,41,42
 644 26 644 26 546 -6 c 128,-1,43
 448 -38 448 -38 339 -38 c 0,44,45
 138 -38 138 -38 38 107 c 1,46,47
 -60 251 -60 251 9 515 c 1,48,49
 44 644 44 644 109 751 c 128,-1,50
 174 858 174 858 261 934.5 c 128,-1,51
 348 1011 348 1011 452.5 1053 c 128,-1,52
 557 1095 557 1095 671 1095 c 0,53,54
 727 1095 727 1095 780 1081 c 128,-1,55
 833 1067 833 1067 877.5 1041.5 c 128,-1,56
 922 1016 922 1016 955 981 c 128,-1,57
 988 946 988 946 1004 904 c 0,18,19
EndSplineSet
Substitution2: "<17016,16016> Urdu Swash lookup 75 subtable" ecircumflex
EndChar

StartChar: edieresis
Encoding: 235 235 115
Width: 1139
GlyphClass: 2
Flags: W
LayerCount: 2
Fore
SplineSet
818 1445 m 1,0,-1
 1007 1445 l 1,1,-1
 950 1235 l 1,2,-1
 761 1235 l 1,3,-1
 818 1445 l 1,0,-1
488 1445 m 1,4,-1
 677 1445 l 1,5,-1
 620 1235 l 1,6,-1
 431 1235 l 1,7,-1
 488 1445 l 1,4,-1
830 622 m 1,8,9
 859 783 859 783 805.5 860 c 128,-1,10
 752 937 752 937 618 937 c 0,11,12
 557 937 557 937 498 913.5 c 128,-1,13
 439 890 439 890 388 848 c 128,-1,14
 337 806 337 806 297.5 748 c 128,-1,15
 258 690 258 690 237 622 c 1,16,-1
 830 622 l 1,8,9
1004 904 m 0,17,18
 1019 866 1019 866 1024 815.5 c 128,-1,19
 1029 765 1029 765 1025 714 c 0,20,21
 1023 677 1023 677 1011 617 c 128,-1,22
 999 557 999 557 977 477 c 1,23,-1
 193 477 l 1,24,25
 175 399 175 399 176.5 333 c 128,-1,26
 178 267 178 267 202 220 c 128,-1,27
 226 173 226 173 274 146.5 c 128,-1,28
 322 120 322 120 397 120 c 0,29,30
 451 120 451 120 502 135 c 128,-1,31
 553 150 553 150 598 178.5 c 128,-1,32
 643 207 643 207 681 247.5 c 128,-1,33
 719 288 719 288 747 338 c 1,34,-1
 925 338 l 1,35,36
 913 309 913 309 891 274.5 c 128,-1,37
 869 240 869 240 841.5 205.5 c 128,-1,38
 814 171 814 171 783.5 140 c 128,-1,39
 753 109 753 109 724 86 c 1,40,41
 644 26 644 26 546 -6 c 128,-1,42
 448 -38 448 -38 339 -38 c 0,43,44
 138 -38 138 -38 38 107 c 1,45,46
 -60 251 -60 251 9 515 c 1,47,48
 44 644 44 644 109 751 c 128,-1,49
 174 858 174 858 261 934.5 c 128,-1,50
 348 1011 348 1011 452.5 1053 c 128,-1,51
 557 1095 557 1095 671 1095 c 0,52,53
 727 1095 727 1095 780 1081 c 128,-1,54
 833 1067 833 1067 877.5 1041.5 c 128,-1,55
 922 1016 922 1016 955 981 c 128,-1,56
 988 946 988 946 1004 904 c 0,17,18
EndSplineSet
Substitution2: "<17016,16016> Urdu Swash lookup 75 subtable" edieresis
EndChar

StartChar: iacute
Encoding: 237 237 116
Width: 569
GlyphClass: 2
Flags: W
LayerCount: 2
Fore
SplineSet
747 1502 m 1,0,-1
 400 1211 l 1,1,-1
 259 1211 l 1,2,-1
 521 1502 l 1,3,-1
 747 1502 l 1,0,-1
267 1067 m 1,4,-1
 452 1067 l 1,5,-1
 167 0 l 1,6,-1
 -18 0 l 1,7,-1
 267 1067 l 1,4,-1
EndSplineSet
Substitution2: "<17016,16016> Urdu Swash lookup 75 subtable" iacute
EndChar

StartChar: igrave
Encoding: 236 236 117
Width: 569
GlyphClass: 2
Flags: W
LayerCount: 2
Fore
SplineSet
533 1211 m 1,0,-1
 393 1211 l 1,1,-1
 201 1502 l 1,2,-1
 428 1502 l 1,3,-1
 533 1211 l 1,0,-1
262 1067 m 1,4,-1
 447 1067 l 1,5,-1
 162 0 l 1,6,-1
 -23 0 l 1,7,-1
 262 1067 l 1,4,-1
EndSplineSet
Substitution2: "<17016,16016> Urdu Swash lookup 75 subtable" igrave
EndChar

StartChar: icircumflex
Encoding: 238 238 118
Width: 569
GlyphClass: 2
Flags: W
LayerCount: 2
Fore
SplineSet
570 1502 m 1,0,-1
 697 1211 l 1,1,-1
 530 1211 l 1,2,-1
 447 1401 l 1,3,4
 400 1353 400 1353 354.5 1306 c 128,-1,5
 309 1259 309 1259 262 1211 c 1,6,-1
 96 1211 l 1,7,-1
 378 1502 l 1,8,-1
 570 1502 l 1,0,-1
264 1067 m 1,9,-1
 449 1067 l 1,10,-1
 164 0 l 1,11,-1
 -21 0 l 1,12,-1
 264 1067 l 1,9,-1
EndSplineSet
Substitution2: "<17016,16016> Urdu Swash lookup 75 subtable" icircumflex
EndChar

StartChar: idieresis
Encoding: 239 239 119
Width: 569
GlyphClass: 2
Flags: W
LayerCount: 2
Fore
SplineSet
532 1445 m 1,0,-1
 721 1445 l 1,1,-1
 664 1235 l 1,2,-1
 475 1235 l 1,3,-1
 532 1445 l 1,0,-1
202 1445 m 1,4,-1
 391 1445 l 1,5,-1
 334 1235 l 1,6,-1
 145 1235 l 1,7,-1
 202 1445 l 1,4,-1
267 1067 m 1,8,-1
 452 1067 l 1,9,-1
 167 0 l 1,10,-1
 -18 0 l 1,11,-1
 267 1067 l 1,8,-1
EndSplineSet
Substitution2: "<17016,16016> Urdu Swash lookup 75 subtable" idieresis
EndChar

StartChar: ntilde
Encoding: 241 241 120
Width: 1139
GlyphClass: 2
Flags: W
LayerCount: 2
Fore
SplineSet
779 1403 m 0,0,1
 804 1391 804 1391 825 1384 c 128,-1,2
 846 1377 846 1377 870 1377 c 0,3,4
 915 1377 915 1377 944 1399 c 128,-1,5
 973 1421 973 1421 992 1469 c 1,6,-1
 1099 1469 l 1,7,8
 1071 1404 1071 1404 1038.5 1360 c 128,-1,9
 1006 1316 1006 1316 971 1292 c 0,10,11
 937 1269 937 1269 899.5 1256.5 c 128,-1,12
 862 1244 862 1244 827 1244 c 0,13,14
 809 1244 809 1244 788 1248.5 c 128,-1,15
 767 1253 767 1253 746 1260 c 128,-1,16
 725 1267 725 1267 705 1275 c 128,-1,17
 685 1283 685 1283 670 1289 c 0,18,19
 627 1306 627 1306 600 1314.5 c 128,-1,20
 573 1323 573 1323 545 1323 c 0,21,22
 474 1323 474 1323 433 1230 c 1,23,-1
 334 1230 l 1,24,25
 382 1345 382 1345 450 1399 c 128,-1,26
 518 1453 518 1453 606 1453 c 0,27,28
 623 1453 623 1453 640.5 1451 c 128,-1,29
 658 1449 658 1449 678.5 1443 c 128,-1,30
 699 1437 699 1437 723.5 1427.5 c 128,-1,31
 748 1418 748 1418 779 1403 c 0,0,1
219 1072 m 1,32,-1
 391 1072 l 1,33,-1
 351 922 l 1,34,35
 401 969 401 969 449.5 1001.5 c 128,-1,36
 498 1034 498 1034 546.5 1055 c 128,-1,37
 595 1076 595 1076 644.5 1085.5 c 128,-1,38
 694 1095 694 1095 746 1095 c 0,39,40
 836 1095 836 1095 896 1072 c 128,-1,41
 956 1049 956 1049 986.5 1000 c 128,-1,42
 1017 951 1017 951 1017.5 873.5 c 128,-1,43
 1018 796 1018 796 989 687 c 2,44,-1
 805 0 l 1,45,-1
 621 0 l 1,46,-1
 801 675 l 2,47,48
 835 800 835 800 803.5 866 c 128,-1,49
 772 932 772 932 668 932 c 0,50,51
 627 932 627 932 592.5 926.5 c 128,-1,52
 558 921 558 921 526.5 908.5 c 128,-1,53
 495 896 495 896 466 877 c 128,-1,54
 437 858 437 858 407 831 c 256,55,56
 377 804 377 804 356 778.5 c 128,-1,57
 335 753 335 753 319 722.5 c 128,-1,58
 303 692 303 692 290 653.5 c 128,-1,59
 277 615 277 615 263 561 c 2,60,-1
 113 0 l 1,61,-1
 -68 0 l 1,62,-1
 219 1072 l 1,32,-1
EndSplineSet
Substitution2: "<17016,16016> Urdu Swash lookup 75 subtable" ntilde
EndChar

StartChar: oacute
Encoding: 243 243 121
Width: 1139
GlyphClass: 2
Flags: W
LayerCount: 2
Fore
SplineSet
1030 1502 m 1,0,-1
 683 1211 l 1,1,-1
 542 1211 l 1,2,-1
 804 1502 l 1,3,-1
 1030 1502 l 1,0,-1
816 553 m 0,4,5
 835 625 835 625 839 687.5 c 128,-1,6
 843 750 843 750 833 797 c 1,7,8
 812 863 812 863 755.5 903.5 c 128,-1,9
 699 944 699 944 611 944 c 0,10,11
 447 944 447 944 339 818 c 1,12,13
 230 693 230 693 182 515 c 0,14,15
 137 346 137 346 182 232 c 0,16,17
 226 118 226 118 388 118 c 0,18,19
 566 118 566 118 668 252 c 0,20,21
 772 389 772 389 816 553 c 0,4,5
1006 558 m 1,22,23
 971 430 971 430 909.5 322.5 c 128,-1,24
 848 215 848 215 765 130 c 1,25,26
 680 47 680 47 571 4 c 128,-1,27
 462 -39 462 -39 329 -39 c 0,28,29
 217 -39 217 -39 138.5 0.5 c 128,-1,30
 60 40 60 40 17.5 112 c 128,-1,31
 -25 184 -25 184 -31 286 c 128,-1,32
 -37 388 -37 388 -4 512 c 0,33,34
 32 646 32 646 96.5 755 c 128,-1,35
 161 864 161 864 247 941 c 128,-1,36
 333 1018 333 1018 437.5 1060 c 128,-1,37
 542 1102 542 1102 659 1102 c 0,38,39
 869 1102 869 1102 973 965 c 1,40,41
 1077 826 1077 826 1006 558 c 1,22,23
EndSplineSet
Substitution2: "<17016,16016> Urdu Swash lookup 75 subtable" oacute
EndChar

StartChar: ograve
Encoding: 242 242 122
Width: 1139
GlyphClass: 2
Flags: W
LayerCount: 2
Fore
SplineSet
821 1211 m 1,0,-1
 681 1211 l 1,1,-1
 489 1502 l 1,2,-1
 716 1502 l 1,3,-1
 821 1211 l 1,0,-1
816 553 m 0,4,5
 835 625 835 625 839 687.5 c 128,-1,6
 843 750 843 750 833 797 c 1,7,8
 812 863 812 863 755.5 903.5 c 128,-1,9
 699 944 699 944 611 944 c 0,10,11
 447 944 447 944 339 818 c 1,12,13
 230 693 230 693 182 515 c 0,14,15
 137 346 137 346 182 232 c 0,16,17
 226 118 226 118 388 118 c 0,18,19
 566 118 566 118 668 252 c 0,20,21
 772 389 772 389 816 553 c 0,4,5
1006 558 m 1,22,23
 971 430 971 430 909.5 322.5 c 128,-1,24
 848 215 848 215 765 130 c 1,25,26
 680 47 680 47 571 4 c 128,-1,27
 462 -39 462 -39 329 -39 c 0,28,29
 217 -39 217 -39 138.5 0.5 c 128,-1,30
 60 40 60 40 17.5 112 c 128,-1,31
 -25 184 -25 184 -31 286 c 128,-1,32
 -37 388 -37 388 -4 512 c 0,33,34
 32 646 32 646 96.5 755 c 128,-1,35
 161 864 161 864 247 941 c 128,-1,36
 333 1018 333 1018 437.5 1060 c 128,-1,37
 542 1102 542 1102 659 1102 c 0,38,39
 869 1102 869 1102 973 965 c 1,40,41
 1077 826 1077 826 1006 558 c 1,22,23
EndSplineSet
Substitution2: "<17016,16016> Urdu Swash lookup 75 subtable" ograve
EndChar

StartChar: ocircumflex
Encoding: 244 244 123
Width: 1139
GlyphClass: 2
Flags: W
LayerCount: 2
Fore
SplineSet
856 1502 m 1,0,-1
 983 1211 l 1,1,-1
 816 1211 l 1,2,-1
 733 1401 l 1,3,4
 686 1353 686 1353 640.5 1306 c 128,-1,5
 595 1259 595 1259 548 1211 c 1,6,-1
 382 1211 l 1,7,-1
 664 1502 l 1,8,-1
 856 1502 l 1,0,-1
816 553 m 0,9,10
 835 625 835 625 839 687.5 c 128,-1,11
 843 750 843 750 833 797 c 1,12,13
 812 863 812 863 755.5 903.5 c 128,-1,14
 699 944 699 944 611 944 c 0,15,16
 447 944 447 944 339 818 c 1,17,18
 230 693 230 693 182 515 c 0,19,20
 137 346 137 346 182 232 c 0,21,22
 226 118 226 118 388 118 c 0,23,24
 566 118 566 118 668 252 c 0,25,26
 772 389 772 389 816 553 c 0,9,10
1006 558 m 1,27,28
 971 430 971 430 909.5 322.5 c 128,-1,29
 848 215 848 215 765 130 c 1,30,31
 680 47 680 47 571 4 c 128,-1,32
 462 -39 462 -39 329 -39 c 0,33,34
 217 -39 217 -39 138.5 0.5 c 128,-1,35
 60 40 60 40 17.5 112 c 128,-1,36
 -25 184 -25 184 -31 286 c 128,-1,37
 -37 388 -37 388 -4 512 c 0,38,39
 32 646 32 646 96.5 755 c 128,-1,40
 161 864 161 864 247 941 c 128,-1,41
 333 1018 333 1018 437.5 1060 c 128,-1,42
 542 1102 542 1102 659 1102 c 0,43,44
 869 1102 869 1102 973 965 c 1,45,46
 1077 826 1077 826 1006 558 c 1,27,28
EndSplineSet
Substitution2: "<17016,16016> Urdu Swash lookup 75 subtable" ocircumflex
EndChar

StartChar: odieresis
Encoding: 246 246 124
Width: 1139
GlyphClass: 2
Flags: W
LayerCount: 2
Fore
SplineSet
815 1445 m 1,0,-1
 1004 1445 l 1,1,-1
 947 1235 l 1,2,-1
 758 1235 l 1,3,-1
 815 1445 l 1,0,-1
485 1445 m 1,4,-1
 674 1445 l 1,5,-1
 617 1235 l 1,6,-1
 428 1235 l 1,7,-1
 485 1445 l 1,4,-1
816 553 m 0,8,9
 835 625 835 625 839 687.5 c 128,-1,10
 843 750 843 750 833 797 c 1,11,12
 812 863 812 863 755.5 903.5 c 128,-1,13
 699 944 699 944 611 944 c 0,14,15
 447 944 447 944 339 818 c 1,16,17
 230 693 230 693 182 515 c 0,18,19
 137 346 137 346 182 232 c 0,20,21
 226 118 226 118 388 118 c 0,22,23
 566 118 566 118 668 252 c 0,24,25
 772 389 772 389 816 553 c 0,8,9
1006 558 m 1,26,27
 971 430 971 430 909.5 322.5 c 128,-1,28
 848 215 848 215 765 130 c 1,29,30
 680 47 680 47 571 4 c 128,-1,31
 462 -39 462 -39 329 -39 c 0,32,33
 217 -39 217 -39 138.5 0.5 c 128,-1,34
 60 40 60 40 17.5 112 c 128,-1,35
 -25 184 -25 184 -31 286 c 128,-1,36
 -37 388 -37 388 -4 512 c 0,37,38
 32 646 32 646 96.5 755 c 128,-1,39
 161 864 161 864 247 941 c 128,-1,40
 333 1018 333 1018 437.5 1060 c 128,-1,41
 542 1102 542 1102 659 1102 c 0,42,43
 869 1102 869 1102 973 965 c 1,44,45
 1077 826 1077 826 1006 558 c 1,26,27
EndSplineSet
Substitution2: "<17016,16016> Urdu Swash lookup 75 subtable" odieresis
EndChar

StartChar: otilde
Encoding: 245 245 125
Width: 1139
GlyphClass: 2
Flags: W
LayerCount: 2
Fore
SplineSet
782 1403 m 0,0,1
 807 1391 807 1391 828 1384 c 128,-1,2
 849 1377 849 1377 873 1377 c 0,3,4
 918 1377 918 1377 947 1399 c 128,-1,5
 976 1421 976 1421 995 1469 c 1,6,-1
 1102 1469 l 1,7,8
 1074 1404 1074 1404 1041.5 1360 c 128,-1,9
 1009 1316 1009 1316 974 1292 c 0,10,11
 940 1269 940 1269 902.5 1256.5 c 128,-1,12
 865 1244 865 1244 830 1244 c 0,13,14
 812 1244 812 1244 791 1248.5 c 128,-1,15
 770 1253 770 1253 749 1260 c 128,-1,16
 728 1267 728 1267 708 1275 c 128,-1,17
 688 1283 688 1283 673 1289 c 0,18,19
 630 1306 630 1306 603 1314.5 c 128,-1,20
 576 1323 576 1323 548 1323 c 0,21,22
 477 1323 477 1323 436 1230 c 1,23,-1
 336 1230 l 1,24,25
 386 1345 386 1345 453.5 1399 c 128,-1,26
 521 1453 521 1453 609 1453 c 0,27,28
 626 1453 626 1453 643.5 1451 c 128,-1,29
 661 1449 661 1449 681.5 1443 c 128,-1,30
 702 1437 702 1437 726.5 1427.5 c 128,-1,31
 751 1418 751 1418 782 1403 c 0,0,1
816 553 m 0,32,33
 835 625 835 625 839 687.5 c 128,-1,34
 843 750 843 750 833 797 c 1,35,36
 812 863 812 863 755.5 903.5 c 128,-1,37
 699 944 699 944 611 944 c 0,38,39
 447 944 447 944 339 818 c 1,40,41
 230 693 230 693 182 515 c 0,42,43
 137 346 137 346 182 232 c 0,44,45
 226 118 226 118 388 118 c 0,46,47
 566 118 566 118 668 252 c 0,48,49
 772 389 772 389 816 553 c 0,32,33
1006 558 m 1,50,51
 971 430 971 430 909.5 322.5 c 128,-1,52
 848 215 848 215 765 130 c 1,53,54
 680 47 680 47 571 4 c 128,-1,55
 462 -39 462 -39 329 -39 c 0,56,57
 217 -39 217 -39 138.5 0.5 c 128,-1,58
 60 40 60 40 17.5 112 c 128,-1,59
 -25 184 -25 184 -31 286 c 128,-1,60
 -37 388 -37 388 -4 512 c 0,61,62
 32 646 32 646 96.5 755 c 128,-1,63
 161 864 161 864 247 941 c 128,-1,64
 333 1018 333 1018 437.5 1060 c 128,-1,65
 542 1102 542 1102 659 1102 c 0,66,67
 869 1102 869 1102 973 965 c 1,68,69
 1077 826 1077 826 1006 558 c 1,50,51
EndSplineSet
Substitution2: "<17016,16016> Urdu Swash lookup 75 subtable" otilde
EndChar

StartChar: uacute
Encoding: 250 250 126
Width: 1139
GlyphClass: 2
Flags: W
LayerCount: 2
Fore
SplineSet
1031 1502 m 1,0,-1
 684 1211 l 1,1,-1
 543 1211 l 1,2,-1
 805 1502 l 1,3,-1
 1031 1502 l 1,0,-1
400 1072 m 1,4,-1
 209 360 l 2,5,6
 180 249 180 249 215 190.5 c 128,-1,7
 250 132 250 132 352 132 c 0,8,9
 497 132 497 132 597 231.5 c 128,-1,10
 697 331 697 331 755 545 c 2,11,-1
 896 1072 l 1,12,-1
 1077 1072 l 1,13,-1
 790 0 l 1,14,-1
 619 0 l 1,15,-1
 662 155 l 1,16,17
 584 66 584 66 485 18.5 c 128,-1,18
 386 -29 386 -29 277 -29 c 0,19,20
 -81 -29 -81 -29 20 344 c 1,21,-1
 215 1072 l 1,22,-1
 400 1072 l 1,4,-1
EndSplineSet
Substitution2: "<17016,16016> Urdu Swash lookup 75 subtable" uacute
EndChar

StartChar: ugrave
Encoding: 249 249 127
Width: 1139
GlyphClass: 2
Flags: W
LayerCount: 2
Fore
SplineSet
822 1211 m 1,0,-1
 682 1211 l 1,1,-1
 490 1502 l 1,2,-1
 717 1502 l 1,3,-1
 822 1211 l 1,0,-1
400 1072 m 1,4,-1
 209 360 l 2,5,6
 180 249 180 249 215 190.5 c 128,-1,7
 250 132 250 132 352 132 c 0,8,9
 497 132 497 132 597 231.5 c 128,-1,10
 697 331 697 331 755 545 c 2,11,-1
 896 1072 l 1,12,-1
 1077 1072 l 1,13,-1
 790 0 l 1,14,-1
 619 0 l 1,15,-1
 662 155 l 1,16,17
 584 66 584 66 485 18.5 c 128,-1,18
 386 -29 386 -29 277 -29 c 0,19,20
 -81 -29 -81 -29 20 344 c 1,21,-1
 215 1072 l 1,22,-1
 400 1072 l 1,4,-1
EndSplineSet
Substitution2: "<17016,16016> Urdu Swash lookup 75 subtable" ugrave
EndChar

StartChar: ucircumflex
Encoding: 251 251 128
Width: 1139
GlyphClass: 2
Flags: W
LayerCount: 2
Fore
SplineSet
857 1502 m 1,0,-1
 984 1211 l 1,1,-1
 817 1211 l 1,2,-1
 734 1401 l 1,3,4
 687 1353 687 1353 641.5 1306 c 128,-1,5
 596 1259 596 1259 549 1211 c 1,6,-1
 383 1211 l 1,7,-1
 665 1502 l 1,8,-1
 857 1502 l 1,0,-1
400 1072 m 1,9,-1
 209 360 l 2,10,11
 180 249 180 249 215 190.5 c 128,-1,12
 250 132 250 132 352 132 c 0,13,14
 497 132 497 132 597 231.5 c 128,-1,15
 697 331 697 331 755 545 c 2,16,-1
 896 1072 l 1,17,-1
 1077 1072 l 1,18,-1
 790 0 l 1,19,-1
 619 0 l 1,20,-1
 662 155 l 1,21,22
 584 66 584 66 485 18.5 c 128,-1,23
 386 -29 386 -29 277 -29 c 0,24,25
 -81 -29 -81 -29 20 344 c 1,26,-1
 215 1072 l 1,27,-1
 400 1072 l 1,9,-1
EndSplineSet
Substitution2: "<17016,16016> Urdu Swash lookup 75 subtable" ucircumflex
EndChar

StartChar: udieresis
Encoding: 252 252 129
Width: 1139
GlyphClass: 2
Flags: W
LayerCount: 2
Fore
SplineSet
816 1445 m 1,0,-1
 1005 1445 l 1,1,-1
 948 1235 l 1,2,-1
 759 1235 l 1,3,-1
 816 1445 l 1,0,-1
486 1445 m 1,4,-1
 675 1445 l 1,5,-1
 618 1235 l 1,6,-1
 429 1235 l 1,7,-1
 486 1445 l 1,4,-1
400 1072 m 1,8,-1
 195 360 l 1,9,10
 176 249 176 249 213 190.5 c 128,-1,11
 250 132 250 132 352 132 c 0,12,13
 497 132 497 132 597 231.5 c 128,-1,14
 697 331 697 331 755 545 c 2,15,-1
 896 1072 l 1,16,-1
 1077 1072 l 1,17,-1
 790 0 l 1,18,-1
 619 0 l 1,19,-1
 662 155 l 1,20,21
 584 66 584 66 485 18.5 c 128,-1,22
 386 -29 386 -29 277 -29 c 0,23,24
 -81 -29 -81 -29 20 344 c 1,25,-1
 215 1072 l 1,26,-1
 400 1072 l 1,8,-1
EndSplineSet
Substitution2: "<17016,16016> Urdu Swash lookup 75 subtable" udieresis
EndChar

StartChar: dagger
Encoding: 8224 8224 130
Width: 1139
GlyphClass: 2
Flags: W
LayerCount: 2
Fore
SplineSet
115 880 m 1,0,-1
 158 1039 l 1,1,-1
 543 1039 l 1,2,-1
 658 1469 l 1,3,-1
 852 1469 l 1,4,-1
 737 1039 l 1,5,-1
 1123 1039 l 1,6,-1
 1080 880 l 1,7,-1
 694 880 l 1,8,-1
 371 -328 l 1,9,-1
 177 -328 l 1,10,-1
 500 880 l 1,11,-1
 115 880 l 1,0,-1
EndSplineSet
Substitution2: "<17016,16016> Urdu Swash lookup 75 subtable" dagger
EndChar

StartChar: degree
Encoding: 176 176 131
Width: 819
GlyphClass: 2
Flags: W
LayerCount: 2
Fore
SplineSet
465 937 m 0,0,1
 503 937 503 937 541.5 952.5 c 128,-1,2
 580 968 580 968 613.5 994.5 c 128,-1,3
 647 1021 647 1021 672 1055.5 c 128,-1,4
 697 1090 697 1090 707 1129 c 0,5,6
 717 1167 717 1167 711 1201.5 c 128,-1,7
 705 1236 705 1236 686 1262 c 128,-1,8
 667 1288 667 1288 636.5 1304 c 128,-1,9
 606 1320 606 1320 567 1320 c 0,10,11
 529 1320 529 1320 490 1305 c 128,-1,12
 451 1290 451 1290 417.5 1264 c 128,-1,13
 384 1238 384 1238 358.5 1203 c 128,-1,14
 333 1168 333 1168 322 1127 c 0,15,16
 312 1089 312 1089 318.5 1054.5 c 128,-1,17
 325 1020 325 1020 344.5 994 c 128,-1,18
 364 968 364 968 395 952.5 c 128,-1,19
 426 937 426 937 465 937 c 0,0,1
818 1129 m 0,20,21
 801 1065 801 1065 761.5 1009.5 c 128,-1,22
 722 954 722 954 670 913.5 c 128,-1,23
 618 873 618 873 557 849.5 c 128,-1,24
 496 826 496 826 435 826 c 0,25,26
 369 826 369 826 319.5 851 c 128,-1,27
 270 876 270 876 241 917.5 c 128,-1,28
 212 959 212 959 203.5 1013.5 c 128,-1,29
 195 1068 195 1068 211 1126 c 0,30,31
 228 1190 228 1190 267.5 1245.5 c 128,-1,32
 307 1301 307 1301 359.5 1342.5 c 128,-1,33
 412 1384 412 1384 473.5 1407.5 c 128,-1,34
 535 1431 535 1431 597 1431 c 0,35,36
 660 1431 660 1431 709 1407.5 c 128,-1,37
 758 1384 758 1384 788 1343.5 c 128,-1,38
 818 1303 818 1303 826.5 1247.5 c 128,-1,39
 835 1192 835 1192 818 1129 c 0,20,21
EndSplineSet
Substitution2: "<17016,16016> Urdu Swash lookup 75 subtable" degree
EndChar

StartChar: cent
Encoding: 162 162 132
Width: 1139
GlyphClass: 2
Flags: W
LayerCount: 2
Fore
SplineSet
212 270 m 1,0,1
 225 209 225 209 276 161 c 1,2,3
 383 355 383 355 489 546 c 128,-1,4
 595 737 595 737 702 932 c 1,5,6
 691 936 691 936 676 939 c 128,-1,7
 661 942 661 942 637 942 c 0,8,9
 575 942 575 942 512.5 912 c 128,-1,10
 450 882 450 882 395 827 c 128,-1,11
 340 772 340 772 296 695 c 128,-1,12
 252 618 252 618 227 523 c 0,13,14
 185 367 185 367 212 270 c 1,0,1
889 1275 m 1,15,-1
 974 1275 l 1,16,-1
 865 1074 l 1,17,18
 970 1024 970 1024 1012 931 c 128,-1,19
 1054 838 1054 838 1030 705 c 1,20,-1
 861 705 l 1,21,22
 864 737 864 737 862 768 c 128,-1,23
 860 799 860 799 851 826 c 128,-1,24
 842 853 842 853 824 874.5 c 128,-1,25
 806 896 806 896 776 909 c 1,26,27
 670 717 670 717 559.5 517 c 128,-1,28
 449 317 449 317 343 126 c 1,29,30
 360 120 360 120 375.5 117.5 c 128,-1,31
 391 115 391 115 420 115 c 0,32,33
 476 115 476 115 524 130 c 128,-1,34
 572 145 572 145 615.5 176.5 c 128,-1,35
 659 208 659 208 698.5 257 c 128,-1,36
 738 306 738 306 776 375 c 1,37,-1
 950 375 l 1,38,39
 913 300 913 300 871 237.5 c 128,-1,40
 829 175 829 175 780 127 c 0,41,42
 605 -43 605 -43 362 -43 c 0,43,44
 326 -43 326 -43 303.5 -39.5 c 128,-1,45
 281 -36 281 -36 257 -29 c 1,46,47
 228 -80 228 -80 198 -133 c 128,-1,48
 168 -186 168 -186 139 -237 c 1,49,-1
 52 -237 l 1,50,-1
 183 -4 l 1,51,52
 118 31 118 31 77.5 84.5 c 128,-1,53
 37 138 37 138 23 207 c 0,54,55
 -4 346 -4 346 43 521 c 0,56,57
 112 778 112 778 286 940 c 1,58,59
 463 1102 463 1102 701 1102 c 0,60,61
 722 1102 722 1102 743.5 1099.5 c 128,-1,62
 765 1097 765 1097 787 1092 c 1,63,-1
 889 1275 l 1,15,-1
EndSplineSet
Substitution2: "<17016,16016> Urdu Swash lookup 75 subtable" cent
EndChar

StartChar: sterling
Encoding: 163 163 133
Width: 1139
GlyphClass: 2
Flags: W
LayerCount: 2
Fore
SplineSet
-104 119 m 1,0,1
 -37 158 -37 158 21.5 202 c 128,-1,2
 80 246 80 246 125.5 293.5 c 128,-1,3
 171 341 171 341 202.5 393 c 128,-1,4
 234 445 234 445 249 500 c 0,5,6
 253 514 253 514 255 528.5 c 128,-1,7
 257 543 257 543 257 560 c 128,-1,8
 257 577 257 577 255.5 598.5 c 128,-1,9
 254 620 254 620 249 648 c 1,10,-1
 29 648 l 1,11,-1
 58 754 l 1,12,-1
 215 754 l 1,13,14
 214 756 214 756 208 777.5 c 128,-1,15
 202 799 202 799 196 826 c 128,-1,16
 190 853 190 853 185 878.5 c 128,-1,17
 180 904 180 904 179 914 c 0,18,19
 177 943 177 943 180.5 981 c 128,-1,20
 184 1019 184 1019 196 1064 c 0,21,22
 236 1220 236 1220 396 1343 c 0,23,24
 557 1467 557 1467 795 1467 c 0,25,26
 907 1467 907 1467 983 1435.5 c 128,-1,27
 1059 1404 1059 1404 1100 1344 c 128,-1,28
 1141 1284 1141 1284 1147 1197 c 128,-1,29
 1153 1110 1153 1110 1124 999 c 1,30,-1
 938 999 l 1,31,32
 979 1150 979 1150 929.5 1228 c 128,-1,33
 880 1306 880 1306 736 1306 c 0,34,35
 667 1306 667 1306 608.5 1286 c 128,-1,36
 550 1266 550 1266 505.5 1231.5 c 128,-1,37
 461 1197 461 1197 430.5 1152 c 128,-1,38
 400 1107 400 1107 386 1056 c 1,39,40
 373 1004 373 1004 380 949 c 0,41,42
 384 921 384 921 394.5 872 c 128,-1,43
 405 823 405 823 423 754 c 1,44,-1
 752 754 l 1,45,-1
 723 648 l 1,46,-1
 440 648 l 1,47,48
 438 608 438 608 435.5 578.5 c 128,-1,49
 433 549 433 549 426 523 c 0,50,51
 400 424 400 424 316.5 328.5 c 128,-1,52
 233 233 233 233 85 139 c 1,53,54
 160 171 160 171 229.5 190.5 c 128,-1,55
 299 210 299 210 360 210 c 0,56,57
 432 210 432 210 540 174 c 1,58,59
 651 139 651 139 687 139 c 0,60,61
 709 139 709 139 724.5 140.5 c 128,-1,62
 740 142 740 142 757 148.5 c 128,-1,63
 774 155 774 155 798 168 c 128,-1,64
 822 181 822 181 862 204 c 1,65,-1
 910 67 l 1,66,67
 868 39 868 39 831 19.5 c 128,-1,68
 794 0 794 0 760.5 -12.5 c 128,-1,69
 727 -25 727 -25 694.5 -30.5 c 128,-1,70
 662 -36 662 -36 627 -36 c 0,71,72
 566 -36 566 -36 437 10 c 0,73,74
 309 56 309 56 227 56 c 0,75,76
 194 56 194 56 167 53 c 128,-1,77
 140 50 140 50 110.5 41.5 c 128,-1,78
 81 33 81 33 45.5 17 c 128,-1,79
 10 1 10 1 -41 -25 c 1,80,-1
 -104 119 l 1,0,1
EndSplineSet
Substitution2: "<17016,16016> Urdu Swash lookup 75 subtable" sterling
EndChar

StartChar: section
Encoding: 167 167 134
Width: 1139
GlyphClass: 2
Flags: W
LayerCount: 2
Fore
SplineSet
590 218 m 1,0,1
 633 239 633 239 665 262 c 128,-1,2
 697 285 697 285 720 310.5 c 128,-1,3
 743 336 743 336 758 365 c 128,-1,4
 773 394 773 394 782 429 c 0,5,6
 803 505 803 505 765 561 c 0,7,8
 754 578 754 578 725 603 c 128,-1,9
 696 628 696 628 657 657 c 0,10,11
 596 702 596 702 535 746.5 c 128,-1,12
 474 791 474 791 413 835 c 1,13,14
 331 795 331 795 285 748.5 c 128,-1,15
 239 702 239 702 222 638 c 0,16,17
 207 579 207 579 221.5 536.5 c 128,-1,18
 236 494 236 494 280 458 c 1,19,-1
 590 218 l 1,0,1
749 1470 m 0,20,21
 990 1470 990 1470 1039 1310 c 1,22,-1
 1039 1311 l 1,23,24
 1051 1270 1051 1270 1049 1216 c 128,-1,25
 1047 1162 1047 1162 1030 1093 c 1,26,-1
 854 1093 l 1,27,28
 866 1155 866 1155 864 1197.5 c 128,-1,29
 862 1240 862 1240 845 1266 c 128,-1,30
 828 1292 828 1292 796 1303.5 c 128,-1,31
 764 1315 764 1315 717 1315 c 0,32,33
 623 1315 623 1315 562 1271 c 128,-1,34
 501 1227 501 1227 481 1153 c 1,35,36
 460 1070 460 1070 519 1017 c 0,37,38
 534 1004 534 1004 557 987 c 128,-1,39
 580 970 580 970 608.5 949.5 c 128,-1,40
 637 929 637 929 670.5 906.5 c 128,-1,41
 704 884 704 884 739 860 c 0,42,43
 879 766 879 766 937.5 665.5 c 128,-1,44
 996 565 996 565 968 461 c 0,45,46
 952 401 952 401 920 349.5 c 128,-1,47
 888 298 888 298 840 253 c 0,48,49
 814 229 814 229 769.5 197.5 c 128,-1,50
 725 166 725 166 671 133 c 1,51,52
 705 86 705 86 720 25 c 128,-1,53
 735 -36 735 -36 718 -99 c 0,54,55
 700 -166 700 -166 657 -226.5 c 128,-1,56
 614 -287 614 -287 551.5 -332.5 c 128,-1,57
 489 -378 489 -378 410 -404.5 c 128,-1,58
 331 -431 331 -431 241 -431 c 0,59,60
 125 -431 125 -431 52.5 -391.5 c 128,-1,61
 -20 -352 -20 -352 -49 -280 c 1,62,63
 -62 -239 -62 -239 -62.5 -180.5 c 128,-1,64
 -63 -122 -63 -122 -48 -46 c 1,65,-1
 131 -46 l 1,66,67
 108 -169 108 -169 142.5 -221 c 128,-1,68
 177 -273 177 -273 271 -273 c 0,69,70
 380 -273 380 -273 442.5 -232 c 128,-1,71
 505 -191 505 -191 528 -106 c 0,72,73
 538 -69 538 -69 529 -37.5 c 128,-1,74
 520 -6 520 -6 491 25 c 0,75,76
 484 33 484 33 452.5 60 c 128,-1,77
 421 87 421 87 376 124.5 c 128,-1,78
 331 162 331 162 279 204.5 c 128,-1,79
 227 247 227 247 180 284 c 0,80,81
 137 318 137 318 107.5 349 c 128,-1,82
 78 380 78 380 62 406 c 0,83,84
 36 451 36 451 29 501 c 128,-1,85
 22 551 22 551 37 607 c 0,86,87
 50 655 50 655 77 698 c 128,-1,88
 104 741 104 741 142.5 780 c 128,-1,89
 181 819 181 819 229.5 853 c 128,-1,90
 278 887 278 887 332 917 c 1,91,92
 297 966 297 966 288 1015.5 c 128,-1,93
 279 1065 279 1065 295 1125 c 0,94,95
 315 1199 315 1199 358 1262 c 128,-1,96
 401 1325 401 1325 461 1371 c 128,-1,97
 521 1417 521 1417 594.5 1443.5 c 128,-1,98
 668 1470 668 1470 749 1470 c 0,20,21
EndSplineSet
Substitution2: "<17016,16016> Urdu Swash lookup 75 subtable" section
EndChar

StartChar: bullet
Encoding: 8226 8226 135
Width: 717
GlyphClass: 2
Flags: W
LayerCount: 2
Fore
SplineSet
576 734 m 256,0,1
 563 686 563 686 535.5 645 c 128,-1,2
 508 604 508 604 470.5 574.5 c 128,-1,3
 433 545 433 545 387.5 528 c 128,-1,4
 342 511 342 511 294 511 c 256,5,6
 246 511 246 511 210 527.5 c 128,-1,7
 174 544 174 544 152 573.5 c 128,-1,8
 130 603 130 603 124.5 644 c 128,-1,9
 119 685 119 685 132 734 c 256,10,11
 145 783 145 783 172.5 823.5 c 128,-1,12
 200 864 200 864 237.5 893.5 c 128,-1,13
 275 923 275 923 320 939 c 128,-1,14
 365 955 365 955 413 955 c 256,15,16
 461 955 461 955 497.5 938.5 c 128,-1,17
 534 922 534 922 555.5 892.5 c 128,-1,18
 577 863 577 863 583 822.5 c 128,-1,19
 589 782 589 782 576 734 c 256,0,1
EndSplineSet
Substitution2: "<17016,16016> Urdu Swash lookup 75 subtable" bullet
EndChar

StartChar: paragraph
Encoding: 182 182 136
Width: 1100
GlyphClass: 2
Flags: W
LayerCount: 2
Fore
SplineSet
643 -362 m 1,0,-1
 495 -362 l 1,1,-1
 953 1351 l 1,2,-1
 724 1351 l 1,3,-1
 266 -362 l 1,4,-1
 117 -362 l 1,5,-1
 354 525 l 1,6,7
 249 527 249 527 178.5 564 c 128,-1,8
 108 601 108 601 75 673 c 0,9,10
 7 819 7 819 55 995 c 0,11,12
 84 1101 84 1101 143 1188 c 128,-1,13
 202 1275 202 1275 284.5 1337.5 c 128,-1,14
 367 1400 367 1400 468.5 1434.5 c 128,-1,15
 570 1469 570 1469 682 1469 c 2,16,-1
 1258 1469 l 1,17,-1
 1226 1351 l 1,18,-1
 1101 1351 l 1,19,-1
 643 -362 l 1,0,-1
EndSplineSet
Substitution2: "<17016,16016> Urdu Swash lookup 75 subtable" paragraph
EndChar

StartChar: germandbls
Encoding: 223 223 137
Width: 1251
GlyphClass: 2
Flags: W
LayerCount: 2
Fore
SplineSet
273 1024 m 2,0,1
 337 1262 337 1262 472 1376.5 c 128,-1,2
 607 1491 607 1491 805 1491 c 0,3,4
 909 1491 909 1491 982 1464.5 c 128,-1,5
 1055 1438 1055 1438 1096.5 1390 c 128,-1,6
 1138 1342 1138 1342 1148 1274.5 c 128,-1,7
 1158 1207 1158 1207 1136 1124 c 0,8,9
 1105 1009 1105 1009 1040.5 933.5 c 128,-1,10
 976 858 976 858 891 820 c 1,11,12
 939 807 939 807 973.5 775.5 c 128,-1,13
 1008 744 1008 744 1026 697 c 128,-1,14
 1044 650 1044 650 1045 587.5 c 128,-1,15
 1046 525 1046 525 1026 451 c 0,16,17
 974 254 974 254 824 112 c 1,18,19
 673 -29 673 -29 467 -29 c 0,20,21
 441 -29 441 -29 424 -28.5 c 128,-1,22
 407 -28 407 -28 393.5 -27 c 128,-1,23
 380 -26 380 -26 367.5 -24 c 128,-1,24
 355 -22 355 -22 338 -19 c 1,25,-1
 381 139 l 1,26,27
 404 136 404 136 423.5 134 c 128,-1,28
 443 132 443 132 469 132 c 0,29,30
 521 132 521 132 575.5 150 c 128,-1,31
 630 168 630 168 682 200 c 0,32,33
 736 233 736 233 774 294 c 128,-1,34
 812 355 812 355 835 440 c 0,35,36
 853 507 853 507 847 560 c 128,-1,37
 841 613 841 613 814 649.5 c 128,-1,38
 787 686 787 686 740.5 705 c 128,-1,39
 694 724 694 724 632 724 c 0,40,41
 614 724 614 724 591.5 722 c 128,-1,42
 569 720 569 720 545 717 c 1,43,-1
 588 880 l 1,44,45
 605 877 605 877 614.5 876 c 128,-1,46
 624 875 624 875 636 875 c 0,47,48
 779 875 779 875 855 948 c 0,49,50
 931 1022 931 1022 952 1101 c 0,51,52
 965 1151 965 1151 961 1193 c 128,-1,53
 957 1235 957 1235 935.5 1266 c 128,-1,54
 914 1297 914 1297 873.5 1314.5 c 128,-1,55
 833 1332 833 1332 773 1332 c 0,56,57
 618 1332 618 1332 537 1221 c 1,58,59
 491 1160 491 1160 454 1024 c 2,60,-1
 180 0 l 1,61,-1
 -1 0 l 1,62,-1
 273 1024 l 2,0,1
EndSplineSet
Substitution2: "<17016,16016> Urdu Swash lookup 75 subtable" germandbls
EndChar

StartChar: registered
Encoding: 174 174 138
Width: 1509
GlyphClass: 2
Flags: W
LayerCount: 2
Fore
SplineSet
679 1044 m 1,0,-1
 602 754 l 1,1,-1
 729 754 l 2,2,3
 846 754 846 754 905.5 789 c 128,-1,4
 965 824 965 824 984 897 c 0,5,6
 996 942 996 942 990.5 970.5 c 128,-1,7
 985 999 985 999 962 1015.5 c 128,-1,8
 939 1032 939 1032 898.5 1038 c 128,-1,9
 858 1044 858 1044 799 1044 c 2,10,-1
 679 1044 l 1,0,-1
844 1142 m 2,11,12
 993 1142 993 1142 1057 1113 c 1,13,14
 1168 1060 1168 1060 1128 909 c 0,15,16
 1105 824 1105 824 1045.5 775.5 c 128,-1,17
 986 727 986 727 885 711 c 1,18,19
 972 694 972 694 997 633 c 0,20,21
 1024 568 1024 568 1007 507 c 1,22,-1
 992 448 l 2,23,24
 988 434 988 434 984.5 418 c 128,-1,25
 981 402 981 402 978 388 c 128,-1,26
 975 374 975 374 973.5 363 c 128,-1,27
 972 352 972 352 973 347 c 2,28,-1
 976 336 l 1,29,-1
 841 336 l 1,30,31
 842 340 842 340 841.5 344.5 c 128,-1,32
 841 349 841 349 841 354 c 2,33,-1
 845 379 l 1,34,-1
 862 443 l 1,35,36
 900 582 900 582 836 627 c 1,37,-1
 837 627 l 1,38,39
 797 653 797 653 685 653 c 2,40,-1
 574 653 l 1,41,-1
 490 336 l 1,42,-1
 346 336 l 1,43,-1
 561 1142 l 1,44,-1
 844 1142 l 2,11,12
425 1182 m 1,45,46
 193 999 193 999 122 737 c 0,47,48
 51 474 51 474 185 289 c 0,49,50
 319 103 319 103 580 103 c 0,51,52
 843 103 843 103 1075 289 c 0,53,54
 1193 383 1193 383 1268.5 493.5 c 128,-1,55
 1344 604 1344 604 1379 737 c 0,56,57
 1450 1000 1450 1000 1314 1182 c 0,58,59
 1245 1275 1245 1275 1148.5 1321.5 c 128,-1,60
 1052 1368 1052 1368 919 1368 c 0,61,62
 658 1368 658 1368 425 1182 c 1,45,46
1130 216 m 1,63,64
 859 0 859 0 553 0 c 0,65,66
 249 0 249 0 91 216 c 0,67,68
 -65 429 -65 429 18 737 c 0,69,70
 99 1040 99 1040 372 1255 c 0,71,72
 643 1469 643 1469 946 1469 c 0,73,74
 1252 1469 1252 1469 1409 1255 c 0,75,76
 1487 1147 1487 1147 1507 1019 c 128,-1,77
 1527 891 1527 891 1485 737 c 0,78,79
 1402 430 1402 430 1130 216 c 1,63,64
EndSplineSet
Substitution2: "<17016,16016> Urdu Swash lookup 75 subtable" registered
EndChar

StartChar: copyright
Encoding: 169 169 139
Width: 1509
GlyphClass: 2
Flags: W
LayerCount: 2
Fore
SplineSet
656 310 m 0,0,1
 490 310 490 310 404 427 c 1,2,3
 320 544 320 544 372 742 c 0,4,5
 397 834 397 834 445.5 912 c 128,-1,6
 494 990 494 990 559 1048 c 128,-1,7
 624 1106 624 1106 703 1138.5 c 128,-1,8
 782 1171 782 1171 868 1171 c 0,9,10
 946 1171 946 1171 1004 1149.5 c 128,-1,11
 1062 1128 1062 1128 1097.5 1089 c 128,-1,12
 1133 1050 1133 1050 1145 994.5 c 128,-1,13
 1157 939 1157 939 1144 871 c 1,14,-1
 1021 871 l 1,15,16
 1026 908 1026 908 1019.5 941.5 c 128,-1,17
 1013 975 1013 975 992.5 1000.5 c 128,-1,18
 972 1026 972 1026 937 1041 c 128,-1,19
 902 1056 902 1056 851 1056 c 0,20,21
 707 1056 707 1056 608 927 c 0,22,23
 544 845 544 845 518 748 c 0,24,25
 500 683 500 683 501 624.5 c 128,-1,26
 502 566 502 566 523 521.5 c 128,-1,27
 544 477 544 477 586.5 451 c 128,-1,28
 629 425 629 425 693 425 c 0,29,30
 774 425 774 425 840.5 468 c 128,-1,31
 907 511 907 511 952 595 c 1,32,-1
 1074 595 l 1,33,34
 1045 527 1045 527 1001 474 c 128,-1,35
 957 421 957 421 902.5 384.5 c 128,-1,36
 848 348 848 348 785 329 c 128,-1,37
 722 310 722 310 656 310 c 0,0,1
427 1182 m 1,38,39
 196 999 196 999 125 737 c 0,40,41
 54 474 54 474 187 289 c 0,42,43
 321 103 321 103 581 103 c 0,44,45
 843 103 843 103 1075 289 c 0,46,47
 1306 474 1306 474 1377 737 c 0,48,49
 1448 999 1448 999 1313 1182 c 0,50,51
 1245 1275 1245 1275 1149 1321.5 c 128,-1,52
 1053 1368 1053 1368 920 1368 c 0,53,54
 660 1368 660 1368 427 1182 c 1,38,39
1131 216 m 1,55,56
 860 0 860 0 554 0 c 0,57,58
 249 0 249 0 91 216 c 0,59,60
 -66 432 -66 432 16 737 c 0,61,62
 98 1041 98 1041 370 1255 c 0,63,64
 641 1469 641 1469 947 1469 c 256,65,66
 1253 1469 1253 1469 1410 1255 c 0,67,68
 1488 1147 1488 1147 1508 1019 c 128,-1,69
 1528 891 1528 891 1486 737 c 0,70,71
 1403 430 1403 430 1131 216 c 1,55,56
EndSplineSet
Substitution2: "<17016,16016> Urdu Swash lookup 75 subtable" copyright
EndChar

StartChar: trademark
Encoding: 8482 8482 140
Width: 2048
GlyphClass: 2
Flags: W
LayerCount: 2
Fore
SplineSet
399 1346 m 1,0,-1
 432 1469 l 1,1,-1
 1051 1469 l 1,2,-1
 1018 1346 l 1,3,-1
 782 1346 l 1,4,-1
 621 743 l 1,5,-1
 475 743 l 1,6,-1
 636 1346 l 1,7,-1
 399 1346 l 1,0,-1
1381 1469 m 1,8,-1
 1426 953 l 1,9,10
 1507 1082 1507 1082 1588 1210.5 c 128,-1,11
 1669 1339 1669 1339 1750 1469 c 1,12,-1
 1958 1469 l 1,13,-1
 1764 743 l 1,14,-1
 1629 743 l 1,15,-1
 1784 1322 l 1,16,17
 1694 1176 1694 1176 1607 1032.5 c 128,-1,18
 1520 889 1520 889 1430 743 c 1,19,-1
 1313 743 l 1,20,-1
 1268 1322 l 1,21,-1
 1113 743 l 1,22,-1
 978 743 l 1,23,-1
 1172 1469 l 1,24,-1
 1381 1469 l 1,8,-1
EndSplineSet
Substitution2: "<17016,16016> Urdu Swash lookup 75 subtable" trademark
EndChar

StartChar: acute
Encoding: 180 180 141
Width: 682
GlyphClass: 2
Flags: W
LayerCount: 2
Fore
SplineSet
803 1502 m 1,0,-1
 456 1211 l 1,1,-1
 315 1211 l 1,2,-1
 577 1502 l 1,3,-1
 803 1502 l 1,0,-1
EndSplineSet
Substitution2: "<17016,16016> Urdu Swash lookup 75 subtable" acute
EndChar

StartChar: dieresis
Encoding: 168 168 142
Width: 682
GlyphClass: 2
Flags: W
LayerCount: 2
Fore
SplineSet
588 1445 m 1,0,-1
 777 1445 l 1,1,-1
 720 1235 l 1,2,-1
 531 1235 l 1,3,-1
 588 1445 l 1,0,-1
258 1445 m 1,4,-1
 447 1445 l 1,5,-1
 390 1235 l 1,6,-1
 201 1235 l 1,7,-1
 258 1445 l 1,4,-1
EndSplineSet
Substitution2: "<17016,16016> Urdu Swash lookup 75 subtable" dieresis
EndChar

StartChar: notequal
Encoding: 8800 8800 143
Width: 1140
GlyphClass: 2
Flags: W
LayerCount: 2
Fore
SplineSet
1111 823 m 1,0,-1
 1065 653 l 1,1,-1
 691 653 l 1,2,3
 647 590 647 590 598.5 523.5 c 128,-1,4
 550 457 550 457 506 394 c 1,5,-1
 996 394 l 1,6,-1
 950 222 l 1,7,-1
 384 222 l 1,8,9
 342 163 342 163 297 101.5 c 128,-1,10
 252 40 252 40 210 -19 c 1,11,-1
 33 -19 l 1,12,-1
 207 222 l 1,13,-1
 -93 222 l 1,14,-1
 -47 394 l 1,15,-1
 329 394 l 1,16,17
 373 457 373 457 421.5 523.5 c 128,-1,18
 470 590 470 590 514 653 c 1,19,-1
 22 653 l 1,20,-1
 68 823 l 1,21,-1
 636 823 l 1,22,23
 678 882 678 882 722 944 c 128,-1,24
 766 1006 766 1006 808 1065 c 1,25,-1
 985 1065 l 1,26,-1
 813 823 l 1,27,-1
 1111 823 l 1,0,-1
EndSplineSet
Substitution2: "<17016,16016> Urdu Swash lookup 75 subtable" notequal
EndChar

StartChar: notequal_mirror
Encoding: 59600 59600 144
Width: 1140
GlyphClass: 2
Flags: W
LayerCount: 2
Fore
SplineSet
366 823 m 1,0,1
 356 882 356 882 345 944 c 128,-1,2
 334 1006 334 1006 324 1065 c 1,3,-1
 501 1065 l 1,4,-1
 543 823 l 1,5,-1
 1111 823 l 1,6,-1
 1065 653 l 1,7,-1
 573 653 l 1,8,9
 584 590 584 590 596.5 523.5 c 128,-1,10
 609 457 609 457 620 394 c 1,11,-1
 996 394 l 1,12,-1
 950 222 l 1,13,-1
 650 222 l 1,14,15
 661 163 661 163 672 101.5 c 128,-1,16
 683 40 683 40 694 -19 c 1,17,-1
 517 -19 l 1,18,-1
 473 222 l 1,19,-1
 -93 222 l 1,20,-1
 -47 394 l 1,21,-1
 443 394 l 1,22,23
 432 457 432 457 419.5 523.5 c 128,-1,24
 407 590 407 590 396 653 c 1,25,-1
 22 653 l 1,26,-1
 68 823 l 1,27,-1
 366 823 l 1,0,1
EndSplineSet
Substitution2: "<17016,16016> Urdu Swash lookup 75 subtable" notequal_mirror
EndChar

StartChar: AE
Encoding: 198 198 145
Width: 2048
GlyphClass: 2
Flags: W
LayerCount: 2
Fore
SplineSet
885 1296 m 1,0,1
 771 1125 771 1125 656.5 951 c 128,-1,2
 542 777 542 777 428 605 c 1,3,-1
 897 605 l 1,4,-1
 1082 1296 l 1,5,-1
 885 1296 l 1,0,1
806 1469 m 1,6,-1
 2122 1469 l 1,7,-1
 2075 1292 l 1,8,-1
 1280 1292 l 1,9,-1
 1160 844 l 1,10,-1
 1889 844 l 1,11,-1
 1844 676 l 1,12,-1
 1115 676 l 1,13,-1
 981 177 l 1,14,-1
 1795 177 l 1,15,-1
 1748 0 l 1,16,-1
 735 0 l 1,17,-1
 851 435 l 1,18,-1
 313 435 l 1,19,20
 280 384 280 384 244.5 329 c 128,-1,21
 209 274 209 274 173 218 c 128,-1,22
 137 162 137 162 102 107 c 128,-1,23
 67 52 67 52 34 0 c 1,24,-1
 -184 0 l 1,25,-1
 806 1469 l 1,6,-1
EndSplineSet
Substitution2: "<17016,16016> Urdu Swash lookup 75 subtable" AE
Ligature2: "<17015,16015> Diphthong in Latin lookup 74 subtable" A E
EndChar

StartChar: Oslash
Encoding: 216 216 146
Width: 1593
GlyphClass: 2
Flags: W
LayerCount: 2
Fore
SplineSet
1172 1279 m 0,0,1
 1082 1330 1082 1330 951 1330 c 0,2,3
 728 1330 728 1330 544 1172 c 1,4,5
 359 1015 359 1015 279 714 c 0,6,7
 267 669 267 669 259.5 621 c 128,-1,8
 252 573 252 573 251 525.5 c 128,-1,9
 250 478 250 478 255.5 433.5 c 128,-1,10
 261 389 261 389 274 351 c 1,11,12
 522 560 522 560 772 772 c 128,-1,13
 1022 984 1022 984 1270 1193 c 1,14,15
 1245 1222 1245 1222 1220 1243.5 c 128,-1,16
 1195 1265 1195 1265 1172 1279 c 0,0,1
648 137 m 0,17,18
 915 137 915 137 1105 360 c 0,19,20
 1246 525 1246 525 1308 757 c 0,21,22
 1325 822 1325 822 1331.5 882 c 128,-1,23
 1338 942 1338 942 1334 996 c 0,24,25
 1332 1024 1332 1024 1324 1056.5 c 128,-1,26
 1316 1089 1316 1089 1307 1122 c 1,27,28
 1064 915 1064 915 811.5 701 c 128,-1,29
 559 487 559 487 315 280 c 1,30,31
 362 213 362 213 433 174 c 1,32,33
 504 137 504 137 648 137 c 0,17,18
-77 -37 m 1,34,-1
 -128 27 l 1,35,-1
 95 207 l 1,36,37
 71 260 71 260 57.5 321 c 128,-1,38
 44 382 44 382 41.5 448.5 c 128,-1,39
 39 515 39 515 47 585.5 c 128,-1,40
 55 656 55 656 74 727 c 0,41,42
 156 1032 156 1032 370 1247 c 0,43,44
 501 1379 501 1379 653 1444.5 c 128,-1,45
 805 1510 805 1510 985 1510 c 0,46,47
 1073 1510 1073 1510 1144.5 1498.5 c 128,-1,48
 1216 1487 1216 1487 1272.5 1465.5 c 128,-1,49
 1329 1444 1329 1444 1372 1413.5 c 128,-1,50
 1415 1383 1415 1383 1446 1345 c 1,51,52
 1494 1384 1494 1384 1545.5 1427.5 c 128,-1,53
 1597 1471 1597 1471 1644 1510 c 1,54,-1
 1693 1447 l 1,55,-1
 1490 1274 l 1,56,57
 1508 1239 1508 1239 1521.5 1195 c 128,-1,58
 1535 1151 1535 1151 1545 1097 c 1,59,60
 1566 951 1566 951 1515 760 c 0,61,62
 1418 395 1418 395 1153 174 c 1,63,64
 896 -43 896 -43 582 -43 c 0,65,66
 395 -43 395 -43 275 20 c 0,67,68
 237 40 237 40 202.5 70 c 128,-1,69
 168 100 168 100 138 136 c 1,70,-1
 -77 -37 l 1,34,-1
EndSplineSet
Substitution2: "<17016,16016> Urdu Swash lookup 75 subtable" Oslash
EndChar

StartChar: infinity
Encoding: 8734 8734 147
Width: 1460
GlyphClass: 2
Flags: W
LayerCount: 2
Fore
SplineSet
1118 963 m 0,0,1
 1028 963 1028 963 927 865 c 1,2,3
 828 767 828 767 820 737 c 0,4,5
 816 722 816 722 825.5 687 c 128,-1,6
 835 652 835 652 858 601 c 0,7,8
 880 552 880 552 916 525.5 c 128,-1,9
 952 499 952 499 994 498 c 1,10,11
 1038 498 1038 498 1079 516.5 c 128,-1,12
 1120 535 1120 535 1154 567.5 c 128,-1,13
 1188 600 1188 600 1213.5 643.5 c 128,-1,14
 1239 687 1239 687 1252 737 c 0,15,16
 1264 784 1264 784 1261.5 825 c 128,-1,17
 1259 866 1259 866 1242 897 c 128,-1,18
 1225 928 1225 928 1194 945.5 c 128,-1,19
 1163 963 1163 963 1118 963 c 0,0,1
329 494 m 0,20,21
 374 494 374 494 425 522.5 c 128,-1,22
 476 551 476 551 529 603 c 0,23,24
 583 657 583 657 613.5 694.5 c 128,-1,25
 644 732 644 732 647 746 c 0,26,27
 653 768 653 768 593 867 c 256,28,29
 533 966 533 966 446 966 c 0,30,31
 409 966 409 966 372 948 c 128,-1,32
 335 930 335 930 302.5 898 c 128,-1,33
 270 866 270 866 244 822 c 128,-1,34
 218 778 218 778 204 725 c 0,35,36
 189 669 189 669 193.5 626 c 128,-1,37
 198 583 198 583 216.5 553.5 c 128,-1,38
 235 524 235 524 264.5 509 c 128,-1,39
 294 494 294 494 329 494 c 0,20,21
671 560 m 1,40,41
 620 502 620 502 572.5 460.5 c 128,-1,42
 525 419 525 419 478.5 392.5 c 128,-1,43
 432 366 432 366 384.5 354 c 128,-1,44
 337 342 337 342 287 342 c 0,45,46
 211 342 211 342 155 371 c 128,-1,47
 99 400 99 400 67.5 452 c 128,-1,48
 36 504 36 504 30 576 c 128,-1,49
 24 648 24 648 47 734 c 0,50,51
 68 813 68 813 111 884 c 128,-1,52
 154 955 154 955 212.5 1008.5 c 128,-1,53
 271 1062 271 1062 342.5 1093.5 c 128,-1,54
 414 1125 414 1125 493 1125 c 0,55,56
 594 1125 594 1125 658 1065 c 128,-1,57
 722 1005 722 1005 755 871 c 1,58,59
 804 930 804 930 847.5 974 c 128,-1,60
 891 1018 891 1018 927 1044 c 0,61,62
 983 1084 983 1084 1045.5 1105.5 c 128,-1,63
 1108 1127 1108 1127 1173 1127 c 0,64,65
 1333 1127 1333 1127 1390 1009 c 0,66,67
 1447 890 1447 890 1406 737 c 0,68,69
 1385 659 1385 659 1343.5 589 c 128,-1,70
 1302 519 1302 519 1244 460 c 0,71,72
 1185 401 1185 401 1115.5 372 c 128,-1,73
 1046 343 1046 343 969 342 c 1,74,75
 848 342 848 342 783 418 c 1,76,77
 754 450 754 450 734 494.5 c 128,-1,78
 714 539 714 539 700 595 c 1,79,-1
 671 560 l 1,40,41
EndSplineSet
Substitution2: "<17016,16016> Urdu Swash lookup 75 subtable" infinity
EndChar

StartChar: plusminus
Encoding: 177 177 148
Width: 1140
GlyphClass: 2
Flags: W
LayerCount: 2
Fore
SplineSet
934 163 m 1,0,-1
 891 0 l 1,1,-1
 -152 0 l 1,2,-1
 -109 163 l 1,3,-1
 934 163 l 1,0,-1
-4 556 m 1,4,-1
 39 716 l 1,5,-1
 474 716 l 1,6,-1
 563 1046 l 1,7,-1
 736 1046 l 1,8,-1
 647 716 l 1,9,-1
 1082 716 l 1,10,-1
 1039 556 l 1,11,-1
 604 556 l 1,12,-1
 520 239 l 1,13,-1
 347 239 l 1,14,-1
 431 556 l 1,15,-1
 -4 556 l 1,4,-1
EndSplineSet
Substitution2: "<17016,16016> Urdu Swash lookup 75 subtable" plusminus
EndChar

StartChar: lessequal
Encoding: 8804 8804 149
Width: 1140
GlyphClass: 2
Flags: W
LayerCount: 2
Fore
SplineSet
891 0 m 1,0,-1
 -152 0 l 1,1,-1
 -109 163 l 1,2,-1
 934 163 l 1,3,-1
 891 0 l 1,0,-1
1176 1065 m 1,4,-1
 1127 883 l 1,5,-1
 233 628 l 1,6,7
 423 563 423 563 612 499 c 128,-1,8
 801 435 801 435 990 370 c 1,9,-1
 941 189 l 1,10,-1
 -8 541 l 1,11,-1
 38 712 l 1,12,-1
 1176 1065 l 1,4,-1
EndSplineSet
Substitution2: "<17016,16016> Urdu Swash lookup 75 subtable" lessequal
EndChar

StartChar: greaterequal
Encoding: 8805 8805 150
Width: 1140
GlyphClass: 2
Flags: W
LayerCount: 2
Fore
SplineSet
934 163 m 1,0,-1
 891 0 l 1,1,-1
 -152 0 l 1,2,-1
 -109 163 l 1,3,-1
 934 163 l 1,0,-1
133 1065 m 1,4,-1
 1081 712 l 1,5,-1
 1035 541 l 1,6,-1
 -102 189 l 1,7,-1
 -53 370 l 1,8,-1
 843 628 l 1,9,10
 653 692 653 692 463 755.5 c 128,-1,11
 273 819 273 819 84 883 c 1,12,-1
 133 1065 l 1,4,-1
EndSplineSet
Substitution2: "<17016,16016> Urdu Swash lookup 75 subtable" greaterequal
EndChar

StartChar: yen
Encoding: 165 165 151
Width: 1139
GlyphClass: 2
Flags: W
LayerCount: 2
Fore
SplineSet
369 1405 m 1,0,-1
 553 732 l 1,1,2
 690 901 690 901 826 1068.5 c 128,-1,3
 962 1236 962 1236 1099 1405 c 1,4,-1
 1324 1405 l 1,5,-1
 941 961 l 1,6,-1
 1114 961 l 1,7,-1
 1077 823 l 1,8,-1
 825 823 l 1,9,10
 780 771 780 771 732 715 c 128,-1,11
 684 659 684 659 639 607 c 1,12,-1
 986 607 l 1,13,-1
 949 470 l 1,14,-1
 577 470 l 1,15,-1
 452 0 l 1,16,-1
 261 0 l 1,17,-1
 386 470 l 1,18,-1
 24 470 l 1,19,-1
 61 607 l 1,20,-1
 398 607 l 1,21,-1
 329 823 l 1,22,-1
 72 823 l 1,23,-1
 109 961 l 1,24,-1
 287 961 l 1,25,26
 252 1072 252 1072 215.5 1182.5 c 128,-1,27
 179 1293 179 1293 144 1405 c 1,28,-1
 369 1405 l 1,0,-1
EndSplineSet
Substitution2: "<17016,16016> Urdu Swash lookup 75 subtable" yen
EndChar

StartChar: mu
Encoding: 181 181 152
Width: 1180
GlyphClass: 2
Flags: W
LayerCount: 2
Fore
SplineSet
541 1070 m 1,0,-1
 175 313 l 2,1,2
 167 296 167 296 162 283.5 c 128,-1,3
 157 271 157 271 153 256 c 0,4,5
 136 191 136 191 165 160.5 c 128,-1,6
 194 130 194 130 269 130 c 0,7,8
 414 130 414 130 542 236 c 0,9,10
 605 288 605 288 655 351 c 128,-1,11
 705 414 705 414 740 483 c 1,12,13
 811 629 811 629 882.5 776.5 c 128,-1,14
 954 924 954 924 1024 1070 c 1,15,-1
 1209 1070 l 1,16,-1
 693 0 l 1,17,-1
 519 0 l 1,18,-1
 606 175 l 1,19,20
 588 154 588 154 558.5 128.5 c 128,-1,21
 529 103 529 103 489 75 c 0,22,23
 338 -28 338 -28 187 -28 c 0,24,25
 166 -28 166 -28 143 -24 c 128,-1,26
 120 -20 120 -20 99 -12.5 c 128,-1,27
 78 -5 78 -5 60.5 5 c 128,-1,28
 43 15 43 15 34 26 c 1,29,30
 -20 -87 -20 -87 -73.5 -198 c 128,-1,31
 -127 -309 -127 -309 -181 -421 c 1,32,-1
 -367 -421 l 1,33,-1
 354 1070 l 1,34,-1
 541 1070 l 1,0,-1
EndSplineSet
Substitution2: "<17016,16016> Urdu Swash lookup 75 subtable" mu
EndChar

StartChar: partialdiff
Encoding: 8706 8706 153
Width: 1140
GlyphClass: 2
Flags: W
LayerCount: 2
Fore
SplineSet
351 120 m 0,0,1
 404 120 404 120 459.5 151 c 128,-1,2
 515 182 515 182 564 231.5 c 128,-1,3
 613 281 613 281 650 343 c 128,-1,4
 687 405 687 405 704 468 c 0,5,6
 720 528 720 528 715 575.5 c 128,-1,7
 710 623 710 623 689 655 c 128,-1,8
 668 687 668 687 634 704 c 128,-1,9
 600 721 600 721 558 721 c 0,10,11
 500 721 500 721 444.5 690.5 c 128,-1,12
 389 660 389 660 341.5 612 c 128,-1,13
 294 564 294 564 259.5 504.5 c 128,-1,14
 225 445 225 445 209 386 c 0,15,16
 194 329 194 329 198 280 c 128,-1,17
 202 231 202 231 222 195.5 c 128,-1,18
 242 160 242 160 275.5 140 c 128,-1,19
 309 120 309 120 351 120 c 0,0,1
581 895 m 0,20,21
 690 895 690 895 746 845 c 128,-1,22
 802 795 802 795 824 697 c 1,23,24
 837 739 837 739 848 775 c 128,-1,25
 859 811 859 811 864 831 c 0,26,27
 893 940 893 940 903 1033 c 128,-1,28
 913 1126 913 1126 904 1194 c 128,-1,29
 895 1262 895 1262 866.5 1300.5 c 128,-1,30
 838 1339 838 1339 790 1339 c 0,31,32
 755 1339 755 1339 725.5 1325 c 128,-1,33
 696 1311 696 1311 661 1286 c 1,34,-1
 572 1447 l 1,35,36
 613 1467 613 1467 644.5 1479.5 c 128,-1,37
 676 1492 676 1492 702.5 1499 c 128,-1,38
 729 1506 729 1506 754 1508.5 c 128,-1,39
 779 1511 779 1511 807 1511 c 0,40,41
 1020 1511 1020 1511 1074 1288 c 0,42,43
 1122 1090 1122 1090 1039 782 c 1,44,45
 957 472 957 472 764 237 c 0,46,47
 538 -38 538 -38 275 -38 c 0,48,49
 192 -38 192 -38 131.5 -4 c 128,-1,50
 71 30 71 30 37 88.5 c 128,-1,51
 3 147 3 147 -3 226.5 c 128,-1,52
 -9 306 -9 306 15 397 c 0,53,54
 62 575 62 575 224 735 c 0,55,56
 387 895 387 895 581 895 c 0,20,21
EndSplineSet
Substitution2: "<17016,16016> Urdu Swash lookup 75 subtable" partialdiff
EndChar

StartChar: partialdiff_mirror
Encoding: 59601 59601 154
Width: 1140
GlyphClass: 2
Flags: W
LayerCount: 2
Fore
SplineSet
452 120 m 0,0,1
 496 120 496 120 540 140 c 128,-1,2
 584 160 584 160 622.5 196 c 128,-1,3
 661 232 661 232 691 280.5 c 128,-1,4
 721 329 721 329 736 386 c 0,5,6
 769 509 769 509 724 615 c 1,7,8
 681 721 681 721 567 721 c 0,9,10
 525 721 525 721 481.5 704.5 c 128,-1,11
 438 688 438 688 400 655.5 c 128,-1,12
 362 623 362 623 331.5 576 c 128,-1,13
 301 529 301 529 285 468 c 0,14,15
 268 405 268 405 272 343 c 128,-1,16
 276 281 276 281 298.5 231.5 c 128,-1,17
 321 182 321 182 360 151 c 128,-1,18
 399 120 399 120 452 120 c 0,0,1
306 773 m 0,19,20
 302 757 302 757 297 736.5 c 128,-1,21
 292 716 292 716 287 697 c 1,22,23
 361 795 361 795 444 845 c 128,-1,24
 527 895 527 895 636 895 c 0,25,26
 831 895 831 895 907 735 c 1,27,28
 984 576 984 576 936 397 c 0,29,30
 912 306 912 306 863 226.5 c 128,-1,31
 814 147 814 147 748 88.5 c 128,-1,32
 682 30 682 30 603.5 -4 c 128,-1,33
 525 -38 525 -38 442 -38 c 0,34,35
 180 -38 180 -38 101 237 c 0,36,37
 35 470 35 470 118 782 c 1,38,39
 202 1091 202 1091 355 1288 c 0,40,41
 529 1511 529 1511 740 1511 c 0,42,43
 769 1511 769 1511 792.5 1508.5 c 128,-1,44
 816 1506 816 1506 839 1499 c 128,-1,45
 862 1492 862 1492 886.5 1479.5 c 128,-1,46
 911 1467 911 1467 941 1447 c 1,47,-1
 766 1286 l 1,48,49
 745 1311 745 1311 722.5 1325 c 128,-1,50
 700 1339 700 1339 665 1339 c 0,51,52
 618 1339 618 1339 569 1301 c 128,-1,53
 520 1263 520 1263 474.5 1195 c 128,-1,54
 429 1127 429 1127 389 1034 c 128,-1,55
 349 941 349 941 319 831 c 0,56,57
 317 821 317 821 313.5 806 c 128,-1,58
 310 791 310 791 306 773 c 0,19,20
EndSplineSet
Substitution2: "<17016,16016> Urdu Swash lookup 75 subtable" partialdiff_mirror
EndChar

StartChar: summation
Encoding: 8721 8721 155
Width: 1140
GlyphClass: 2
Flags: W
LayerCount: 2
Fore
SplineSet
-232 -130 m 1,0,-1
 601 600 l 1,1,2
 495 773 495 773 386 947.5 c 128,-1,3
 277 1122 277 1122 171 1294 c 1,4,-1
 218 1469 l 1,5,-1
 1299 1469 l 1,6,-1
 1252 1294 l 1,7,-1
 415 1294 l 1,8,9
 524 1120 524 1120 630.5 947.5 c 128,-1,10
 737 775 737 775 846 600 c 1,11,-1
 15 -125 l 1,12,-1
 903 -125 l 1,13,-1
 856 -300 l 1,14,-1
 -278 -300 l 1,15,-1
 -232 -130 l 1,0,-1
EndSplineSet
Substitution2: "<17016,16016> Urdu Swash lookup 75 subtable" summation
EndChar

StartChar: summation_mirror
Encoding: 59602 59602 156
Width: 1140
GlyphClass: 2
Flags: W
LayerCount: 2
Fore
SplineSet
856 -300 m 1,0,-1
 -278 -300 l 1,1,-1
 -231 -125 l 1,2,-1
 656 -125 l 1,3,4
 545 58 545 58 434.5 237.5 c 128,-1,5
 324 417 324 417 213 600 c 1,6,-1
 1016 1294 l 1,7,-1
 179 1294 l 1,8,-1
 226 1469 l 1,9,-1
 1307 1469 l 1,10,-1
 1260 1294 l 1,11,-1
 458 600 l 1,12,13
 567 420 567 420 680 235 c 128,-1,14
 793 50 793 50 902 -130 c 1,15,-1
 856 -300 l 1,0,-1
EndSplineSet
Substitution2: "<17016,16016> Urdu Swash lookup 75 subtable" summation_mirror
EndChar

StartChar: product
Encoding: 8719 8719 157
Width: 1686
GlyphClass: 2
Flags: W
LayerCount: 2
Fore
SplineSet
1748 1469 m 1,0,-1
 1701 1294 l 1,1,-1
 1524 1294 l 1,2,-1
 1097 -300 l 1,3,-1
 895 -300 l 1,4,-1
 1322 1294 l 1,5,-1
 656 1294 l 1,6,-1
 229 -300 l 1,7,-1
 27 -300 l 1,8,-1
 454 1294 l 1,9,-1
 277 1294 l 1,10,-1
 324 1469 l 1,11,-1
 1748 1469 l 1,0,-1
EndSplineSet
Substitution2: "<17016,16016> Urdu Swash lookup 75 subtable" product
EndChar

StartChar: pi
Encoding: 960 960 158
Width: 1124
GlyphClass: 2
Flags: W
LayerCount: 2
Fore
SplineSet
63 1066 m 1,0,-1
 1220 1066 l 1,1,-1
 1177 904 l 1,2,-1
 1030 904 l 1,3,-1
 854 249 l 2,4,5
 839 193 839 193 850 167 c 128,-1,6
 861 141 861 141 899 141 c 0,7,8
 956 141 956 141 989 151 c 1,9,-1
 946 -10 l 1,10,11
 900 -20 900 -20 793 -20 c 0,12,13
 726 -20 726 -20 697 2 c 1,14,-1
 698 2 l 1,15,16
 672 16 672 16 660 40 c 128,-1,17
 648 64 648 64 645.5 95.5 c 128,-1,18
 643 127 643 127 649.5 164 c 128,-1,19
 656 201 656 201 666 241 c 2,20,-1
 844 904 l 1,21,-1
 353 904 l 1,22,-1
 111 0 l 1,23,-1
 -74 0 l 1,24,-1
 168 904 l 1,25,-1
 20 904 l 1,26,-1
 63 1066 l 1,0,-1
EndSplineSet
Substitution2: "<17016,16016> Urdu Swash lookup 75 subtable" pi
EndChar

StartChar: integral
Encoding: 8747 8747 159
Width: 1140
GlyphClass: 2
Flags: W
LayerCount: 2
Fore
SplineSet
726 1352 m 1,0,1
 853 1545 853 1545 1054 1545 c 0,2,3
 1093 1545 1093 1545 1123 1539 c 128,-1,4
 1153 1533 1153 1533 1194 1517 c 1,5,-1
 1135 1353 l 1,6,7
 1099 1370 1099 1370 1076 1378.5 c 128,-1,8
 1053 1387 1053 1387 1028 1387 c 0,9,10
 984 1387 984 1387 949 1365.5 c 128,-1,11
 914 1344 914 1344 882 1296 c 128,-1,12
 850 1248 850 1248 819 1170.5 c 128,-1,13
 788 1093 788 1093 752 981 c 2,14,-1
 537 299 l 2,15,16
 422 -63 422 -63 298 -242 c 1,17,18
 174 -419 174 -419 -32 -419 c 0,19,20
 -73 -419 -73 -419 -100.5 -412 c 128,-1,21
 -128 -405 -128 -405 -153 -395 c 1,22,-1
 -95 -228 l 1,23,24
 -72 -241 -72 -241 -50.5 -249 c 128,-1,25
 -29 -257 -29 -257 1 -257 c 0,26,27
 44 -257 44 -257 80 -239 c 128,-1,28
 116 -221 116 -221 149 -179.5 c 128,-1,29
 182 -138 182 -138 213 -69.5 c 128,-1,30
 244 -1 244 -1 277 100 c 0,31,32
 279 107 279 107 292 147 c 128,-1,33
 305 187 305 187 325.5 248 c 128,-1,34
 346 309 346 309 370.5 385.5 c 128,-1,35
 395 462 395 462 421 541 c 128,-1,36
 447 620 447 620 472 696 c 128,-1,37
 497 772 497 772 517 833 c 128,-1,38
 537 894 537 894 550 934 c 128,-1,39
 563 974 563 974 565 981 c 0,40,41
 652 1242 652 1242 726 1352 c 1,0,1
EndSplineSet
Substitution2: "<17016,16016> Urdu Swash lookup 75 subtable" integral
EndChar

StartChar: integral_mirror
Encoding: 59603 59603 160
Width: 1140
GlyphClass: 2
Flags: W
LayerCount: 2
Fore
SplineSet
739 1352 m 0,0,1
 747 1297 747 1297 737.5 1204.5 c 128,-1,2
 728 1112 728 1112 700 981 c 2,3,-1
 516 100 l 2,4,5
 495 -1 495 -1 489.5 -69.5 c 128,-1,6
 484 -138 484 -138 494.5 -179.5 c 128,-1,7
 505 -221 505 -221 532 -239 c 128,-1,8
 559 -257 559 -257 602 -257 c 0,9,10
 632 -257 632 -257 657.5 -249 c 128,-1,11
 683 -241 683 -241 712 -228 c 1,12,-1
 682 -395 l 1,13,14
 651 -405 651 -405 619.5 -412 c 128,-1,15
 588 -419 588 -419 547 -419 c 0,16,17
 342 -419 342 -419 313 -242 c 0,18,19
 298 -153 298 -153 311 -18.5 c 128,-1,20
 324 116 324 116 364 299 c 2,21,-1
 513 981 l 2,22,23
 538 1093 538 1093 549 1170.5 c 128,-1,24
 560 1248 560 1248 554 1296 c 128,-1,25
 548 1344 548 1344 524 1365.5 c 128,-1,26
 500 1387 500 1387 455 1387 c 0,27,28
 430 1387 430 1387 402.5 1378.5 c 128,-1,29
 375 1370 375 1370 330 1353 c 1,30,-1
 359 1517 l 1,31,32
 384 1525 384 1525 404 1530.5 c 128,-1,33
 424 1536 424 1536 441.5 1539 c 128,-1,34
 459 1542 459 1542 476.5 1543.5 c 128,-1,35
 494 1545 494 1545 513 1545 c 0,36,37
 714 1545 714 1545 739 1352 c 0,0,1
EndSplineSet
Substitution2: "<17016,16016> Urdu Swash lookup 75 subtable" integral_mirror
EndChar

StartChar: ordfeminine
Encoding: 170 170 161
Width: 758
GlyphClass: 2
Flags: W
LayerCount: 2
Fore
SplineSet
606 1166 m 1,0,1
 554 1145 554 1145 438 1130 c 1,2,3
 306 1104 306 1104 285 1023 c 0,4,5
 274 982 274 982 292.5 959 c 128,-1,6
 311 936 311 936 362 936 c 0,7,8
 443 936 443 936 503.5 972.5 c 128,-1,9
 564 1009 564 1009 586 1091 c 2,10,-1
 606 1166 l 1,0,1
570 1242 m 2,11,12
 594 1245 594 1245 615 1256.5 c 128,-1,13
 636 1268 636 1268 644 1299 c 0,14,15
 658 1352 658 1352 633.5 1376.5 c 128,-1,16
 609 1401 609 1401 537 1401 c 256,17,18
 465 1401 465 1401 426.5 1372.5 c 128,-1,19
 388 1344 388 1344 370 1296 c 1,20,-1
 240 1296 l 1,21,22
 257 1347 257 1347 286 1386.5 c 128,-1,23
 315 1426 315 1426 353 1454 c 0,24,25
 430 1509 430 1509 588 1509 c 0,26,27
 719 1509 719 1509 768.5 1460 c 128,-1,28
 818 1411 818 1411 789 1302 c 2,29,-1
 705 988 l 2,30,31
 700 968 700 968 703.5 956 c 128,-1,32
 707 944 707 944 736 944 c 0,33,34
 738 944 738 944 748.5 945 c 128,-1,35
 759 946 759 946 772 946 c 1,36,-1
 743 838 l 1,37,38
 720 832 720 832 699 829 c 128,-1,39
 678 826 678 826 655 826 c 0,40,41
 603 826 603 826 585 853.5 c 128,-1,42
 567 881 567 881 573 926 c 1,43,44
 540 898 540 898 504.5 878.5 c 128,-1,45
 469 859 469 859 433.5 847.5 c 128,-1,46
 398 836 398 836 364 831 c 128,-1,47
 330 826 330 826 301 826 c 0,48,49
 245 826 245 826 207.5 842.5 c 128,-1,50
 170 859 170 859 149.5 886 c 128,-1,51
 129 913 129 913 125 948 c 128,-1,52
 121 983 121 983 131 1021 c 0,53,54
 154 1105 154 1105 223.5 1155 c 128,-1,55
 293 1205 293 1205 405 1220 c 2,56,-1
 570 1242 l 2,11,12
EndSplineSet
Substitution2: "<17016,16016> Urdu Swash lookup 75 subtable" ordfeminine
EndChar

StartChar: ordmasculine
Encoding: 186 186 162
Width: 748
GlyphClass: 2
Flags: W
LayerCount: 2
Fore
SplineSet
305 1157 m 0,0,1
 293 1115 293 1115 292.5 1076 c 128,-1,2
 292 1037 292 1037 305 1008 c 128,-1,3
 318 979 318 979 346 961.5 c 128,-1,4
 374 944 374 944 419 944 c 0,5,6
 509 944 509 944 573.5 1005 c 128,-1,7
 638 1066 638 1066 666 1171 c 0,8,9
 681 1225 681 1225 678 1266 c 128,-1,10
 675 1307 675 1307 659 1335 c 128,-1,11
 643 1363 643 1363 615.5 1377 c 128,-1,12
 588 1391 588 1391 553 1391 c 0,13,14
 465 1391 465 1391 400 1331 c 128,-1,15
 335 1271 335 1271 305 1157 c 0,0,1
815 1170 m 0,16,17
 796 1097 796 1097 758.5 1034.5 c 128,-1,18
 721 972 721 972 667.5 925.5 c 128,-1,19
 614 879 614 879 545 852.5 c 128,-1,20
 476 826 476 826 393 826 c 0,21,22
 317 826 317 826 263.5 851 c 128,-1,23
 210 876 210 876 180 920.5 c 128,-1,24
 150 965 150 965 144.5 1026.5 c 128,-1,25
 139 1088 139 1088 159 1162 c 0,26,27
 174 1219 174 1219 202 1270.5 c 128,-1,28
 230 1322 230 1322 270 1368 c 0,29,30
 395 1509 395 1509 586 1509 c 0,31,32
 657 1509 657 1509 710.5 1488 c 128,-1,33
 764 1467 764 1467 794.5 1424.5 c 128,-1,34
 825 1382 825 1382 831.5 1318.5 c 128,-1,35
 838 1255 838 1255 815 1170 c 0,16,17
EndSplineSet
Substitution2: "<17016,16016> Urdu Swash lookup 75 subtable" ordmasculine
EndChar

StartChar: Omegagreek
Encoding: 937 937 163
Width: 1593
GlyphClass: 2
Flags: W
LayerCount: 2
Fore
SplineSet
-54 174 m 1,0,-1
 291 174 l 1,1,-1
 292 176 l 1,2,3
 155 282 155 282 113.5 437.5 c 128,-1,4
 72 593 72 593 126 795 c 1,5,6
 322 1468 322 1468 994 1483 c 1,7,8
 1657 1468 1657 1468 1494 795 c 1,9,10
 1439 590 1439 590 1317 436.5 c 128,-1,11
 1195 283 1195 283 995 177 c 1,12,-1
 994 174 l 1,13,-1
 1339 174 l 1,14,-1
 1293 0 l 1,15,-1
 725 0 l 1,16,-1
 771 173 l 1,17,18
 980 274 980 274 1109 428 c 128,-1,19
 1238 582 1238 582 1294 793 c 0,20,21
 1354 1015 1354 1015 1270 1161 c 1,22,23
 1187 1308 1187 1308 947 1309 c 0,24,25
 824 1309 824 1309 722 1268 c 128,-1,26
 620 1227 620 1227 540.5 1156 c 128,-1,27
 461 1085 461 1085 405.5 989 c 128,-1,28
 350 893 350 893 320 783 c 0,29,30
 211 371 211 371 515 173 c 1,31,-1
 469 0 l 1,32,-1
 -100 0 l 1,33,-1
 -54 174 l 1,0,-1
EndSplineSet
Substitution2: "<17016,16016> Urdu Swash lookup 75 subtable" Omegagreek
EndChar

StartChar: ae
Encoding: 230 230 164
Width: 1821
GlyphClass: 2
Flags: W
LayerCount: 2
Fore
SplineSet
1507 622 m 1,0,1
 1526 701 1526 701 1518 760 c 128,-1,2
 1510 819 1510 819 1481.5 858.5 c 128,-1,3
 1453 898 1453 898 1407 918 c 128,-1,4
 1361 938 1361 938 1304 938 c 0,5,6
 1246 938 1246 938 1188.5 918.5 c 128,-1,7
 1131 899 1131 899 1079.5 859.5 c 128,-1,8
 1028 820 1028 820 986 760.5 c 128,-1,9
 944 701 944 701 917 622 c 1,10,-1
 1507 622 l 1,0,1
726 542 m 1,11,12
 713 535 713 535 701.5 529 c 128,-1,13
 690 523 690 523 675 518 c 128,-1,14
 660 513 660 513 638 508.5 c 128,-1,15
 616 504 616 504 581 498 c 2,16,-1
 423 475 l 2,17,18
 366 467 366 467 322.5 455 c 128,-1,19
 279 443 279 443 252 430 c 1,20,-1
 253 430 l 1,21,22
 162 384 162 384 136 288 c 0,23,24
 125 246 125 246 134 213.5 c 128,-1,25
 143 181 143 181 167 159.5 c 128,-1,26
 191 138 191 138 226 126.5 c 128,-1,27
 261 115 261 115 301 115 c 0,28,29
 332 115 332 115 380 128 c 128,-1,30
 428 141 428 141 479 166 c 128,-1,31
 530 191 530 191 576.5 227.5 c 128,-1,32
 623 264 623 264 650 310 c 0,33,34
 659 325 659 325 669 350 c 128,-1,35
 679 375 679 375 690 410 c 1,36,-1
 726 542 l 1,11,12
659 650 m 1,37,38
 708 658 708 658 742 687 c 128,-1,39
 776 716 776 716 790 767 c 0,40,41
 813 853 813 853 769.5 897.5 c 128,-1,42
 726 942 726 942 603 942 c 0,43,44
 505 942 505 942 435 910 c 1,45,-1
 436 910 l 1,46,47
 321 852 321 852 291 740 c 1,48,-1
 116 740 l 1,49,50
 144 830 144 830 189.5 897.5 c 128,-1,51
 235 965 235 965 300 1009 c 128,-1,52
 365 1053 365 1053 452.5 1075 c 128,-1,53
 540 1097 540 1097 652 1097 c 0,54,55
 777 1097 777 1097 855 1055.5 c 128,-1,56
 933 1014 933 1014 960 939 c 1,57,58
 1040 1016 1040 1016 1138.5 1056.5 c 128,-1,59
 1237 1097 1237 1097 1349 1097 c 0,60,61
 1430 1097 1430 1097 1499 1075.5 c 128,-1,62
 1568 1054 1568 1054 1617.5 1009.5 c 128,-1,63
 1667 965 1667 965 1692.5 896 c 128,-1,64
 1718 827 1718 827 1711 732 c 1,65,66
 1706 681 1706 681 1694 616 c 128,-1,67
 1682 551 1682 551 1662 477 c 1,68,-1
 876 477 l 1,69,70
 857 396 857 396 860.5 330 c 128,-1,71
 864 264 864 264 889.5 217.5 c 128,-1,72
 915 171 915 171 962 145.5 c 128,-1,73
 1009 120 1009 120 1078 120 c 0,74,75
 1206 120 1206 120 1289 177 c 128,-1,76
 1372 234 1372 234 1426 338 c 1,77,-1
 1610 338 l 1,78,79
 1595 298 1595 298 1565 255 c 128,-1,80
 1535 212 1535 212 1498 172.5 c 128,-1,81
 1461 133 1461 133 1420.5 99.5 c 128,-1,82
 1380 66 1380 66 1343 45 c 1,83,84
 1262 2 1262 2 1183 -17 c 128,-1,85
 1104 -36 1104 -36 1029 -36 c 0,86,87
 880 -36 880 -36 788 40 c 1,88,89
 747 78 747 78 724 115 c 128,-1,90
 701 152 701 152 696 190 c 1,91,92
 583 70 583 70 464.5 17 c 128,-1,93
 346 -36 346 -36 224 -36 c 0,94,95
 137 -36 137 -36 76 -13.5 c 128,-1,96
 15 9 15 9 -20 50 c 128,-1,97
 -55 91 -55 91 -63.5 148 c 128,-1,98
 -72 205 -72 205 -54 273 c 0,99,100
 23 563 23 563 364 612 c 1,101,-1
 659 650 l 1,37,38
EndSplineSet
Substitution2: "<17016,16016> Urdu Swash lookup 75 subtable" ae
Ligature2: "<17015,16015> Diphthong in Latin lookup 74 subtable" a e
EndChar

StartChar: oslash
Encoding: 248 248 165
Width: 1251
GlyphClass: 2
Flags: W
LayerCount: 2
Fore
SplineSet
441 118 m 0,0,1
 514 118 514 118 580 147 c 128,-1,2
 646 176 646 176 701.5 231 c 128,-1,3
 757 286 757 286 800 364 c 128,-1,4
 843 442 843 442 869 540 c 0,5,6
 879 577 879 577 885 606.5 c 128,-1,7
 891 636 891 636 893.5 663 c 128,-1,8
 896 690 896 690 895.5 717 c 128,-1,9
 895 744 895 744 891 775 c 1,10,11
 730 635 730 635 568.5 494.5 c 128,-1,12
 407 354 407 354 247 214 c 1,13,14
 281 159 281 159 332 138.5 c 128,-1,15
 383 118 383 118 441 118 c 0,0,1
670 944 m 0,16,17
 598 944 598 944 530.5 911 c 128,-1,18
 463 878 463 878 405.5 820 c 128,-1,19
 348 762 348 762 304 682.5 c 128,-1,20
 260 603 260 603 235 511 c 0,21,22
 227 481 227 481 222 455.5 c 128,-1,23
 217 430 217 430 215 404.5 c 128,-1,24
 213 379 213 379 214 349.5 c 128,-1,25
 215 320 215 320 218 282 c 1,26,27
 378 419 378 419 543.5 562 c 128,-1,28
 709 705 709 705 869 843 c 1,29,30
 860 863 860 863 841.5 881.5 c 128,-1,31
 823 900 823 900 796.5 914 c 128,-1,32
 770 928 770 928 738 936 c 128,-1,33
 706 944 706 944 670 944 c 0,16,17
-108 5 m 1,34,-1
 56 140 l 1,35,36
 27 214 27 214 24.5 306 c 128,-1,37
 22 398 22 398 56 523 c 1,38,39
 116 752 116 752 290 927 c 0,40,41
 465 1103 465 1103 706 1103 c 0,42,43
 833 1103 833 1103 915 1058 c 0,44,45
 938 1045 938 1045 966 1022 c 128,-1,46
 994 999 994 999 1020 971 c 1,47,48
 1059 1006 1059 1006 1100.5 1042 c 128,-1,49
 1142 1078 1142 1078 1181 1112 c 1,50,-1
 1222 1061 l 1,51,-1
 1055 917 l 1,52,53
 1072 872 1072 872 1081 818.5 c 128,-1,54
 1090 765 1090 765 1088 706 c 0,55,56
 1086 668 1086 668 1080 629 c 128,-1,57
 1074 590 1074 590 1063 552 c 0,58,59
 1029 425 1029 425 964.5 316.5 c 128,-1,60
 900 208 900 208 812.5 128.5 c 128,-1,61
 725 49 725 49 619 4 c 128,-1,62
 513 -41 513 -41 396 -41 c 0,63,64
 286 -41 286 -41 208.5 -8.5 c 128,-1,65
 131 24 131 24 93 79 c 1,66,67
 56 48 56 48 16 14.5 c 128,-1,68
 -24 -19 -24 -19 -62 -49 c 1,69,-1
 -108 5 l 1,34,-1
EndSplineSet
Substitution2: "<17016,16016> Urdu Swash lookup 75 subtable" oslash
EndChar

StartChar: questiondown
Encoding: 191 191 166
Width: 1251
GlyphClass: 2
Flags: W
LayerCount: 2
Fore
SplineSet
632 1076 m 1,0,-1
 833 1076 l 1,1,-1
 777 866 l 1,2,-1
 576 866 l 1,3,-1
 632 1076 l 1,0,-1
325 375 m 2,4,5
 384 420 384 420 421.5 458.5 c 128,-1,6
 459 497 459 497 478 526 c 0,7,8
 498 557 498 557 515 600.5 c 128,-1,9
 532 644 532 644 548 702 c 1,10,-1
 728 702 l 1,11,12
 686 548 686 548 637 477 c 0,13,14
 587 405 587 405 412 260 c 2,15,-1
 312 177 l 2,16,17
 246 122 246 122 215 76 c 128,-1,18
 184 30 184 30 173 -13 c 0,19,20
 160 -61 160 -61 165.5 -105 c 128,-1,21
 171 -149 171 -149 191 -184 c 1,22,23
 215 -215 215 -215 262.5 -234.5 c 128,-1,24
 310 -254 310 -254 373 -254 c 0,25,26
 523 -254 523 -254 617 -143 c 1,27,-1
 617 -144 l 1,28,29
 669 -80 669 -80 720 68 c 1,30,-1
 894 68 l 1,31,32
 860 -59 860 -59 806.5 -148.5 c 128,-1,33
 753 -238 753 -238 669 -297 c 0,34,35
 507 -412 507 -412 321 -412 c 0,36,37
 230 -412 230 -412 156 -386 c 128,-1,38
 82 -360 82 -360 34.5 -310 c 128,-1,39
 -13 -260 -13 -260 -29.5 -188 c 128,-1,40
 -46 -116 -46 -116 -21 -24 c 0,41,42
 6 76 6 76 74 154 c 0,43,44
 108 192 108 192 155 236 c 128,-1,45
 202 280 202 280 266 329 c 2,46,-1
 325 375 l 2,4,5
EndSplineSet
Substitution2: "<17016,16016> Urdu Swash lookup 75 subtable" questiondown
EndChar

StartChar: exclamdown
Encoding: 161 161 167
Width: 682
GlyphClass: 2
Flags: W
LayerCount: 2
Fore
SplineSet
318 1072 m 1,0,-1
 524 1072 l 1,1,-1
 467 861 l 1,2,-1
 261 861 l 1,3,-1
 318 1072 l 1,0,-1
54 86 m 1,4,-1
 276 721 l 1,5,-1
 379 721 l 1,6,-1
 260 86 l 1,7,-1
 130 -398 l 1,8,-1
 -76 -398 l 1,9,-1
 54 86 l 1,4,-1
EndSplineSet
Substitution2: "<17016,16016> Urdu Swash lookup 75 subtable" exclamdown
EndChar

StartChar: logicalnot
Encoding: 172 172 168
Width: 1196
GlyphClass: 2
Flags: W
LayerCount: 2
Fore
SplineSet
1139 823 m 1,0,-1
 978 222 l 1,1,-1
 809 222 l 1,2,-1
 924 653 l 1,3,-1
 50 653 l 1,4,-1
 96 823 l 1,5,-1
 1139 823 l 1,0,-1
EndSplineSet
Substitution2: "<17016,16016> Urdu Swash lookup 75 subtable" logicalnot
EndChar

StartChar: radical
Encoding: 8730 8730 169
Width: 1140
GlyphClass: 2
Flags: W
LayerCount: 2
Fore
SplineSet
293 -38 m 1,0,-1
 228 870 l 1,1,2
 175 843 175 843 117 812 c 128,-1,3
 59 781 59 781 7 754 c 1,4,-1
 -21 858 l 1,5,-1
 385 1058 l 1,6,-1
 439 229 l 1,7,8
 693 648 693 648 948 1067 c 128,-1,9
 1203 1486 1203 1486 1457 1904 c 1,10,-1
 1606 1904 l 1,11,-1
 425 -38 l 1,12,-1
 293 -38 l 1,0,-1
EndSplineSet
Substitution2: "<17016,16016> Urdu Swash lookup 75 subtable" radical
EndChar

StartChar: radical_mirror
Encoding: 59598 59598 170
Width: 1140
GlyphClass: 2
Flags: W
LayerCount: 2
Fore
SplineSet
293 -38 m 1,0,-1
 154 1904 l 1,1,-1
 303 1904 l 1,2,-1
 423 229 l 1,3,4
 548 437 548 437 672 643.5 c 128,-1,5
 796 850 796 850 921 1058 c 1,6,-1
 1219 858 l 1,7,-1
 1137 754 l 1,8,-1
 978 870 l 1,9,10
 839 641 839 641 702 416 c 128,-1,11
 565 191 565 191 425 -38 c 1,12,-1
 293 -38 l 1,0,-1
EndSplineSet
Substitution2: "<17016,16016> Urdu Swash lookup 75 subtable" radical_mirror
EndChar

StartChar: florin
Encoding: 402 402 171
Width: 1139
GlyphClass: 2
Flags: W
LayerCount: 2
Fore
SplineSet
-191 -228 m 1,0,1
 -170 -240 -170 -240 -147.5 -248.5 c 128,-1,2
 -125 -257 -125 -257 -98 -257 c 0,3,4
 1 -257 1 -257 77 -158 c 0,5,6
 101 -127 101 -127 135 -61.5 c 128,-1,7
 169 4 169 4 213 100 c 0,8,9
 292 274 292 274 373 450 c 128,-1,10
 454 626 454 626 532 800 c 1,11,-1
 306 800 l 1,12,-1
 344 944 l 1,13,-1
 598 944 l 1,14,15
 653 1059 653 1059 688 1130.5 c 128,-1,16
 723 1202 723 1202 737 1226 c 0,17,18
 777 1298 777 1298 824.5 1351 c 128,-1,19
 872 1404 872 1404 924 1438.5 c 128,-1,20
 976 1473 976 1473 1031.5 1490 c 128,-1,21
 1087 1507 1087 1507 1144 1507 c 0,22,23
 1189 1507 1189 1507 1222 1500 c 128,-1,24
 1255 1493 1255 1493 1284 1479 c 1,25,-1
 1209 1315 l 1,26,27
 1170 1334 1170 1334 1149 1341.5 c 128,-1,28
 1128 1349 1128 1349 1104 1349 c 0,29,30
 1023 1349 1023 1349 959 1270 c 0,31,32
 928 1231 928 1231 883.5 1147 c 128,-1,33
 839 1063 839 1063 785 944 c 1,34,-1
 1019 944 l 1,35,-1
 981 800 l 1,36,-1
 721 800 l 1,37,38
 694 740 694 740 665.5 676.5 c 128,-1,39
 637 613 637 613 608.5 549 c 128,-1,40
 580 485 580 485 552 422 c 128,-1,41
 524 359 524 359 497 299 c 0,42,43
 458 212 458 212 420 134.5 c 128,-1,44
 382 57 382 57 348 -7.5 c 128,-1,45
 314 -72 314 -72 284 -122.5 c 128,-1,46
 254 -173 254 -173 230 -206 c 0,47,48
 150 -311 150 -311 55.5 -365 c 128,-1,49
 -39 -419 -39 -419 -147 -419 c 0,50,51
 -192 -419 -192 -419 -218 -412 c 128,-1,52
 -244 -405 -244 -405 -265 -395 c 1,53,-1
 -191 -228 l 1,0,1
EndSplineSet
Substitution2: "<17016,16016> Urdu Swash lookup 75 subtable" florin
EndChar

StartChar: approxequal
Encoding: 8776 8776 172
Width: 1140
GlyphClass: 2
Flags: W
LayerCount: 2
Fore
SplineSet
-59 348 m 1,0,1
 -12 381 -12 381 26 403.5 c 128,-1,2
 64 426 64 426 99 440.5 c 128,-1,3
 134 455 134 455 168.5 461 c 128,-1,4
 203 467 203 467 243 467 c 0,5,6
 340 467 340 467 484 392 c 0,7,8
 556 355 556 355 610.5 339 c 128,-1,9
 665 323 665 323 700 319 c 1,10,11
 744 319 744 319 788 331.5 c 128,-1,12
 832 344 832 344 872.5 364.5 c 128,-1,13
 913 385 913 385 949 411.5 c 128,-1,14
 985 438 985 438 1015 465 c 1,15,-1
 963 270 l 1,16,17
 881 215 881 215 807.5 185.5 c 128,-1,18
 734 156 734 156 659 156 c 0,19,20
 628 156 628 156 592 163.5 c 128,-1,21
 556 171 556 171 527 180 c 0,22,23
 504 188 504 188 387 246 c 0,24,25
 351 264 351 264 325.5 275.5 c 128,-1,26
 300 287 300 287 279 293.5 c 128,-1,27
 258 300 258 300 239 302.5 c 128,-1,28
 220 305 220 305 196 305 c 0,29,30
 154 305 154 305 110.5 292.5 c 128,-1,31
 67 280 67 280 26 258 c 0,32,33
 0 244 0 244 -34.5 219 c 128,-1,34
 -69 194 -69 194 -110 159 c 1,35,-1
 -59 348 l 1,0,1
54 769 m 1,36,37
 101 803 101 803 139 826 c 128,-1,38
 177 849 177 849 212 863 c 128,-1,39
 247 877 247 877 281.5 883 c 128,-1,40
 316 889 316 889 356 889 c 0,41,42
 453 889 453 889 597 814 c 0,43,44
 669 777 669 777 723.5 760.5 c 128,-1,45
 778 744 778 744 813 740 c 1,46,47
 849 740 849 740 890 751 c 128,-1,48
 931 762 931 762 973 781.5 c 128,-1,49
 1015 801 1015 801 1055 828.5 c 128,-1,50
 1095 856 1095 856 1128 888 c 1,51,-1
 1076 691 l 1,52,53
 1044 667 1044 667 1005.5 646.5 c 128,-1,54
 967 626 967 626 926.5 610.5 c 128,-1,55
 886 595 886 595 846.5 586 c 128,-1,56
 807 577 807 577 772 577 c 0,57,58
 760 577 760 577 743 578.5 c 128,-1,59
 726 580 726 580 708 583 c 128,-1,60
 690 586 690 586 672.5 590.5 c 128,-1,61
 655 595 655 595 640 601 c 0,62,63
 638 602 638 602 612 614.5 c 128,-1,64
 586 627 586 627 550 644.5 c 128,-1,65
 514 662 514 662 475 680 c 128,-1,66
 436 698 436 698 408 709 c 1,67,68
 383 717 383 717 358 721.5 c 128,-1,69
 333 726 333 726 309 726 c 0,70,71
 272 726 272 726 239 719.5 c 128,-1,72
 206 713 206 713 171.5 696.5 c 128,-1,73
 137 680 137 680 96.5 652 c 128,-1,74
 56 624 56 624 3 580 c 1,75,-1
 54 769 l 1,36,37
EndSplineSet
Substitution2: "<17016,16016> Urdu Swash lookup 75 subtable" approxequal
EndChar

StartChar: approxequal_mirror
Encoding: 59599 59599 173
Width: 1140
GlyphClass: 2
Flags: W
LayerCount: 2
Fore
SplineSet
933 159 m 1,0,1
 907 200 907 200 882 228 c 128,-1,2
 857 256 857 256 830 273 c 128,-1,3
 803 290 803 290 773 297.5 c 128,-1,4
 743 305 743 305 705 305 c 0,5,6
 683 305 683 305 662.5 303 c 128,-1,7
 642 301 642 301 617 294.5 c 128,-1,8
 592 288 592 288 560 276.5 c 128,-1,9
 528 265 528 265 482 246 c 0,10,11
 408 216 408 216 364 200 c 128,-1,12
 320 184 320 184 308 180 c 0,13,14
 274 170 274 170 234 163.5 c 128,-1,15
 194 157 194 157 162 156 c 1,16,17
 87 156 87 156 29.5 185.5 c 128,-1,18
 -28 215 -28 215 -80 270 c 1,19,-1
 -28 465 l 1,20,21
 -13 438 -13 438 9.5 412 c 128,-1,22
 32 386 32 386 61 365 c 128,-1,23
 90 344 90 344 127 331.5 c 128,-1,24
 164 319 164 319 209 319 c 0,25,26
 244 319 244 319 308 337.5 c 128,-1,27
 372 356 372 356 464 392 c 0,28,29
 558 429 558 429 627.5 448 c 128,-1,30
 697 467 697 467 746 467 c 0,31,32
 787 467 787 467 818 461 c 128,-1,33
 849 455 849 455 876 441 c 128,-1,34
 903 427 903 427 928.5 404.5 c 128,-1,35
 954 382 954 382 984 348 c 1,36,-1
 933 159 l 1,0,1
1046 580 m 1,37,38
 1022 615 1022 615 1000.5 641 c 128,-1,39
 979 667 979 667 961 681 c 0,40,41
 933 702 933 702 896 714 c 128,-1,42
 859 726 859 726 818 726 c 0,43,44
 796 726 796 726 775.5 724 c 128,-1,45
 755 722 755 722 730 715.5 c 128,-1,46
 705 709 705 709 673 697.5 c 128,-1,47
 641 686 641 686 595 667 c 0,48,49
 586 664 586 664 558.5 653 c 128,-1,50
 531 642 531 642 500.5 631 c 128,-1,51
 470 620 470 620 446 610.5 c 128,-1,52
 422 601 422 601 421 601 c 0,53,54
 403 595 403 595 382.5 591 c 128,-1,55
 362 587 362 587 342 584 c 128,-1,56
 322 581 322 581 304.5 579 c 128,-1,57
 287 577 287 577 275 577 c 0,58,59
 240 577 240 577 205 586 c 128,-1,60
 170 595 170 595 138.5 610.5 c 128,-1,61
 107 626 107 626 80 646.5 c 128,-1,62
 53 667 53 667 33 691 c 1,63,-1
 85 888 l 1,64,65
 101 856 101 856 126.5 828.5 c 128,-1,66
 152 801 152 801 183.5 781.5 c 128,-1,67
 215 762 215 762 250.5 751 c 128,-1,68
 286 740 286 740 322 740 c 0,69,70
 391 740 391 740 577 814 c 1,71,72
 762 889 762 889 859 889 c 0,73,74
 899 889 899 889 930 883 c 128,-1,75
 961 877 961 877 988.5 863 c 128,-1,76
 1016 849 1016 849 1041.5 826 c 128,-1,77
 1067 803 1067 803 1097 769 c 1,78,-1
 1046 580 l 1,37,38
EndSplineSet
Substitution2: "<17016,16016> Urdu Swash lookup 75 subtable" approxequal_mirror
EndChar

StartChar: Delta
Encoding: 8710 8710 174
Width: 1253
GlyphClass: 2
Flags: W
LayerCount: 2
Fore
SplineSet
846 165 m 1,0,1
 825 437 825 437 802.5 719 c 128,-1,2
 780 1001 780 1001 759 1273 c 1,3,-1
 94 165 l 1,4,-1
 846 165 l 1,0,1
1053 0 m 1,5,-1
 -201 0 l 1,6,-1
 706 1469 l 1,7,-1
 923 1469 l 1,8,-1
 1053 0 l 1,5,-1
EndSplineSet
Substitution2: "<17016,16016> Urdu Swash lookup 75 subtable" Delta
EndChar

StartChar: guillemotleft
Encoding: 171 171 175
Width: 1147
GlyphClass: 2
Flags: W
LayerCount: 2
Fore
SplineSet
689 -31 m 1,0,1
 684 -25 684 -25 678 -15 c 128,-1,2
 672 -5 672 -5 661 6 c 1,3,-1
 638 38 l 2,4,5
 634 44 634 44 621 59.5 c 128,-1,6
 608 75 608 75 591 96 c 128,-1,7
 574 117 574 117 554.5 140 c 128,-1,8
 535 163 535 163 517.5 183.5 c 128,-1,9
 500 204 500 204 487 220 c 128,-1,10
 474 236 474 236 469 241 c 0,11,12
 452 262 452 262 433 282 c 128,-1,13
 414 302 414 302 396 322 c 1,14,-1
 386 331 l 1,15,-1
 380 339 l 1,16,17
 404 358 404 358 442 386 c 128,-1,18
 480 414 480 414 520 443 c 128,-1,19
 560 472 560 472 596.5 498 c 128,-1,20
 633 524 633 524 655 539 c 0,21,22
 706 575 706 575 753.5 612 c 128,-1,23
 801 649 801 649 836 678 c 0,24,25
 878 712 878 712 896.5 725.5 c 128,-1,26
 915 739 915 739 923 739 c 0,27,28
 945 739 945 739 938 716 c 0,29,30
 934 701 934 701 909 671 c 128,-1,31
 884 641 884 641 839 594 c 0,32,33
 809 564 809 564 744 502 c 128,-1,34
 679 440 679 440 576 344 c 1,35,36
 579 338 579 338 587.5 321 c 128,-1,37
 596 304 596 304 607.5 281 c 128,-1,38
 619 258 619 258 632 232.5 c 128,-1,39
 645 207 645 207 656.5 184 c 128,-1,40
 668 161 668 161 676.5 143 c 128,-1,41
 685 125 685 125 688 119 c 0,42,43
 716 60 716 60 729 24.5 c 128,-1,44
 742 -11 742 -11 738 -23 c 0,45,46
 732 -47 732 -47 710 -47 c 0,47,48
 698 -47 698 -47 689 -31 c 1,0,1
299 -31 m 0,49,50
 295 -25 295 -25 288 -15.5 c 128,-1,51
 281 -6 281 -6 270 6 c 1,52,-1
 247 38 l 1,53,54
 213 79 213 79 176 123 c 128,-1,55
 139 167 139 167 105.5 206.5 c 128,-1,56
 72 246 72 246 45.5 277 c 128,-1,57
 19 308 19 308 6 322 c 1,58,-1
 -4 331 l 1,59,-1
 -10 339 l 1,60,-1
 49 385 l 2,61,62
 57 391 57 391 82.5 409.5 c 128,-1,63
 108 428 108 428 140 451 c 128,-1,64
 172 474 172 474 204.5 497.5 c 128,-1,65
 237 521 237 521 258 536 c 0,66,67
 313 576 313 576 360 611.5 c 128,-1,68
 407 647 407 647 445 678 c 0,69,70
 488 713 488 713 506.5 726 c 128,-1,71
 525 739 525 739 533 739 c 0,72,73
 555 739 555 739 548 716 c 1,74,75
 541 687 541 687 446 592 c 0,76,77
 415 562 415 562 350.5 500.5 c 128,-1,78
 286 439 286 439 185 344 c 1,79,80
 188 338 188 338 196.5 321 c 128,-1,81
 205 304 205 304 216.5 281 c 128,-1,82
 228 258 228 258 241 232.5 c 128,-1,83
 254 207 254 207 265.5 184 c 128,-1,84
 277 161 277 161 285.5 143 c 128,-1,85
 294 125 294 125 297 119 c 0,86,87
 355 -1 355 -1 348 -23 c 1,88,89
 342 -47 342 -47 320 -47 c 0,90,91
 308 -47 308 -47 299 -31 c 0,49,50
EndSplineSet
Substitution2: "<17016,16016> Urdu Swash lookup 75 subtable" guillemotleft
EndChar

